<?xml version="1.0" encoding="utf-8"?>
<!-- Generator: Adobe Illustrator 18.0.0, SVG Export Plug-In . SVG Version: 6.00 Build 0)  -->
<!DOCTYPE svg PUBLIC "-//W3C//DTD SVG 1.1//EN" "http://www.w3.org/Graphics/SVG/1.1/DTD/svg11.dtd">
<svg version="1.1" id="Layer_1" xmlns="http://www.w3.org/2000/svg" xmlns:xlink="http://www.w3.org/1999/xlink" x="0px" y="0px"
	 viewBox="0 0 960 560" enable-background="new 0 0 960 560" xml:space="preserve">
<g>
	<path fill="none" stroke="#D0021B" stroke-width="2" stroke-miterlimit="10" d="M1.6,226.4c13.8,0,27.5-0.3,41.3,0.3
		c18.8,0.9,29.7,21.3,21,37.8c-0.3,0.9-0.9,1.6-1.3,2.2c4.1,3.4,8.8,6.3,12.2,10c9.4,10,11.6,22.2,7.2,35s-13.8,20.6-27.2,23.5
		c-2.2,0.6-4.7,0.6-7.2,0.6c-15.3,0-31,0-46.3,0.3C1.6,299.2,1.6,263,1.6,226.4z M15,300.2c0,6.6,0,13.1,0,19.7c0,1.6,0,2.8,2.2,2.8
		c11.6-0.3,23.5,0.3,35-0.6c10.6-0.9,19.4-12.2,18.8-22.8C70,287.3,61,278,50,278c-10.6-0.3-21.6,0-32.2,0c-2.2,0-2.8,0.6-2.8,2.8
		C15,287,15,293.6,15,300.2z M15,264.5c9.4,0,18.8,0.3,27.8,0c6.3-0.3,10.9-6.3,10.6-12.5c0-6.3-5-12.2-11.6-12.5
		c-8.4-0.3-16.9,0-25,0c-0.6,0-1.9,1.3-1.9,1.6C15,248.9,15,256.4,15,264.5z"/>
	<path fill="none" stroke="#D0021B" stroke-width="2" stroke-miterlimit="10" d="M244.5,222.6c0,10,0,20,0,30c0,26,0,52.2,0,78.2
		c0,1.3,0,2.8,0,4.4c-4.4,0-8.4,0-12.8,0c0-2.5,0-4.7,0-8.1c-10.6,8.8-22.2,12.2-35,8.1c-7.5-2.2-14.1-6.6-18.8-13.1
		c-10-13.8-9.4-32.2,1.3-45.3c6.6-7.8,15-12.2,25-13.1c10-0.9,18.8,3.1,26.9,9.4c0-1.3,0.3-1.9,0.3-2.5c0-15.6,0-31,0-46.6
		c0-0.6,0-0.9-0.3-1.6C235.8,222.6,240.2,222.6,244.5,222.6z M207.9,276.4c-13.1,0-24.1,10.6-24.1,23.8s10.9,24.4,24.1,24.4
		c13.1,0,23.8-10.9,23.8-23.8C231.7,287.3,221.4,276.4,207.9,276.4z"/>
	<path fill="none" stroke="#D0021B" stroke-width="2" stroke-miterlimit="10" d="M588.2,222.6c0,10,0,20-0.3,30c0,6.6,0,13.1,0,20.6
		c9.4-6.9,18.8-11.3,30.3-9.1c11.3,2.2,19.7,8.1,25.6,17.8c8.4,14.7,5.6,33.1-6.9,45c-13.1,12.5-29.1,12.8-48.8,0.6
		c0,2.5-0.3,5-0.3,7.5c-4.1,0-8.1,0-12.5,0c0-1.3,0-2.8,0-4.1c0-34.7,0-69.7,0-104.4c0-1.6,0-2.8,0-4.4
		C579.4,222.6,583.8,222.6,588.2,222.6z M635.7,300.5c0-13.1-10.6-24.1-23.8-24.1c-13.4,0-24.1,10.6-24.1,23.8
		c0,13.4,10.6,24.4,23.8,24.4C624.8,324.6,635.7,313.6,635.7,300.5z"/>
	<path fill="none" stroke="#D0021B" stroke-width="2" stroke-miterlimit="10" d="M806.1,222.6c0,22.8,0,45.7,0,68.5
		c0,13.8,0,27.2,0,41c0,2.5-0.6,3.8-3.1,3.4c-2.2-0.3-4.7,0-6.9,0c-1.9,0-2.5-0.6-2.5-2.5c0-1.6,0-3.1,0-5.9
		c-11.6,9.4-23.8,12.5-37.2,7.8c-7.8-2.8-13.8-7.8-18.1-14.7c-8.8-14.1-6.9-33.1,4.4-45c6.6-6.9,15-10.6,24.4-11.3
		c9.7-0.6,17.8,3.4,26.3,9.1c0-16.9,0-33.5,0-50.3C798,222.6,802.1,222.6,806.1,222.6z M793.6,300.5c0-12.8-10.6-23.8-23.1-24.1
		c-13.4-0.6-24.7,10.9-24.7,23.5c0,13.8,10.6,24.7,23.8,24.7C782.7,324.6,793.6,313.6,793.6,300.5z"/>
	<path fill="none" stroke="#D0021B" stroke-width="2" stroke-miterlimit="10" d="M449.4,335.5c-4.4,0-8.4,0-12.5,0
		c0-1.3,0-2.2,0-3.4c0-11.3,0-22.5,0-33.5c0-11.6-7.8-20.6-18.8-21.9c-10.6-1.3-20.6,6.3-22.8,17.5c-0.3,1.3-0.3,2.8-0.3,4.1
		c0,11.3,0,22.5,0,33.8c0,1.3,0,2.2,0,3.4c-4.4,0-8.4,0-12.5,0c0-1.3-0.3-2.2-0.3-3.4c0-21,0-41.9,0-62.9c0-3.1,0.9-4.1,3.8-3.8
		c1.9,0.3,3.8,0.3,5.6,0c2.8-0.3,3.8,0.6,3.4,3.4c0,0.6,0,1.6,0.3,3.1c7.8-5.3,15.9-9.1,25.3-7.5c9.4,1.6,16.6,6.3,23.1,14.1
		c1.3-1.6,2.5-2.8,3.8-4.1c9.4-9.1,20.6-12.5,33.5-8.8c12.5,3.8,20,12.2,23.1,24.7c0.6,2.2,0.9,4.4,0.9,6.9c0,12.2,0,24.4,0,36.6
		c0,0.6,0,0.9,0,1.9c-4.1,0-8.1,0-12.5,0c0-1.3-0.3-2.2-0.3-3.4c0-10.9,0-22.2,0-33.1c0-12.2-9.1-21.9-20.3-21.9
		c-12.2-0.3-21.9,9.4-21.9,21.6c0,10.9,0,22.2,0,33.1C449.4,332.7,449.4,333.9,449.4,335.5z"/>
	<path fill="none" stroke="#D0021B" stroke-width="2" stroke-miterlimit="10" d="M149.2,327.7c-8.4,6.9-18.1,10.6-29.1,8.8
		c-8.4-1.3-15.9-5-21.6-11.6C86.9,311.4,86,292,96.9,278c6.3-8.4,15-12.8,25.3-14.1c10.3-1.3,19.1,2.8,27.5,9.4
		c0-2.2,0.3-3.8,0.3-5.3c0-1.9,0.6-2.8,2.5-2.5c2.2,0,4.4,0,6.6,0c2.8-0.3,3.8,0.6,3.4,3.4c0,14.1,0,28.5,0,42.5
		c0,7.2,0,14.1,0,21.3c0,2.2-0.6,3.1-3.1,3.1c-2.2-0.3-4.4-0.3-6.6,0c-2.5,0.3-3.4-0.9-3.1-3.1c0-1.3,0-2.8,0-4.1
		C149.8,328,149.5,328,149.2,327.7z M125.7,276.4c-13.1,0-23.8,10.6-23.8,23.8s10.9,24.4,23.8,24.4c13.1,0,24.1-10.9,24.1-24.1
		C150.1,287,139.2,276.4,125.7,276.4z"/>
	<path fill="none" stroke="#D0021B" stroke-width="2" stroke-miterlimit="10" d="M727.3,300.8c0.3,18.1-14.4,36.6-36.9,36.6
		c-23.8-0.3-37.2-19.7-36.6-37.8c0.6-20,16.6-36,37.2-35.6C711.4,263.9,727.7,280.5,727.3,300.8z M714.8,300.2
		c0-13.1-10.9-23.8-24.1-23.8c-13.4,0-23.8,10.9-23.8,24.7c0,12.8,11.3,23.5,24.1,23.1C704.2,324.2,714.8,313.3,714.8,300.2z"/>
	<path fill="none" stroke="#D0021B" stroke-width="2" stroke-miterlimit="10" d="M883.4,303.3c-18.4,0-36.3,0-54.1,0
		c-0.9,8.1,6.6,18.1,15.3,20.6c7.5,2.2,14.1-0.3,19.7-4.7c1.9-1.6,3.4-1.9,5.3-0.3c2.2,1.6,5,3.1,7.8,4.7
		c-4.1,4.7-8.8,8.1-14.4,10.3c-26.9,10.3-46-11.3-46.6-31.6c-0.3-16.9,8.4-31,22.8-36c21.3-7.2,40.7,8.4,43.2,27.5
		C883.1,297,883.1,299.9,883.4,303.3z M869,292.7c-1.3-9.1-11.9-16.9-20.6-15.9c-8.8,0.9-18.1,9.1-18.1,15.9
		C843.4,292.7,856.2,292.7,869,292.7z"/>
	<path fill="none" stroke="#D0021B" stroke-width="2" stroke-miterlimit="10" d="M904,272c1.9-1.3,3.1-2.2,4.7-2.8
		c19.4-12.2,45.7-0.3,49.4,23.8c0.3,1.6,0,3.1,0,4.7c0,11.6,0,22.8,0,34.4c0,1.3,0,2.2,0,3.4c-4.4,0-8.1,0-12.5,0c0-1.3,0-2.2,0-3.4
		c0-11.3,0-22.5,0-33.8c0-11.9-9.4-21.6-21-21.6s-21,9.7-21,21.6c0,11.3,0,22.5,0,33.5c0,1.3,0,2.2,0,3.8c-4.4,0-8.1,0-12.5,0
		c0-0.9,0-2.2,0-3.1c0-21,0-41.9,0-63.2c0-2.8,0.9-4.1,3.8-3.8c0.9,0,1.6,0,2.5,0C903.1,265.5,903.1,265.5,904,272z"/>
	<path fill="none" stroke="#D0021B" stroke-width="2" stroke-miterlimit="10" d="M305.5,288c0-6.6,0-13.1,0-19.7
		c0-2.2,0.6-3.1,2.8-2.8c2.2,0,4.7,0,6.9,0c2.5,0,3.1,0.6,3.1,3.1c0,11.9,0,23.8,0,35.6c0,11.6,8.4,20.3,19.7,20.3
		s19.7-8.8,19.7-20.3c0-11.9,0-23.8,0-35.6c0-2.5,0.9-3.4,3.1-3.1c2.5,0,4.7,0,7.2,0c1.9,0,2.5,0.6,2.5,2.5c0,13.1,0.3,26.3,0,39.4
		c-0.3,16.9-15.9,30.3-33.5,29.7c-18.1-0.6-31.9-15-31.3-33.1C305.8,298.6,305.5,293.3,305.5,288z"/>
	<path fill="none" stroke="#D0021B" stroke-width="2" stroke-miterlimit="10" d="M511.6,325.5c2.8-2.8,5.3-5.6,7.2-8.1
		c5.3,2.5,10.3,5,15.6,6.9c4.1,1.3,8.8,0.9,12.8-0.9c3.4-1.6,5.6-4.1,5.9-8.1c0-3.8-2.5-6.3-5.6-7.2c-5.6-1.9-11.3-2.8-16.9-4.4
		c-2.8-0.9-5.9-1.9-8.8-3.4c-11.9-7.2-11.6-24.7,0.6-31.6c11.6-6.6,27.5-4.7,38.5,4.7c-2.5,2.8-4.7,5.6-6.6,7.8
		c-5-1.9-9.7-4.1-14.4-5c-4.1-0.9-8.1,0-11.6,2.8c-4.7,3.8-4.4,9.7,1.3,12.2c4.4,1.9,9.4,2.8,14.1,4.4c3.1,0.9,5.9,1.6,8.8,2.5
		c6.6,2.5,11.3,6.9,12.2,14.1c1.3,7.8-1.3,14.7-7.8,19.4c-9.1,6.6-19.4,6.6-29.7,3.1C521.3,332.4,516.3,329.6,511.6,325.5z"/>
	<path fill="none" stroke="#D0021B" stroke-width="2" stroke-miterlimit="10" d="M271.7,272.3c7.8-5.6,16.3-7.8,25.6-8.8
		c-0.9,4.4-1.6,8.1-2.8,11.9c-0.3,0.9-2.5,1.3-4.1,1.6c-5.9,0.9-10.6,3.8-14.4,8.4c-2.8,3.8-4.4,7.8-4.4,12.5c0,11.3,0,22.5,0,33.5
		c0,1.3,0,2.2,0,3.4c-4.4,0-8.1,0-12.5,0c0-0.9-0.3-1.9-0.3-3.1c0-21.3,0-42.2,0-63.5c0-3.1,0.9-3.8,3.8-3.4c1.9,0.3,4.1,0,5.9,0
		c2.2,0,3.4,0.6,3.1,3.1C271.7,269.5,271.7,270.5,271.7,272.3z"/>
	<path fill="none" stroke="#D0021B" stroke-width="2" stroke-miterlimit="10" d="M15,300.2c0-6.6,0-13.1,0-20c0-1.9,0.6-2.8,2.8-2.8
		c10.6,0,21.6,0,32.2,0c10.9,0.3,20.3,9.7,21,21.3c0.6,10.6-8.1,21.9-18.8,22.8c-11.6,0.9-23.5,0.6-35,0.6c-2.2,0-2.2-1.3-2.2-2.8
		C15,313.3,15,306.7,15,300.2z"/>
	<path fill="none" stroke="#D0021B" stroke-width="2" stroke-miterlimit="10" d="M15,264.5c0-8.1,0-15.6,0-23.5
		c0-0.6,1.3-1.6,1.9-1.6c8.4,0,16.9-0.3,25,0c6.3,0.3,11.3,6.3,11.6,12.5c0,6.3-4.4,12.2-10.6,12.5C33.8,264.8,24.4,264.5,15,264.5z
		"/>
	<path fill="none" stroke="#D0021B" stroke-width="2" stroke-miterlimit="10" d="M207.9,276.4c13.1,0,23.8,10.6,23.8,24.4
		c0,13.1-10.9,23.8-23.8,23.8c-13.1,0-24.1-11.3-24.1-24.4S194.8,276.4,207.9,276.4z"/>
	<path fill="none" stroke="#D0021B" stroke-width="2" stroke-miterlimit="10" d="M635.7,300.5c0,13.1-10.9,24.1-24.1,24.1
		s-23.8-10.9-23.8-24.4s10.6-23.8,24.1-23.8C625.1,276.4,635.7,287.3,635.7,300.5z"/>
	<path fill="none" stroke="#D0021B" stroke-width="2" stroke-miterlimit="10" d="M793.6,300.5c0,13.1-10.9,24.1-24.1,24.1
		c-13.4,0-23.8-10.9-23.8-24.7c0-12.5,11.3-24.1,24.7-23.5C783,277,793.6,287.7,793.6,300.5z"/>
	<path fill="none" stroke="#D0021B" stroke-width="2" stroke-miterlimit="10" d="M125.7,276.4c13.4,0,24.1,10.6,24.1,24.1
		c0,13.1-10.9,24.4-24.1,24.1c-13.1,0-24.1-10.9-23.8-24.4C101.9,287,112.6,276.4,125.7,276.4z"/>
	<path fill="none" stroke="#D0021B" stroke-width="2" stroke-miterlimit="10" d="M714.8,300.2c0,13.1-10.6,23.8-23.8,24.1
		c-12.8,0.3-24.1-10.6-24.1-23.1c0-13.8,10.3-24.4,23.8-24.7C703.6,276.4,714.5,287.3,714.8,300.2z"/>
	<path fill="none" stroke="#D0021B" stroke-width="2" stroke-miterlimit="10" d="M869,292.7c-13.1,0-25.6,0-38.5,0
		c-0.3-6.9,9.1-15,18.1-15.9C857.4,276.1,867.8,283.9,869,292.7z"/>
</g>
</svg>
