<?xml version="1.0" encoding="UTF-8"?>
<svg width="501px" height="112px" viewBox="0 0 501 112" version="1.1" xmlns="http://www.w3.org/2000/svg" xmlns:xlink="http://www.w3.org/1999/xlink">
    <!-- Generator: Sketch 52.4 (67378) - http://www.bohemiancoding.com/sketch -->
    <title>cinnober</title>
    <desc>Created with Sketch.</desc>
    <g id="Page-1" stroke="none" stroke-width="1" fill="none" fill-rule="evenodd">
        <g id="cinnober" transform="translate(1.000000, 1.000000)" stroke="#D0021B" stroke-width="2">
            <path d="M175.4,98.5 C175.9,106.1 172.5,110 165.4,110 C113.5,110 61.6,110 9.7,110 C4.2,110 0.9,107 0.3,101.5 C0,100.4 0,99.3 0,98.3 C0,69.2 0,40.1 0,11 C0,3.3 3.3,0 10.9,0 C62.3,0 113.7,0 165,0 C172.2,0 175.8,3.6 175.3,10.8 C174,10.8 172.6,10.8 171.3,10.8 C138.2,10.8 105,10.8 71.9,10.8 C63,10.8 57.7,16 57.7,25 C57.7,44.7 57.7,64.5 57.7,84.2 C57.7,93.1 62.9,98.4 71.8,98.4 C104.9,98.4 138.1,98.4 171.2,98.4 C172.6,98.5 173.9,98.5 175.4,98.5 Z" id="Path"></path>
            <path d="M175.5,78.5 C175.5,81 175.6,83.3 175.5,85.5 C175.3,87.9 174,89.5 171.4,89.5 C170,89.5 168.6,89.5 167.2,89.5 C135.8,89.5 104.3,89.5 72.9,89.5 C67.6,89.5 66.4,88.4 66.4,83.2 C66.4,64.1 66.4,45 66.4,25.9 C66.4,20.9 67.5,19.9 72.4,19.9 C104.7,19.9 137,19.9 169.3,19.9 C174.7,19.9 175.5,20.7 175.5,26.3 C175.5,27.6 175.5,28.9 175.5,30.7 C174.1,30.7 172.9,30.7 171.6,30.7 C157.7,30.7 143.7,30.7 129.8,30.7 C121.2,30.7 116.3,35.6 116.3,44.3 C116.3,51.5 116.3,58.7 116.3,65.9 C116.3,73.6 121.5,78.7 129.3,78.7 C143.5,78.7 157.6,78.7 171.8,78.7 C172.9,78.5 174.1,78.5 175.5,78.5 Z" id="Path"></path>
            <path d="M175.5,50.3 C172.2,50.3 169.2,50 166.3,50.4 C164.5,50.7 162.3,51.6 161.3,53 C159.4,55.6 161.6,59.1 165.1,59.3 C168.5,59.5 171.9,59.3 175.2,59.3 C176.5,69 175.8,69.8 166.7,69.8 C154.7,69.8 142.7,69.8 130.7,69.8 C126.1,69.8 125.3,69 125.2,64.4 C125.2,57.5 125.2,50.7 125.2,43.8 C125.2,40.3 126.1,39.4 129.6,39.3 C143.4,39.3 157.2,39.3 171.1,39.3 C174.5,39.3 175.5,40.4 175.5,43.7 C175.6,45.9 175.5,47.9 175.5,50.3 Z" id="Path"></path>
            <path d="M410.9,46.8 C414.3,43 418.2,42.1 422.4,42.6 C427.1,43.2 431.2,46.5 432,51.7 C432.7,56.1 432.8,60.9 431.9,65.3 C430.2,73.3 423.7,78.1 415,78.3 C410.9,78.4 406.7,77.7 402.6,77 C401.8,76.9 400.6,75.4 400.5,74.5 C400.4,59.2 400.4,43.8 400.4,28.5 C400.4,28.1 400.6,27.7 400.7,27.2 C404.1,27.2 407.3,27.2 410.8,27.2 C410.9,33.6 410.9,39.8 410.9,46.8 Z M411.2,69.2 C415.7,70.7 419.2,69.7 420.7,66.3 C422.5,62.3 422.6,58.2 421.1,54.1 C419.9,50.9 416.1,50 413.9,52.7 C412.6,54.3 411.6,56.6 411.3,58.7 C410.9,62.2 411.2,65.7 411.2,69.2 Z" id="Shape" fill-rule="nonzero"></path>
            <path d="M247.7,31.5 C247.3,34.8 246.9,37.8 246.5,40.9 C240.3,40.5 233.8,38.2 229.2,44.2 C226,48.3 226,53.2 226.7,58 C228,67.1 234.1,69.8 246.8,66.9 C247.1,69.6 247.6,72.3 247.8,75 C247.8,75.5 247.1,76.4 246.6,76.5 C239,78.9 226.5,79.1 220.1,72 C215.5,66.9 214.2,60.6 214.8,54.1 C215.2,49.8 216.1,45.3 218,41.5 C222.4,32.6 230.8,30.1 239.8,30.4 C242.2,30.6 244.9,31.2 247.7,31.5 Z" id="Path"></path>
            <path d="M392.4,59.6 C392.4,70.6 385,78.3 374.3,78.4 C363.5,78.5 357.8,72.5 357.8,61.2 C357.8,50 365.2,42.4 376.2,42.5 C386.8,42.5 392.5,48.5 392.4,59.6 Z M381.6,59.5 C381.6,59.2 381.6,58.2 381.4,57.3 C380.7,53.4 378.9,51.5 375.8,51.3 C372.6,51.1 370.2,53 369.2,56.7 C368.9,57.8 368.8,59 368.7,60.2 C368.6,66 370.9,69.3 375,69.2 C379.1,69.2 381.6,65.7 381.6,59.5 Z" id="Shape" fill-rule="nonzero"></path>
            <path d="M318.8,43.3 C321.9,43.3 325,43.3 328.2,43.3 C328.2,44.6 328.2,45.8 328.2,47.8 C331.7,44.1 335.4,42.2 340.1,42.4 C345.6,42.6 349,45.1 349.4,50.6 C349.9,58.9 349.8,67.3 349.7,75.6 C349.7,76.2 348.5,77.4 347.9,77.4 C345.2,77.6 342.4,77.5 339.2,77.5 C339.2,70.8 339.2,64.4 339.2,58 C339.2,56.9 339.3,55.9 339.2,54.8 C339,51.4 336.5,50.1 333.6,51.9 C330.5,53.8 329.3,56.9 329.3,60.4 C329.2,65.1 329.2,69.8 329.3,74.5 C329.4,76.7 328.8,77.6 326.4,77.5 C324,77.3 321.5,77.5 318.8,77.5 C318.8,66 318.8,54.7 318.8,43.3 Z" id="Path"></path>
            <path d="M277.6,43.2 C280.8,43.2 283.7,43.2 286.8,43.2 C286.9,44.5 287,45.7 287.1,47.3 C287.9,46.7 288.5,46.2 289.1,45.7 C292.7,42.5 296.9,41.8 301.4,42.7 C305.2,43.5 307.9,46.1 308,50 C308.3,59 308.1,68 308.1,77.2 C304.8,77.2 301.5,77.2 297.9,77.2 C297.9,70.5 297.9,63.9 297.9,57.3 C297.9,55 298.6,52.3 295.5,51.3 C293.2,50.6 290.3,52.3 289.1,55.5 C288.2,57.8 287.8,60.5 287.7,63 C287.5,67.7 287.6,72.4 287.6,77.3 C284,77.3 280.9,77.3 277.5,77.3 C277.6,66 277.6,54.7 277.6,43.2 Z" id="Path"></path>
            <path d="M449.9,62.9 C450.8,70.4 456.1,71.8 468.1,68.4 C468.2,68.7 468.4,68.9 468.5,69.2 C469.6,77.2 470.5,76.4 462.3,77.7 C458.8,78.3 455,78.2 451.5,77.7 C445.4,76.9 441.1,73.3 440.1,67.1 C439.4,63.2 439.2,58.9 440,55 C442.6,42.6 453.8,40.3 462,43.5 C464.7,44.5 467.1,47.3 468.9,49.8 C471.1,53 471.1,58.4 470,62.8 C463.4,62.9 456.8,62.9 449.9,62.9 Z M450.2,55.7 C453.5,55.7 456.8,55.7 460.1,55.7 C459.9,51.8 458.6,50.1 455.7,50 C452.6,49.9 450.7,51.9 450.2,55.7 Z" id="Shape" fill-rule="nonzero"></path>
            <path d="M479,43.3 C482.4,43.3 485.5,43.3 488.7,43.3 C488.7,44.7 488.7,46.1 488.7,48.2 C491.4,44.7 493.9,41.9 498.4,42.6 C498.4,45.9 498.4,49.1 498.4,52.3 C491.9,52.9 489.8,55 489.6,61.5 C489.5,66.7 489.6,72 489.6,77.6 C486.5,77.6 483.6,77.7 480.7,77.5 C480.1,77.5 479,76.4 479,75.9 C479,65.1 479,54.3 479,43.3 Z" id="Path"></path>
            <path d="M266.7,77.4 C263.3,77.4 260.2,77.4 256.9,77.4 C256.9,66 256.9,54.8 256.9,43.4 C260.1,43.4 263.3,43.4 266.7,43.4 C266.7,54.5 266.7,65.8 266.7,77.4 Z" id="Path"></path>
            <path d="M268.3,33.2 C268.3,36.7 265.5,39.5 262,39.5 C258.5,39.5 255.6,36.7 255.5,33.3 C255.5,29.9 258.3,27 261.8,27 C265.4,27 268.3,29.7 268.3,33.2 Z" id="Path"></path>
        </g>
    </g>
</svg>