<?xml version="1.0" encoding="UTF-8"?>
<svg width="419px" height="288px" viewBox="0 0 419 288" version="1.1" xmlns="http://www.w3.org/2000/svg" xmlns:xlink="http://www.w3.org/1999/xlink">
    <!-- Generator: Sketch 52.4 (67378) - http://www.bohemiancoding.com/sketch -->
    <title>digiexam</title>
    <desc>Created with Sketch.</desc>
    <g id="Page-1" stroke="none" stroke-width="1" fill="none" fill-rule="evenodd">
        <g id="digiexam" transform="translate(1.000000, 1.000000)" stroke="#D0021B" stroke-width="2">
            <path d="M277.8,111.8 C268,119.4 258.4,126.9 248.6,134.5 C234.8,122.6 221.1,110.7 207.2,98.7 C206.8,99.6 206.5,100.2 206.2,100.9 C201.1,113.7 196,126.6 190.9,139.4 C190.4,140.6 190,141.2 188.6,140.9 C178.1,138.7 167.6,136.6 156.8,134.4 C157.1,133.5 157.4,132.8 157.6,132.1 C164.9,113.9 172.1,95.6 179.5,77.5 C180.3,75.5 179.6,74.7 178.4,73.5 C165.7,62.6 153.1,51.6 140.4,40.6 C139.9,40.2 139.4,39.7 138.7,39.1 C142.7,36 146.5,33 150.4,30 C155.5,26 160.7,22.1 165.8,18 C167.2,16.9 168,16.8 169.4,18.1 C177,24.8 184.6,31.4 192.3,38 C193,38.6 193.7,39.1 194.6,39.9 C195.8,36.9 197,34.1 198.1,31.3 C202,21.6 205.9,11.8 209.7,2 C210.4,0.2 211.1,-0.2 213,0.2 C222.8,2.3 232.7,4.2 242.6,6.2 C242.9,6.3 243.1,6.4 243.6,6.6 C243.3,7.3 243.1,8 242.9,8.7 C236,26 229.2,43.4 222.3,60.7 C221.6,62.5 221.8,63.4 223.2,64.7 C240.9,79.9 258.5,95.2 276.1,110.4 C276.7,110.7 277.2,111.2 277.8,111.8 Z" id="Path"></path>
            <path d="M98.1,258 C94,253.8 92.6,249.8 98.5,241.5 C97.6,240.7 96.6,239.9 95.9,239 C90.6,232.7 90.3,225.4 92.8,218.1 C95.1,211.2 100.9,208.7 107.5,207.5 C112.2,206.7 116.8,207.1 121.5,207.7 C125.4,208.2 129.5,208 133.5,208.1 C136.1,208.1 138.6,208.1 141.3,208.1 C141.3,211.6 141.3,215.2 141.3,219.1 C138.9,218.9 136.5,218.8 134.5,218.7 C134.9,221.9 135.4,225 135.7,228.1 C135.8,229.5 135.4,231 135.2,232.4 C133.9,238.8 129.6,242.3 123.4,243.3 C119.1,244 114.8,243.9 110.4,244.2 C109.8,244.2 109,244.7 108.8,245.1 C107.1,249 108.1,250.8 112.2,251.2 C116.5,251.6 120.8,251.5 125,251.9 C127.9,252.2 130.9,252.8 133.7,253.6 C137.2,254.6 139.5,257.1 140.5,260.6 C143.3,270.8 140.8,279.9 128.9,283.4 C127,284 125,284.5 123,284.7 C115.4,285.6 107.9,285.3 100.4,283.4 C89.3,280.5 88.6,268 94.2,261.9 C95.4,260.6 96.7,259.4 98.1,258 Z M121.8,225.7 C121.8,220.5 119.1,217.9 113.8,217.8 C108.6,217.7 105.7,220.5 105.6,225.5 C105.5,230.6 108.4,233.4 113.8,233.4 C119,233.5 121.8,230.9 121.8,225.7 Z M116,274 C118.6,273.4 121.5,273.1 124.3,272.2 C126.6,271.5 127.4,269.5 127,267.2 C126.6,265 125.1,264.3 123.1,264.2 C118.3,263.8 113.5,263.4 108.6,263.1 C108.3,263.1 107.8,263 107.6,263.2 C105.8,264.7 104.8,266.6 104.7,268.9 C104.6,270.9 105.9,272.1 107.6,272.5 C110.3,273.2 113,273.5 116,274 Z" id="Shape"></path>
            <path d="M385.6,260.8 C380.8,260.8 376.3,260.8 371.5,260.8 C371.5,259.9 371.5,259.1 371.5,258.3 C371.4,248.5 371.3,238.8 371.2,229 C371.2,228 371,227.1 370.9,226.1 C370,220.6 368,219 362.4,219.4 C360.4,219.6 358.4,220.2 356.3,220.6 C354.8,220.9 354.4,221.7 354.4,223.2 C354.5,234.9 354.4,246.6 354.4,258.3 C354.4,259 354.4,259.8 354.4,260.7 C349.7,260.7 345.2,260.7 340.5,260.7 C340.5,243.2 340.5,225.7 340.5,208 C345,208 349.5,208 354.1,208 C354.2,208.8 354.3,209.6 354.5,210.6 C355.8,210 357.1,209.3 358.4,208.8 C364.5,206 370.9,205.4 376.6,209.1 C379.7,211.1 381.8,210.9 384.8,209.5 C390.2,207.1 395.8,206.1 401.8,206.9 C408.2,207.7 412.8,210.8 414.5,217.1 C415.5,220.9 416.2,225 416.3,228.9 C416.6,239.1 416.4,249.2 416.4,259.4 C416.4,259.7 416.3,260.1 416.3,260.6 C411.8,260.6 407.2,260.6 402.3,260.6 C402.3,259.9 402.3,259.1 402.3,258.3 C402.3,248.8 402.3,239.3 402.2,229.9 C402.2,228 401.8,226 401.4,224.2 C400.6,220.8 398.6,219.2 395.1,219.4 C392.1,219.6 389.1,220.3 386.2,221.1 C385.7,221.2 385.2,222.6 385.2,223.3 C385.2,231.5 385.4,239.8 385.5,248 C385.6,252.3 385.6,256.5 385.6,260.8 Z" id="Path"></path>
            <path d="M0,261.1 C0,236.8 0,212.9 0,189 C0.6,188.9 1.1,188.8 1.5,188.8 C10.7,188.9 19.9,188.9 29.1,189.1 C31.7,189.2 34.3,189.6 36.9,190.1 C45.9,191.9 51.1,197.9 53,206.5 C55.6,218.3 55.5,230.3 52.9,242.1 C50.5,253.3 43.9,259.2 32.3,260.2 C21.7,261.1 10.9,260.9 0,261.1 Z M14.5,202 C14.5,217.2 14.5,232.6 14.5,247.9 C19.1,247.9 23.6,248.2 28,247.8 C33.7,247.3 37.3,243.7 38.4,238.1 C40.1,229.3 40,220.3 38.7,211.5 C37.8,205.5 34.8,202.5 29.5,202.1 C24.7,201.7 19.7,202 14.5,202 Z" id="Shape"></path>
            <path d="M225.1,248.1 C225.1,252 225.1,255.5 225.1,259 C225.1,259.5 225,260.1 225,260.7 C209.6,260.7 194.2,260.7 178.8,260.7 C178.8,236.8 178.8,212.9 178.8,188.9 C194.2,188.9 209.6,188.9 225.1,188.9 C225.1,193.1 225.1,197.1 225.1,201.4 C214.6,201.4 204.1,201.4 193.4,201.4 C193.3,202.4 193.3,203.1 193.3,203.8 C193.3,207.8 193.4,211.8 193.3,215.8 C193.2,217.8 193.8,218.4 195.8,218.4 C202.6,218.3 209.5,218.4 216.3,218.4 C217.1,218.4 217.9,218.4 218.8,218.4 C218.8,222.7 218.8,226.6 218.8,230.9 C210.4,230.9 202,230.9 193.4,230.9 C193.4,236.7 193.4,242.3 193.4,248.1 C203.8,248.1 214.3,248.1 225.1,248.1 Z" id="Path"></path>
            <path d="M312.3,227.8 C312.5,227.4 312.5,227.4 312.5,227.3 C312.8,221.4 312.5,218.3 304.5,218.9 C299.2,219.2 293.9,219.3 288.6,219.5 C288,219.5 287.4,219.5 286.5,219.5 C286.4,216.5 286.2,213.6 286.1,210.7 C286.1,210.3 286.7,209.6 287.1,209.5 C296,207.3 305,205.7 314.1,207.3 C322.3,208.8 326.3,213.5 326.6,221.9 C326.8,229.3 326.7,236.7 326.7,244.1 C326.7,244.8 326.7,245.5 326.7,246.2 C326.9,248.6 327.2,251 329.9,251.5 C329.9,255 329.9,258.4 329.9,262 C325.1,262.2 320.6,262 316.6,259.6 C315.2,258.8 314.1,258.7 312.6,259.3 C308,261.3 303.1,262.3 298.1,262.1 C288.6,261.8 283.3,256.6 282.8,247.1 C282.7,245.7 282.7,244.2 282.8,242.7 C283.1,236 286,231.8 292.5,230.1 C297.3,228.9 302.3,228.6 307.2,228 C308.9,228 310.7,227.9 312.3,227.8 Z M312.6,237.6 C309.2,237.9 306.1,238.2 303.1,238.5 C302.6,238.5 302.1,238.6 301.7,238.7 C297.4,239.8 295.4,245.3 298.2,248.8 C298.9,249.7 300.4,250.6 301.5,250.5 C304.9,250.3 308.2,249.8 311.5,249.2 C312,249.1 312.6,248.3 312.6,247.9 C312.7,244.6 312.6,241.3 312.6,237.6 Z" id="Shape"></path>
            <path d="M231,207.9 C236,207.9 240.5,207.8 245,208 C245.7,208 246.5,208.8 246.9,209.5 C249.2,213.8 251.4,218.2 253.7,222.6 C253.9,223.1 254.2,223.5 254.7,224.3 C256.2,221.5 257.5,219 258.8,216.4 C260.1,214 261.2,211.6 262.6,209.3 C262.9,208.7 263.8,208.1 264.4,208 C268.9,207.9 273.4,207.9 278.3,207.9 C277.9,208.8 277.6,209.4 277.2,210 C272.9,217.4 268.7,224.8 264.3,232.2 C263.6,233.4 263.6,234.3 264.3,235.6 C268.6,243.2 272.9,250.9 277.1,258.6 C277.5,259.2 277.8,259.9 278.3,260.9 C273.4,260.9 268.7,260.9 264.1,260.8 C263.6,260.8 262.9,260 262.6,259.4 C260,254.7 257.5,249.9 254.8,244.8 C254.3,245.7 253.8,246.4 253.5,247.1 C251.4,251.2 249.2,255.3 247.1,259.4 C246.6,260.4 246,260.9 244.7,260.9 C240.3,260.8 235.9,260.9 231.2,260.9 C232.7,258.1 234.1,255.5 235.5,253 C238.6,247.2 241.8,241.5 245,235.7 C245.6,234.7 245.6,233.9 245,232.9 C240.8,225.4 236.7,217.8 232.5,210.2 C231.8,209.6 231.5,208.9 231,207.9 Z" id="Path"></path>
            <path d="M66.2,208 C70.8,208 75.4,208 80.1,208 C80.1,225.6 80.1,243.1 80.1,260.7 C75.5,260.7 70.9,260.7 66.2,260.7 C66.2,243.3 66.2,225.8 66.2,208 Z" id="Path"></path>
            <path d="M163.9,207.9 C163.9,225.7 163.9,243.2 163.9,260.7 C159.2,260.7 154.7,260.7 150.1,260.7 C150.1,259.9 150,259.2 150,258.6 C150,242.5 150,226.4 150,210.2 C150,208.3 150.5,207.7 152.4,207.8 C156.2,208 160,207.9 163.9,207.9 Z" id="Path"></path>
            <path d="M255.2,57 C248.1,57 242.7,51.6 242.7,44.6 C242.7,37.5 248.1,32 255.3,32.1 C262.3,32.1 267.8,37.6 267.8,44.6 C267.9,51.7 262.5,57 255.2,57 Z" id="Path"></path>
            <path d="M80.1,186.9 C80.1,191.7 80.1,196.3 80.1,201 C75.4,201 70.8,201 66.2,201 C66.2,196.3 66.2,191.6 66.2,186.9 C70.8,186.9 75.3,186.9 80.1,186.9 Z" id="Path"></path>
            <path d="M164,186.7 C164,191.6 164,196.2 164,200.9 C159.4,200.9 154.9,200.9 150,200.9 C150,198.2 150,195.5 150,192.8 C150,190.8 149.5,188.2 150.5,187.1 C151.4,186.1 154.1,186.7 156,186.7 C158.6,186.7 161.2,186.7 164,186.7 Z" id="Path"></path>
            <path d="M121.8,225.7 C121.8,230.9 119.1,233.5 113.8,233.5 C108.5,233.5 105.5,230.7 105.6,225.6 C105.7,220.6 108.6,217.8 113.8,217.9 C119.1,217.9 121.8,220.6 121.8,225.7 Z" id="Path"></path>
            <path d="M116,274 C113,273.5 110.2,273.1 107.6,272.4 C105.9,272 104.6,270.8 104.7,268.8 C104.8,266.5 105.8,264.5 107.6,263.1 C107.8,262.9 108.3,263 108.6,263 C113.4,263.4 118.2,263.7 123.1,264.1 C125,264.3 126.6,265 127,267.1 C127.4,269.4 126.6,271.3 124.3,272.1 C121.6,273.1 118.7,273.5 116,274 Z" id="Path"></path>
            <path d="M14.5,202 C19.7,202 24.7,201.7 29.6,202.1 C34.9,202.6 37.9,205.6 38.8,211.5 C40.1,220.3 40.2,229.3 38.5,238.1 C37.4,243.7 33.8,247.3 28.1,247.8 C23.7,248.2 19.2,247.9 14.6,247.9 C14.5,232.6 14.5,217.2 14.5,202 Z" id="Path"></path>
            <path d="M312.6,237.6 C312.6,241.3 312.6,244.6 312.5,247.9 C312.5,248.4 311.8,249.2 311.4,249.2 C308.1,249.7 304.7,250.3 301.4,250.5 C300.3,250.6 298.8,249.7 298.1,248.8 C295.3,245.3 297.4,239.8 301.6,238.7 C302.1,238.6 302.5,238.5 303,238.5 C306.2,238.2 309.3,237.9 312.6,237.6 Z" id="Path"></path>
        </g>
    </g>
</svg>