<?xml version="1.0" encoding="UTF-8"?>
<svg width="298px" height="226px" viewBox="0 0 298 226" version="1.1" xmlns="http://www.w3.org/2000/svg" xmlns:xlink="http://www.w3.org/1999/xlink">
    <!-- Generator: Sketch 52.4 (67378) - http://www.bohemiancoding.com/sketch -->
    <title>glassboat</title>
    <desc>Created with Sketch.</desc>
    <g id="Page-1" stroke="none" stroke-width="1" fill="none" fill-rule="evenodd">
        <g id="glassboat" transform="translate(1.000000, 2.000000)" stroke="#D0021B" stroke-width="2">
            <path d="M266.326284,214.471428 C265.971153,214.91146 265.527238,215.263485 265.349673,215.791523 C264.728193,217.375637 263.574016,218.343707 262.242274,219.047757 C260.289052,220.103833 258.513395,221.599941 256.47139,222.127979 C253.719122,222.744023 250.700506,222.568011 247.859456,222.744023 C247.68189,222.744023 247.593107,222.568011 247.415542,222.568011 C245.107188,222.656017 243.153966,221.511935 241.023178,220.983897 C239.957784,220.719878 238.626042,221.335922 237.383082,221.599941 C236.317688,221.86396 235.252295,222.215985 234.186901,222.391998 C233.476638,222.480004 232.766375,222.391998 232.056113,222.391998 C228.771148,222.568011 226.018881,221.247916 223.79931,218.871745 C223.266613,218.343707 222.911482,217.463644 222.645133,216.671587 C222.201219,215.527504 221.846088,214.383422 221.224608,212.711302 C220.33678,217.111618 218.738689,220.367852 214.38833,221.687947 C210.215537,222.920036 206.575442,222.391998 202.846563,220.279846 C199.384033,222.215985 195.477588,223.008042 191.393578,222.920036 C187.6647,222.83203 184.202169,221.775954 180.917205,220.103833 C180.739639,220.015827 180.650856,219.927821 180.562073,219.839814 C178.342503,217.639656 177.454674,217.727663 175.146321,219.575795 C173.725796,220.719878 172.038922,221.687947 170.352048,222.215985 C166.534387,223.360068 162.450377,223.184055 158.721498,222.127979 C155.614099,221.247916 152.595483,219.839814 150.375912,216.935606 C148.067559,214.031397 146.824599,210.863169 146.025554,207.254909 C144.427463,200.478422 145.404074,193.701934 145.315291,186.925447 C145.315291,185.253326 146.114337,183.581206 146.469468,181.909086 C146.647034,181.293042 146.735817,180.588991 146.913382,179.88494 C145.048943,179.796934 143.539635,179.708928 141.763978,179.532915 C141.675195,180.148959 141.586413,180.676997 141.586413,181.293042 C141.586413,191.765795 141.675195,202.238548 141.49763,212.799308 C141.408847,215.967536 140.165887,219.047757 137.058488,220.807884 C134.128655,222.480004 130.843691,222.744023 127.736292,222.039973 C125.960635,221.687947 123.741064,221.247916 122.498105,219.399783 C122.409322,219.22377 121.787842,219.22377 121.521494,219.399783 C120.544883,220.015827 119.745837,220.807884 118.769226,221.247916 C114.685216,223.184055 110.689989,222.391998 106.783545,220.543865 C106.162065,220.279846 105.718151,219.663802 105.274237,219.22377 C100.746312,222.039973 95.9520398,223.272061 90.4475045,222.480004 C87.6952369,222.039973 85.2981006,221.159909 82.8121814,220.103833 C82.4570501,219.927821 81.7467875,219.927821 81.480439,220.19184 C78.7281714,222.215985 75.5319897,222.215985 72.3358079,222.127979 C67.9854494,222.039973 63.5463081,222.127979 59.1959496,222.039973 C58.485687,222.039973 57.8642072,221.511935 57.1539446,221.511935 C55.8222022,221.423928 54.3128941,221.159909 53.0699345,221.599941 C50.5840154,222.391998 48.0980963,222.480004 45.7009599,221.599941 C44.4580004,221.159909 43.2150408,220.455859 41.8832984,220.103833 C41.4393843,220.015827 40.8179045,220.367852 40.3739904,220.719878 C37.5329399,222.568011 34.2479753,222.568011 31.1405764,222.039973 C28.3883088,221.511935 25.9911725,220.19184 24.4818644,217.375637 C22.9725564,214.471428 23.9491675,211.567219 23.5940361,208.751017 C23.5052533,208.134972 23.5052533,207.606934 23.5940361,206.99089 C23.7716018,205.406776 23.150122,204.878738 21.4632483,205.406776 C21.4632483,207.694941 21.3744655,210.071112 21.4632483,212.535289 C21.5520311,215.351492 21.0193342,217.815669 18.8885463,219.751808 C18.3558494,220.279846 17.5568039,220.543865 16.8465413,220.983897 C13.9167081,222.656017 10.5429606,222.83203 7.52434455,222.039973 C4.32816279,221.159909 1.57589517,219.399783 0.688066905,215.439498 C0.155369946,213.23934 0.0665871199,211.039181 0.0665871199,208.927029 C-0.0221957066,198.894308 -0.0221957066,188.861586 0.0665871199,178.916871 C0.0665871199,176.364687 1.04319821,173.988516 3.08520322,172.052377 C4.94964258,170.204244 7.08043041,169.676206 9.47756673,169.676206 C14.3606222,169.676206 19.1548948,169.676206 24.0379503,169.676206 C25.1033442,169.676206 26.2575209,170.028231 27.3229149,170.204244 C27.766829,170.29225 28.299526,170.380257 28.7434401,170.29225 C33.2713642,169.060162 37.8880712,169.940225 42.4159954,169.676206 C43.0374752,169.676206 43.5701721,169.676206 43.6589549,169.676206 C44.9906973,166.507978 45.8785256,163.515763 47.3878337,160.875573 C48.3644447,159.203452 49.8737528,157.707345 51.4718437,156.475256 C54.4904598,154.187092 57.7754244,152.250952 60.9716061,150.1388 C63.6350909,148.46668 66.3873585,146.79456 69.0508433,145.12244 C71.9806766,143.1863 74.9105099,141.250161 77.8403431,139.226015 C79.7047825,137.993927 81.480439,136.673832 83.2560956,135.265731 C83.6112269,135.001712 83.8775753,134.473674 83.9663582,134.033642 C84.4102723,130.513389 85.8307975,127.521173 88.4054995,125.145002 C88.9381965,124.616964 89.3821106,124.00092 89.9148076,123.472882 C90.0923732,123.29687 90.0923732,122.944844 90.0035904,122.768832 C88.671848,119.864623 88.9381965,116.784401 88.671848,113.792186 C88.4054995,111.06399 88.5830652,108.247787 88.5830652,105.431584 C88.5830652,104.551521 88.4054995,104.111489 87.5176712,103.583451 C84.8541864,101.999337 82.2794845,100.063198 79.7047825,98.3910779 C78.1066916,97.3350019 76.3310351,96.4549386 74.7329442,95.3988626 C73.4899846,94.6068057 72.2470251,93.5507297 71.0928483,92.6706664 C70.5601514,92.3186411 70.0274544,92.0546221 69.4947575,91.7025967 C66.9200555,90.1184828 64.2565707,88.7103815 61.7706515,87.0382612 C58.1305557,84.5740839 54.4016769,82.197913 50.9391467,79.4697168 C48.5420104,77.6215838 47.0327023,75.0694002 45.7009599,72.341204 C44.0140862,68.8209507 44.1028691,65.3006975 44.2804347,61.6924379 C44.4580004,58.260191 45.7897428,55.1799694 48.0093134,52.5397795 C49.3410558,50.9556656 50.6727982,49.2835453 52.2708891,47.875444 C54.4016769,46.027311 56.9763789,44.8832287 59.8174294,44.3551907 C61.6818687,44.0031654 63.6350909,43.2111084 65.4107474,43.5631338 C68.5181464,44.1791781 71.8031109,44.3551907 74.5553786,46.3793364 C75.9759038,47.4354123 77.8403431,48.139463 79.3496512,49.1075326 C81.1253077,50.2516149 82.8121814,51.4837035 84.587838,52.7157922 C86.097146,53.6838618 87.6064541,54.5639251 89.1157621,55.6200011 C91.3353328,57.1161087 93.4661206,58.788229 95.7744741,60.1963303 C97.8164791,61.5164253 100.03605,62.6605076 102.166838,63.9806025 C103.409797,64.7726595 104.563974,65.7407291 105.806933,66.5327861 C107.760156,67.7648747 109.713378,68.8209507 111.577817,70.0530393 C112.643211,70.75709 113.619822,71.549147 114.685216,72.2531976 C115.040347,72.5172166 115.75061,72.7812356 116.016959,72.6052229 C119.479489,70.9331027 123.030802,69.8770267 126.759681,69.436995 C128.00264,69.2609824 129.334383,69.2609824 130.310994,68.7329444 C131.376388,68.2049064 132.08665,67.0608241 132.974478,66.2687671 C133.773524,65.4767101 134.572569,64.6846532 135.54918,64.0686089 C137.857534,62.5725012 140.165887,61.0763936 142.474241,59.6682923 C144.072332,58.7002227 145.759205,57.8201594 147.357296,56.7640834 C148.955387,55.7960138 150.464695,54.6519315 152.062786,53.6838618 C153.660877,52.6277858 155.347751,51.7477225 156.857059,50.6916466 C159.165412,49.1955389 161.473766,47.611425 163.782119,46.1153174 C165.202644,45.2352541 166.711952,44.4431971 168.132478,43.4751274 C169.996917,42.3310451 171.861356,41.0109502 173.725796,39.8668679 C175.412669,38.8107919 177.099543,37.9307286 178.697634,36.8746526 C181.538685,35.114526 184.290952,33.2663931 187.132003,31.5062664 C187.931048,30.9782285 189.440356,31.0662348 189.26279,29.8341462 C188.996442,28.1620259 188.552528,26.4018993 187.753482,24.993798 C186.332957,22.617627 183.935821,21.2975321 181.538685,20.1534498 C180.118159,19.4493991 178.25372,19.6254118 176.655629,19.3613928 C176.122932,19.2733865 175.590235,19.3613928 174.968755,19.3613928 C174.879973,18.9213611 174.79119,18.5693358 174.79119,18.2173105 C174.702407,15.3131016 175.057538,15.0490826 177.809806,16.0171522 C178.25372,16.1931649 178.786417,16.1051585 179.230331,16.1931649 C181.272336,16.6331965 183.403124,16.9852219 185.356346,17.6892725 C186.510523,18.1293042 187.398351,19.0973738 188.374962,19.8894308 C188.463745,19.8014244 188.641311,19.7134181 188.730093,19.6254118 C188.552528,19.1853801 188.374962,18.7453485 188.108614,18.3933231 C186.688088,16.3691775 185.711477,14.1690193 183.403124,12.6729116 C181.272336,11.3528167 179.141548,10.5607597 176.833195,10.2087344 C176.478063,10.120728 175.856584,9.59269006 175.856584,9.15265841 C175.501452,6.33645582 176.211715,5.80841784 178.8752,6.77648747 C180.562073,7.39253179 182.248947,8.00857611 183.935821,8.62462042 C185.889043,9.32867107 187.132003,10.912785 188.552528,12.3208863 C188.996442,12.8489243 189.440356,13.3769623 189.88427,13.9050003 C190.061836,13.8169939 190.239402,13.7289876 190.416967,13.6409813 C189.351573,9.4166774 188.374962,5.19237352 187.220785,0.792056978 C188.286179,0.528037985 189.440356,0.264018993 190.860881,0 C192.015058,4.75234187 193.080452,9.24066474 194.145846,13.7289876 C194.234629,13.7289876 194.412194,13.7289876 194.500977,13.7289876 C194.58976,13.1129433 194.678543,12.5849053 194.856108,11.968861 C195.743937,9.68069639 196.631765,7.39253179 197.697159,5.28037985 C198.496204,3.78427223 199.650381,2.46417726 200.715775,1.1440823 C200.982124,0.792056978 201.869952,0.440031654 201.958735,0.528037985 C202.668997,1.32009496 204.178305,1.58411396 203.645608,3.16822791 C203.556825,3.34424057 203.37926,3.4322469 203.290477,3.52025323 C202.225083,5.28037985 200.982124,6.95250014 200.005512,8.80063308 C199.29525,10.120728 199.028901,11.704842 198.496204,13.1129433 C198.229856,13.8169939 197.785942,14.5210446 197.43081,15.2250952 C197.608376,15.3131016 197.697159,15.4011079 197.874725,15.5771206 C198.229856,15.3131016 198.762553,15.0490826 198.940119,14.6970573 C200.271861,12.3208863 202.402649,10.648766 204.533437,9.15265841 C205.687613,8.36060143 206.84179,7.56854445 207.995967,6.86449381 C209.416492,5.9844305 209.949189,6.24844949 210.481886,7.92056978 C210.570669,8.36060143 210.837017,8.71262675 211.192149,9.32867107 C205.865179,11.968861 201.692386,16.1931649 198.67377,21.5615511 C203.024129,18.2173105 207.552053,15.0490826 213.500502,14.7850636 C213.500502,16.1051585 213.500502,17.3372472 213.500502,18.4813295 C207.640836,19.3613928 206.664224,20.5054751 204.622219,22.617627 C205.776396,22.4416144 206.930573,22.2656017 207.995967,22.1775954 C209.150144,22.089589 210.215537,22.089589 211.369714,22.1775954 C212.346325,22.2656017 213.322936,22.353608 214.210765,22.617627 C214.565896,22.7056334 215.098593,23.409684 215.00981,23.673703 C214.832244,24.5537663 214.38833,25.257817 213.855633,26.4018993 C213.145371,26.2258866 212.257542,26.0498739 211.369714,25.8738613 C210.481886,25.6978486 209.594058,25.4338296 208.706229,25.6098423 C206.486659,25.9618676 204.178305,26.4018993 202.047517,27.0179436 C199.827947,27.7219942 197.963507,29.0420892 196.099068,30.4501905 C193.790715,32.1223108 194.500977,33.8824374 195.033674,35.9945893 C196.010285,39.6028489 196.631765,43.2111084 197.519593,46.819368 C198.229856,49.9875959 199.028901,53.2438302 199.827947,56.4120581 C200.094295,57.468134 200.626992,58.52421 201.159689,59.6682923 C203.290477,58.260191 205.510048,56.7640834 207.729618,55.3559821 C210.30432,53.7718681 212.967805,52.2757605 215.63129,50.6036402 C218.205992,49.0195263 220.691911,47.2593997 223.355396,45.6752857 C224.065658,45.2352541 225.04227,45.0592414 225.930098,44.8832287 C228.238451,44.4431971 230.72437,43.4751274 232.943941,43.9151591 C235.962557,44.4431971 238.981173,44.9712351 241.733441,46.7313617 C245.195971,48.8435136 247.770673,51.6597162 249.723895,55.0919631 C250.167809,55.8840201 250.434158,56.6760771 250.789289,57.5561404 C252.38738,61.1643999 252.653729,65.1246848 251.677117,68.7329444 C250.789289,72.1651913 249.457547,75.5974382 246.616496,78.3256344 C244.21936,80.7018054 241.467092,82.5499383 238.626042,84.2220586 C237.2943,85.0141156 236.140123,86.0701916 234.80838,86.9502549 C233.476638,87.8303182 232.056113,88.7103815 230.635588,89.5904448 C228.682365,90.8225334 226.729143,92.1426284 224.775921,93.374717 C223.089047,94.430793 221.402174,95.3108563 219.7153,96.3669323 C217.584512,97.7750336 215.542507,99.2711412 213.500502,100.679242 C212.612674,101.295287 211.636063,101.823325 210.659452,102.263356 C209.682841,102.703388 209.505275,103.319432 209.505275,104.287502 C209.505275,106.663673 209.416492,109.039844 209.327709,111.416015 C209.238926,113.616173 209.238926,115.816331 209.061361,118.01649 C208.972578,119.424591 208.439881,120.744686 208.173532,122.152787 C207.995967,123.032851 208.262315,123.560889 208.883795,124.264939 C210.215537,125.849053 211.280931,127.697186 212.346325,129.457313 C213.500502,131.393452 214.121982,133.505604 214.299547,135.793768 C214.38833,136.409813 214.921027,137.113863 215.453724,137.553895 C216.341553,138.345952 217.406946,139.050003 218.47234,139.666047 C220.869477,141.162155 223.355396,142.570256 225.752532,144.15437 C229.215062,146.266522 232.677593,148.46668 236.140123,150.666838 C238.448476,152.07494 240.845613,153.395035 242.887618,155.155161 C244.929623,156.915288 247.326759,158.587408 248.480936,161.227598 C249.457547,163.427756 250.611724,165.627915 251.588335,167.828073 C252.298597,169.500193 253.896688,169.060162 255.050865,169.5882 C256.648956,170.380257 258.513395,170.732282 260.200269,171.348326 C260.377834,171.436332 260.5554,171.524339 260.644183,171.524339 C263.130102,169.412187 266.237501,169.764212 269.167334,169.764212 C274.938218,169.764212 280.709102,169.676206 286.479985,169.852219 C288.255642,169.940225 290.120081,170.29225 291.629389,171.172313 C293.316263,172.140383 294.825571,173.636491 295.180702,175.924655 C295.358268,177.068738 295.890965,178.124814 295.979748,179.268896 C296.157314,182.613136 295.180702,185.605352 292.517218,187.717504 C291.363041,188.685573 289.76495,189.301618 288.255642,189.741649 C287.190248,190.005668 286.746334,190.269687 286.746334,191.41377 C286.835117,198.894308 286.746334,206.286839 286.835117,213.767378 C286.835117,216.407568 286.213637,218.695732 283.994066,220.279846 C282.751107,221.247916 281.241799,222.127979 279.732491,222.391998 C277.424137,222.744023 274.938218,223.008042 272.80743,222.303992 C269.3449,221.159909 266.237501,219.22377 266.148718,214.823454 C266.681415,214.559435 266.503849,214.471428 266.326284,214.471428 Z M203.556825,113.264148 C202.491432,113.176141 201.958735,113.176141 201.426038,113.088135 C199.561598,112.824116 197.785942,112.648103 196.010285,112.296078 C194.500977,112.032059 193.524366,112.384084 193.3468,113.704179 C193.080452,115.464306 192.991669,117.312439 192.725321,119.072566 C192.370189,120.832692 191.926275,122.592819 191.393578,124.264939 C191.12723,125.056996 190.860881,125.849053 190.416967,126.465097 C188.730093,128.665256 187.309568,131.041427 184.557301,132.273515 C182.33773,133.241585 180.206942,134.649686 177.898589,135.177724 C174.16971,135.881775 170.352048,135.177724 166.711952,134.121648 C165.824124,133.857629 164.936296,133.769623 164.137251,133.329591 C162.627942,132.449528 161.029852,131.657471 159.786892,130.425382 C158.188801,128.841268 156.768276,127.081142 155.702882,125.145002 C154.903837,123.648895 154.726271,121.800762 154.104791,120.304654 C153.12818,118.104496 153.216963,115.728325 153.927225,113.616173 C154.637488,111.416015 154.37114,109.391869 154.548705,107.45573 C153.216963,107.015698 152.240352,106.48766 151.086175,106.223641 C147.80121,105.607597 144.516246,105.343578 141.408847,104.023483 C139.544408,103.231426 137.41362,102.879401 135.371615,102.351363 C132.619347,101.559306 129.867079,100.767249 127.203595,99.9751918 C126.493332,99.7991792 125.783069,99.6231665 125.072807,99.2711412 C122.764453,98.3030716 120.544883,97.2469956 118.236529,96.1909196 C115.928176,95.1348436 113.531039,94.2547803 111.311469,93.110698 C109.180681,92.0546221 109.180681,91.9666157 108.026504,93.902755 C106.783545,96.0149069 105.363019,98.1270589 104.563974,100.415223 C103.054666,104.81554 102.8771,109.391869 103.143449,113.968198 C103.232232,115.640319 103.321014,117.312439 103.409797,118.896553 C103.49858,120.65668 103.764928,122.3288 103.853711,124.088926 C103.853711,124.616964 103.587363,125.233009 103.143449,125.585034 C101.634141,126.993135 99.9472669,128.31323 98.4379589,129.809338 C97.5501306,130.689401 96.4847367,131.745477 96.1296054,132.88956 C95.5969084,134.649686 95.4193428,136.673832 95.5081256,138.521965 C95.6856913,142.658262 97.7276963,145.738484 101.545358,147.586617 C104.208843,148.906712 107.138676,148.290667 109.979726,148.026648 C110.778772,147.938642 111.577817,147.410604 112.376863,147.234591 C113.708605,146.970573 115.306696,146.442535 116.460873,146.882566 C117.881398,147.410604 119.21314,148.642693 119.124357,150.754845 C119.035575,154.099085 119.390706,157.443326 119.124357,160.69956 C118.946792,163.33975 120.100969,165.275889 121.521494,167.124022 C122.142974,167.916079 123.385933,168.356111 124.628893,169.060162 C124.628893,166.595984 124.628893,164.747851 124.628893,162.899718 C124.628893,160.69956 125.605504,159.73149 127.736292,159.73149 C129.511948,159.73149 130.843691,161.139592 130.843691,162.987725 C130.843691,165.363896 130.754908,167.828073 130.843691,170.204244 C130.843691,170.732282 131.110039,171.700351 131.553953,171.788358 C132.70813,172.228389 133.95109,172.316396 135.371615,172.580415 C135.371615,170.116238 135.371615,167.740067 135.371615,165.451902 C135.371615,163.251744 136.969706,162.107661 138.656579,162.107661 C140.165887,162.107661 141.586413,163.691775 141.586413,165.451902 C141.586413,167.564054 141.49763,169.676206 141.675195,171.700351 C141.763978,172.404402 142.296675,173.372472 142.829372,173.548484 C144.072332,173.812503 145.404074,173.636491 146.824599,173.636491 C146.824599,171.436332 146.824599,169.412187 146.824599,167.388041 C146.824599,165.715921 148.245125,163.867788 149.576867,163.691775 C152.062786,163.33975 153.394529,164.571839 153.394529,167.124022 C153.394529,169.324181 153.394529,171.436332 153.394529,173.548484 C155.170185,173.548484 156.679493,173.548484 158.366367,173.548484 C158.366367,170.820288 158.366367,168.180098 158.366367,165.539908 C158.366367,163.867788 159.520544,162.459687 161.029852,162.195668 C162.627942,161.931649 163.515771,162.811712 164.137251,164.131807 C165.468993,166.595984 165.025079,169.148168 164.403599,171.700351 C166.889518,172.93244 169.020306,171.612345 169.020306,168.972155 C169.020306,167.124022 168.931523,165.187883 169.020306,163.33975 C169.109089,162.019655 169.375437,160.523547 170.884745,159.995509 C173.370664,159.115446 175.235104,160.523547 175.590235,163.163737 C175.767801,164.571839 175.590235,166.067946 175.590235,167.740067 C177.898589,166.067946 178.608851,165.01187 178.608851,163.33975 C178.697634,158.939434 178.431286,154.451111 179.407897,150.050794 C179.851811,148.026648 181.09477,146.442535 183.047993,146.706554 C185.445129,147.058579 187.753482,147.938642 190.150619,148.554686 C191.659927,148.994718 193.258018,149.43475 194.767326,149.610762 C195.566371,149.698769 196.454199,149.082724 197.342028,148.906712 C201.070906,148.46668 203.290477,146.090509 204.799785,143.098294 C205.776396,141.162155 206.309093,138.961996 206.930573,136.937851 C207.818401,134.033642 206.309093,129.633325 203.645608,127.961205 C201.51482,126.729116 201.248472,125.056996 201.603603,122.944844 C201.869952,121.448737 202.047517,119.952629 202.225083,118.368515 C202.313866,118.01649 202.313866,117.664464 202.402649,117.224433 C202.935346,115.992344 203.201694,114.760255 203.556825,113.264148 Z M50.3176669,195.022029 C53.0699345,192.381839 52.8035861,189.037599 52.7148032,185.693358 C52.7148032,184.813295 52.7148032,183.845225 52.6260204,182.965162 C52.1821063,180.324972 50.9391467,178.036807 48.5420104,176.804719 C47.4766165,176.276681 46.1448741,175.924655 44.9019145,175.836649 C41.6169499,175.660636 38.3319853,175.748643 35.0470208,175.748643 C32.2059703,175.748643 31.4069249,176.5407 31.4069249,179.356902 C31.4069249,190.093675 31.4069249,200.742441 31.4069249,211.479213 C31.4069249,212.095257 31.4069249,212.623295 31.4069249,213.23934 C31.5844905,214.91146 32.9162329,216.231555 34.3367582,216.319561 C36.5563288,216.407568 37.976854,214.999466 37.976854,212.711302 C37.976854,208.751017 37.976854,204.790732 37.976854,200.830447 C37.976854,200.302409 37.976854,199.774371 37.976854,199.334339 C38.4207682,199.246333 38.509551,199.246333 38.6871167,199.246333 C39.8412934,199.246333 41.084253,199.246333 42.2384297,199.246333 C44.0140862,199.334339 44.635566,199.862377 44.8131317,201.71051 C44.9019145,202.238548 44.8131317,202.766586 44.8131317,203.294624 C44.8131317,206.110827 44.8131317,208.839023 44.9019145,211.655226 C44.9906973,214.999466 46.4112226,216.407568 49.78497,216.407568 C51.9157578,216.407568 52.7148032,215.615511 52.7148032,213.415352 C52.6260204,209.543074 52.6260204,205.670795 52.5372376,201.886523 C52.6260204,199.334339 52.3596719,197.046175 50.3176669,195.022029 Z M202.402649,98.3910779 C199.91673,98.8311095 197.874725,99.1831349 195.743937,99.5351602 C192.902886,99.9751918 190.150619,100.679242 187.309568,100.767249 C180.473291,101.119274 173.725796,101.031268 166.978301,99.7991792 C165.735341,99.6231665 164.403599,99.6231665 163.338205,99.0951285 C161.651331,98.3030716 160.142023,97.1589892 158.632715,96.1029133 C156.146796,94.430793 153.572094,92.6706664 151.174958,90.9105398 C150.198347,90.2064891 149.310518,89.2384195 148.42269,88.4463625 C147.357296,87.4782929 146.380685,86.5102232 145.404074,85.4541472 C144.33868,84.3100649 143.184503,83.0779763 142.296675,81.8458877 C140.87615,79.8217421 139.455625,78.1496218 136.614574,78.8536724 C135.815529,79.0296851 134.927701,79.2937041 134.128655,79.3817104 C130.310994,79.8217421 126.670898,80.7898117 123.208367,82.5499383 C120.633666,83.8700333 117.970181,85.0141156 115.306696,86.3342106 C115.040347,86.4222169 115.040347,87.6543055 115.217913,87.7423118 C117.259918,88.8863942 119.390706,90.0304765 121.610277,90.9985461 C124.895241,92.4066474 128.180206,93.638736 131.553953,94.8708246 C134.039872,95.750888 136.525791,96.4549386 139.011711,97.1589892 C143.006938,98.2150652 147.002165,99.0951285 150.997392,100.063198 C152.062786,100.327217 153.12818,100.767249 154.282357,100.943261 C155.347751,101.031268 156.679493,101.295287 157.389756,100.767249 C158.543932,99.9751918 159.431761,100.239211 160.497155,100.591236 C160.941069,100.767249 161.384983,101.031268 161.828897,101.031268 C163.515771,101.295287 165.202644,101.471299 166.978301,101.647312 C170.973528,101.999337 174.879973,102.17535 178.786417,103.231426 C181.183553,103.84747 183.758255,103.759464 186.244174,104.023483 C188.374962,104.287502 190.416967,104.639527 192.458972,105.079559 C192.636538,105.079559 192.814103,105.343578 192.991669,105.431584 C193.879497,105.78361 194.767326,106.135635 195.743937,106.311648 C197.164462,106.48766 198.67377,106.48766 200.094295,106.663673 C201.159689,106.839686 202.225083,107.103705 203.290477,107.367724 C203.468043,107.191711 203.645608,107.015698 203.823174,106.927692 C203.290477,103.935477 202.846563,101.20728 202.402649,98.3910779 Z M204.977351,194.934023 C204.533437,192.293833 205.59883,188.77358 204.178305,185.253326 C203.468043,183.405193 203.024129,181.469054 201.958735,179.620921 C200.271861,176.628706 197.253245,175.836649 194.412194,174.956586 C191.74871,174.164529 189.174008,175.308611 186.776871,176.452693 C186.155391,176.716712 185.445129,176.980731 185.001215,177.508769 C182.95921,179.708928 181.71625,182.437124 181.005988,185.253326 C180.473291,187.453485 180.384508,189.917662 180.384508,192.205827 C180.384508,195.990099 180.739639,199.774371 180.828422,203.558643 C180.917205,207.254909 181.71625,210.687156 184.557301,213.327346 C185.80026,214.471428 187.220785,215.615511 188.730093,216.143549 C192.103841,217.375637 195.477588,216.935606 198.762553,215.263485 C200.982124,214.119403 202.491432,212.183264 203.201694,210.071112 C204.178305,207.166903 205.243699,204.174688 205.066134,200.918453 C204.888568,199.246333 204.977351,197.486206 204.977351,194.934023 Z M126.848463,176.980731 C126.848463,177.860795 126.848463,178.476839 126.848463,179.18089 C126.848463,182.701143 126.848463,186.13339 126.848463,189.653643 C126.848463,191.061744 126.049418,191.589782 124.984024,191.677789 C122.942019,191.765795 120.900014,191.765795 118.858009,191.677789 C118.325312,191.677789 117.526267,190.797725 117.526267,190.269687 C117.526267,186.397409 117.792615,182.613136 117.615049,178.740858 C117.615049,177.772788 116.727221,176.364687 115.928176,176.012662 C113.797388,175.132598 110.778772,175.836649 110.778772,179.18089 C110.778772,190.181681 110.867555,201.270479 110.778772,212.27127 C110.778772,213.94339 111.577817,215.175479 112.643211,215.87953 C113.353474,216.407568 115.306696,216.319561 116.105741,215.703517 C117.259918,214.823454 117.881398,213.327346 117.792615,211.567219 C117.615049,208.046966 117.703832,204.526713 117.703832,201.00646 C117.703832,200.478422 117.792615,199.862377 117.792615,199.334339 C120.900014,199.334339 123.741064,199.334339 126.848463,199.334339 C126.848463,200.03839 126.848463,200.654434 126.848463,201.182472 C126.848463,205.142757 126.848463,209.103042 126.848463,213.063327 C126.848463,213.591365 126.848463,214.295416 127.203595,214.735447 C128.00264,215.967536 130.932473,216.847599 132.530564,216.055542 C133.773524,215.439498 134.395004,214.207409 134.395004,212.623295 C134.306221,202.150542 134.306221,191.765795 134.395004,181.293042 C134.395004,179.620921 134.483786,178.124814 132.08665,178.476839 C131.909084,178.476839 131.731519,178.300826 131.46517,178.21282 C129.955862,177.860795 128.535337,177.508769 126.848463,176.980731 Z M239.51387,205.406776 C239.869002,207.606934 240.312916,209.543074 241.37831,211.479213 C243.242749,214.91146 246.261365,216.231555 249.812678,216.759593 C252.38738,217.111618 254.695734,216.143549 257.004087,214.999466 C259.046092,213.94339 260.022703,212.27127 260.821749,210.335131 C261.265663,209.279055 261.265663,208.046966 261.620794,206.99089 C262.419839,204.614719 261.709577,202.326555 261.088097,200.126396 C260.466617,198.190257 259.223658,196.518137 257.359218,195.374054 C254.606951,193.789941 252.032249,191.941808 249.457547,190.093675 C248.480936,189.389624 247.326759,188.597567 246.971628,187.629497 C245.906234,184.725288 246.172582,184.461269 248.92485,183.141174 C251.7659,181.82108 253.985471,183.053168 254.163037,186.13339 C254.251819,188.333548 254.873299,189.301618 256.560173,189.917662 C259.223658,190.885732 262.242274,189.125605 261.887143,186.661428 C261.532011,184.285257 261.532011,181.909086 260.111486,179.532915 C258.335829,176.5407 255.583562,175.748643 252.742511,174.868579 C250.522941,174.164529 248.392153,175.396617 246.350148,176.012662 C245.639885,176.276681 244.752057,176.5407 244.308143,177.068738 C242.532486,178.916871 241.200744,180.85301 240.579264,183.4932 C239.51387,187.80551 240.75683,191.41377 243.420315,194.317978 C245.728668,196.782156 249.013633,198.278263 251.854683,200.302409 C253.186426,201.270479 255.139648,201.71051 255.405996,203.734656 C255.583562,204.790732 255.494779,205.846808 255.405996,206.902884 C255.405996,207.95896 254.784516,208.486998 253.807905,208.486998 C252.032249,208.575004 250.256592,208.575004 248.480936,208.575004 C247.149193,208.575004 246.438931,207.782947 246.350148,206.462852 C246.261365,205.406776 246.616496,204.3507 246.261365,203.470637 C245.906234,202.502567 245.107188,201.358485 244.21936,201.00646 C243.242749,200.654434 241.644658,200.302409 240.934395,201.622504 C240.046567,202.766586 239.869002,204.174688 239.51387,205.406776 Z M226.64036,206.902884 C227.439406,209.543074 228.060886,211.831238 228.948714,214.031397 C229.215062,214.823454 229.925325,215.87953 230.546805,216.055542 C231.96733,216.407568 233.476638,216.319561 234.897163,216.055542 C235.518643,215.967536 235.873774,214.823454 236.406471,214.295416 C237.116734,213.679371 237.205517,213.151333 236.495254,212.447283 C236.317688,212.27127 236.228906,212.007251 236.140123,211.743232 C235.163512,207.694941 234.009335,203.822662 232.411244,200.03839 C231.34585,197.574213 230.813153,194.934023 230.014108,192.381839 C229.303845,190.005668 228.5048,187.629497 227.794537,185.341333 C226.995492,182.789149 226.107663,180.324972 225.574966,177.772788 C225.131052,175.924655 223.976876,175.748643 222.55635,175.748643 C220.33678,175.748643 219.271386,176.276681 218.827472,177.684782 C218.294775,179.532915 217.673295,181.381048 217.140598,183.141174 C215.897638,187.101459 214.565896,191.149751 213.234154,195.110035 C212.435108,197.574213 211.724846,200.03839 210.9258,202.590574 C209.949189,205.758802 209.061361,208.927029 208.08475,212.007251 C207.552053,213.767378 208.262315,215.791523 209.682841,216.143549 C211.636063,216.671587 213.766851,215.263485 214.210765,213.415352 C214.654679,211.479213 215.364941,209.543074 215.986421,207.606934 C216.075204,207.254909 216.607901,206.902884 216.874249,206.902884 C220.159214,206.902884 223.444179,206.902884 226.64036,206.902884 Z M104.919105,204.966745 C104.830322,204.966745 104.74154,204.966745 104.652757,204.878738 C104.652757,204.614719 104.652757,204.3507 104.652757,204.086681 C104.563974,201.622504 104.563974,199.158327 102.433186,197.3982 C100.923878,196.166111 99.5033528,194.934023 97.9940448,193.789941 C96.1296054,192.469846 94.265166,191.237757 92.4007267,189.917662 C91.4241156,189.213611 90.2699389,188.597567 89.8260247,187.717504 C89.3821106,186.749434 89.3821106,185.253326 89.7372419,184.285257 C90.181156,183.141174 93.4661206,182.349118 94.4427317,182.789149 C96.4847367,183.4932 97.1949993,184.461269 97.1062165,186.749434 C97.1062165,188.509561 97.9052619,189.565637 99.5033528,190.093675 C102.521969,191.149751 104.74154,189.565637 104.652757,186.397409 C104.563974,184.901301 104.208843,183.405193 104.031277,181.909086 C103.853711,179.796934 102.433186,178.388833 101.012661,177.24475 C99.5921356,176.100668 97.6389135,175.484624 95.7744741,174.956586 C93.4661206,174.340541 91.3353328,175.396617 89.2045449,176.188674 C88.4942823,176.452693 87.7840197,176.716712 87.2513228,177.156744 C85.3868834,178.828864 84.055141,180.941016 83.4336612,183.317187 C82.3682673,187.189466 83.1673127,191.149751 85.9195804,193.965953 C88.4054995,196.518137 91.6904641,198.454276 94.797863,200.214403 C97.6389135,201.886523 99.1482215,203.822662 98.7930902,206.902884 C98.7043074,207.342915 98.3491761,207.870953 97.9940448,208.046966 C95.5969084,209.279055 93.1109893,208.839023 90.6250702,208.486998 C89.9148076,208.398991 89.2933278,207.606934 89.3821106,206.638865 C89.4708934,205.758802 89.3821106,204.790732 89.3821106,203.910669 C89.2933278,202.326555 88.2279338,201.446491 86.9849743,201.094466 C85.2981006,200.566428 83.6112269,201.358485 83.1673127,202.854593 C82.2794845,205.582789 83.0785299,208.134972 84.1439238,210.775162 C85.4756662,214.119403 87.9615854,215.615511 91.2465499,216.671587 C94.9754287,217.815669 98.1716104,216.671587 101.101444,214.735447 C102.25562,213.94339 103.321014,212.535289 103.853711,211.215194 C104.386408,209.015036 104.563974,206.99089 104.919105,204.966745 Z M64.9668333,199.422346 C65.3219646,199.334339 65.4107474,199.246333 65.4995303,199.246333 C67.6303181,199.246333 69.8498888,199.158327 71.9806766,199.246333 C76.8637321,199.422346 77.1300805,198.630289 76.9525149,194.229972 C76.8637321,192.293833 76.5086007,191.765795 74.5553786,191.677789 C72.0694594,191.589782 69.5835403,191.589782 67.0976211,191.677789 C65.5883131,191.677789 64.8780505,191.149751 64.9668333,189.653643 C65.0556161,188.157535 65.0556161,186.661428 64.9668333,185.16532 C64.8780505,184.021238 65.2331818,183.581206 66.4761414,183.581206 C69.1396261,183.669212 71.8031109,183.581206 74.3778129,183.669212 C75.4432068,183.669212 76.1534694,183.405193 76.9525149,182.52513 C78.1954745,181.205035 77.6627775,179.796934 77.7515603,178.388833 C77.8403431,177.24475 76.4198179,175.748643 75.1768583,175.748643 C70.3825857,175.748643 65.6770959,175.748643 60.8828233,175.748643 C59.1959496,175.748643 58.5744698,176.452693 58.5744698,178.124814 C58.5744698,189.829656 58.5744698,201.534498 58.5744698,213.327346 C58.5744698,214.999466 59.8174294,216.231555 61.5043031,216.231555 C65.9434444,216.231555 70.4713685,216.231555 74.9105099,216.231555 C76.5086007,216.231555 77.8403431,214.91146 77.8403431,213.415352 C77.8403431,212.711302 77.8403431,212.007251 77.8403431,211.3032 C77.8403431,209.279055 76.6861664,208.046966 74.5553786,208.046966 C71.7143281,208.046966 68.9620605,208.134972 66.12101,208.134972 C65.6770959,208.134972 64.7892676,207.606934 64.7892676,207.342915 C64.9668333,204.702726 64.9668333,202.062536 64.9668333,199.422346 Z M153.394529,195.902092 C153.74966,199.950384 152.950614,204.086681 154.282357,208.222979 C155.525316,212.007251 157.567321,214.735447 161.118634,216.143549 C164.226033,217.375637 167.422215,217.287631 170.440831,215.175479 C172.216488,213.94339 173.725796,212.623295 174.347276,210.511143 C174.613624,209.543074 175.412669,208.66301 175.501452,207.694941 C175.679018,205.846808 175.945366,203.910669 175.501452,202.150542 C175.146321,200.830447 172.749185,200.302409 170.973528,200.918453 C169.553003,201.358485 169.641786,202.67858 169.46422,203.910669 C169.286654,205.230764 169.197872,206.638865 168.665175,207.782947 C167.954912,209.103042 162.184028,209.103042 161.118634,207.95896 C161.029852,207.870953 160.852286,207.870953 160.852286,207.782947 C160.408372,206.550858 159.698109,205.31877 159.609326,204.086681 C159.520544,198.542282 159.431761,192.997884 159.609326,187.365478 C159.609326,186.221396 160.497155,184.989307 161.207417,184.021238 C161.562549,183.4932 162.627942,183.4932 163.249422,183.141174 C163.959685,182.789149 168.132478,183.405193 168.576392,183.933231 C168.753957,184.19725 168.84274,184.549276 168.84274,184.813295 C169.020306,186.045383 169.109089,187.277472 169.375437,188.421554 C169.553003,189.037599 169.996917,190.005668 170.529614,190.093675 C173.281882,190.797725 175.767801,190.181681 175.501452,186.485415 C175.412669,185.429339 174.79119,184.461269 174.702407,183.405193 C174.436058,181.205035 173.637013,179.444909 172.038922,177.860795 C171.062311,176.804719 170.440831,176.980731 169.553003,177.596776 C169.286654,177.772788 169.020306,177.948801 168.753957,178.036807 C164.75873,178.652852 160.763503,179.092883 156.768276,179.796934 C156.146796,179.88494 155.170185,180.412978 154.992619,180.85301 C154.282357,183.229181 153.483311,185.693358 153.12818,188.157535 C153.12818,190.621713 153.394529,193.261903 153.394529,195.902092 Z M14.5381878,199.246333 C17.2904555,199.246333 19.7763746,199.246333 22.2622937,199.246333 C24.4818644,199.246333 25.192127,198.718295 25.6360412,196.606143 C25.8136068,195.72608 25.724824,194.75801 25.6360412,193.877947 C25.4584755,192.557852 23.7716018,191.237757 22.4398594,191.325763 C20.3978544,191.41377 18.4446322,191.589782 16.4026272,191.765795 C15.1596676,191.853801 14.5381878,191.237757 14.5381878,190.005668 C14.5381878,188.421554 14.6269707,186.749434 14.5381878,185.16532 C14.449405,183.933231 15.0708848,183.581206 16.2250615,183.669212 C18.2670666,183.757219 20.3090716,183.669212 22.3510766,183.757219 C23.9491675,183.845225 25.4584755,183.845225 26.0799553,181.997092 C26.4350866,181.029023 26.6126522,180.060953 26.7014351,179.092883 C26.7902179,177.156744 25.4584755,175.924655 23.5052533,175.924655 C19.5100261,175.924655 15.5147989,175.924655 11.5195717,175.924655 C9.21121825,175.924655 8.32338999,176.804719 8.32338999,179.092883 C8.32338999,185.077314 8.32338999,191.061744 8.32338999,197.046175 C8.32338999,202.414561 8.32338999,207.870953 8.32338999,213.23934 C8.32338999,214.999466 9.56634956,216.319561 11.2532233,216.407568 C13.4727939,216.495574 14.6269707,215.351492 14.6269707,213.151333 C14.5381878,208.575004 14.5381878,204.086681 14.5381878,199.246333 Z M274.938218,183.933231 C274.67187,184.901301 274.405521,185.341333 274.405521,185.781364 C274.405521,194.846016 274.316738,203.822662 274.494304,212.887314 C274.494304,214.031397 275.737263,215.615511 276.713875,216.055542 C279.022228,216.935606 280.97545,215.263485 280.97545,212.799308 C280.97545,203.470637 280.97545,194.141966 280.886667,184.901301 C280.886667,184.021238 281.064233,183.4932 282.129627,183.581206 C283.638935,183.669212 285.148243,183.669212 286.657551,183.581206 C288.166859,183.581206 289.409819,182.349118 289.498602,180.85301 C289.498602,180.148959 289.498602,179.356902 289.498602,178.564845 C289.498602,176.628706 288.52199,175.660636 286.568768,175.660636 C280.709102,175.660636 274.760652,175.660636 268.900986,175.660636 C268.190723,175.660636 267.391678,176.100668 266.770198,176.452693 C265.349673,177.332757 265.88237,178.828864 265.793587,180.060953 C265.793587,182.349118 266.858981,183.405193 269.167334,183.4932 C271.120556,183.669212 272.984996,183.845225 274.938218,183.933231 Z M58.8408183,52.9798112 C57.5090759,54.0358871 56.2661163,55.0039568 55.0231567,56.1480391 C54.9343739,56.2360454 55.378288,57.1161087 55.7334193,57.3801277 C56.8875961,58.260191 58.1305557,58.9642417 59.3735152,59.7562986 C61.1491718,60.9003809 62.8360455,62.1324696 64.611702,63.2765519 C67.0976211,64.8606658 69.5835403,66.3567735 71.9806766,67.9408874 C73.9338988,69.172976 75.887121,70.493071 77.8403431,71.7251596 C79.2608684,72.6052229 80.7701764,73.4852863 82.1907016,74.4533559 C84.3214895,75.8614572 86.4522773,77.3575648 88.5830652,78.8536724 C90.3587217,80.0857611 92.223161,81.141837 93.8212519,82.3739257 C95.7744741,83.8700333 97.1062165,84.2220586 98.4379589,82.9019637 C99.1482215,82.197913 99.5921356,81.0538307 99.8584841,79.9977547 C99.9472669,79.6457294 99.1482215,78.9416788 98.6155245,78.5896534 C96.7510852,77.3575648 94.8866458,76.2134825 93.0222065,74.9813939 C90.4475045,73.3092736 87.9615854,71.6371533 85.3868834,69.965033 C83.6112269,68.8209507 81.7467875,67.6768684 79.971131,66.5327861 C78.2842573,65.4767101 76.5973836,64.3326278 74.9105099,63.2765519 C73.2236362,62.2204759 71.4479796,61.2524063 69.8498888,60.1963303 C67.4527524,58.6122163 65.144399,56.8520897 62.7472626,55.2679758 C61.5930859,54.4759188 60.3501263,53.8598745 58.8408183,52.9798112 Z M95.5081256,85.6301599 C94.8866458,85.2781346 94.1763832,85.0141156 93.6436863,84.5740839 C91.2465499,82.9019637 88.8494136,81.141837 86.3634945,79.5577231 C83.7887925,77.8856028 81.0365249,76.3894952 78.3730401,74.6293686 C75.9759038,73.0452546 73.5787675,71.285128 71.1816312,69.701014 C69.0508433,68.2929127 66.9200555,66.9728178 64.7892676,65.5647165 C61.3267374,63.3645582 57.8642072,61.2524063 54.5792426,59.052248 C53.6914143,58.4362037 53.1587174,58.8762353 52.9811517,59.4922796 C52.5372376,60.6363619 52.2708891,61.8684506 52.2708891,63.0125329 C52.2708891,63.6285772 52.6260204,64.4206342 53.0699345,64.7726595 C55.2007224,66.2687671 57.5090759,67.6768684 59.7286465,69.0849697 C62.2145657,70.6690837 64.7892676,72.1651913 67.3639696,73.7493052 C70.3825857,75.6854445 73.4899846,77.7095901 76.5086007,79.7337357 C78.9945199,81.405856 81.3916562,83.0779763 83.7887925,84.7500966 C86.3634945,86.4222169 89.0269793,87.9183245 91.6016813,89.6784511 C92.4895095,90.2944954 92.8446408,90.0304765 93.288555,89.4144321 C93.9100347,88.1823435 94.6202974,86.9502549 95.5081256,85.6301599 Z M242.621269,58.7002227 C240.312916,60.1963303 238.093345,61.6924379 235.784992,63.1885455 C234.453249,64.0686089 233.121507,64.7726595 231.789764,65.5647165 C229.925325,66.7968051 228.060886,68.1169001 226.107663,69.3489887 C224.687138,70.3170583 223.17783,71.1091153 221.668522,71.9891786 C220.603128,72.6052229 219.537734,73.3092736 218.561123,74.1013306 C217.495729,74.8933875 216.607901,75.7734509 215.542507,76.3894952 C213.322936,77.7095901 211.014583,78.7656661 208.883795,80.1737674 C207.818401,80.877818 206.753007,81.7578814 207.285704,83.4300016 C207.640836,84.4860776 207.818401,85.7181662 208.173532,87.0382612 C208.528664,86.9502549 209.061361,86.9502549 209.505275,86.6862359 C210.126755,86.3342106 210.748234,85.8061726 211.369714,85.3661409 C212.967805,84.3100649 214.654679,83.3419953 216.25277,82.2859193 C217.495729,81.4938624 218.561123,80.6137991 219.804083,79.8217421 C221.846088,78.5016471 224.065658,77.3575648 226.107663,76.0374698 C228.5048,74.4533559 230.813153,72.7812356 233.21029,71.1091153 C235.341077,69.701014 237.471865,68.3809191 239.602653,66.9728178 C240.934395,66.1807608 242.266138,65.3887038 243.59788,64.5966468 C245.018405,63.9806025 244.396926,60.2843366 242.621269,58.7002227 Z M206.397876,79.5577231 C218.205992,71.9011723 229.836542,64.4206342 241.555875,56.8520897 C241.555875,56.5880707 241.644658,56.0600327 241.37831,55.7960138 C240.490481,55.0039568 239.691436,54.1238935 238.626042,53.5958555 C237.915779,53.2438302 236.939168,53.3318365 236.228906,53.5958555 C235.341077,53.9478808 234.630815,54.6519315 233.831769,55.1799694 C232.056113,56.4120581 230.369239,57.6441467 228.593583,58.7002227 C226.906709,59.7562986 225.04227,60.7243683 223.355396,61.7804443 C220.869477,63.4525645 218.47234,65.3006975 215.986421,66.8848114 C213.589285,68.4689254 211.014583,69.8770267 208.528664,71.4611406 C207.729618,71.9891786 206.84179,72.5172166 206.131527,73.1332609 C205.687613,73.4852863 205.154916,74.0133242 205.243699,74.4533559 C205.421265,76.2134825 205.953962,77.7975965 206.397876,79.5577231 Z M214.033199,171.26032 C213.766851,171.084307 213.500502,170.820288 213.145371,170.556269 C211.103366,169.236174 209.150144,167.828073 207.108139,166.507978 C205.865179,165.715921 204.533437,164.923864 203.290477,164.131807 C202.313866,163.515763 201.337255,162.899718 200.449427,162.283674 C200.271861,162.195668 200.360644,161.491617 200.538209,161.227598 C200.715775,160.875573 201.159689,160.69956 201.426038,160.523547 C203.37926,161.755636 205.243699,162.987725 207.108139,164.131807 C207.907184,164.659845 208.795012,165.187883 209.594058,165.715921 C211.54728,167.036016 213.411719,168.356111 215.364941,169.5882 C215.720073,169.852219 216.25277,170.028231 216.696684,170.028231 C219.09382,169.940225 221.490956,169.764212 223.888093,169.676206 C224.332007,169.676206 224.775921,169.500193 225.663749,169.324181 C223.976876,168.356111 222.733916,167.740067 221.490956,166.94801 C219.271386,165.539908 217.051815,163.955794 214.743462,162.547693 C213.145371,161.491617 211.369714,160.611554 209.860406,159.467471 C208.795012,158.675415 207.995967,157.619339 206.930573,156.827282 C206.575442,156.563263 205.776396,156.563263 205.332482,156.827282 C202.580214,158.587408 199.739164,160.083516 196.365417,160.435541 C194.856108,160.611554 193.3468,161.139592 191.926275,161.491617 C193.879497,162.635699 195.743937,163.691775 197.608376,164.835858 C200.005512,166.419972 202.402649,168.004086 204.711002,169.5882 C206.664224,170.908294 208.706229,172.052377 210.570669,173.548484 C211.54728,174.252535 211.902411,173.988516 212.435108,173.284465 C212.879022,172.668421 213.322936,172.052377 214.033199,171.26032 Z M71.3591968,169.060162 C71.3591968,169.148168 71.3591968,169.324181 71.3591968,169.412187 C71.8031109,169.500193 72.2470251,169.5882 72.6909392,169.676206 C74.7329442,169.852219 76.7749492,170.116238 78.9057371,170.204244 C79.438434,170.204244 79.971131,170.116238 80.4150451,169.852219 C82.1019188,168.796143 83.7000097,167.564054 85.4756662,166.507978 C88.0503682,164.923864 90.6250702,163.33975 93.1997721,161.755636 C93.9100347,161.315604 94.6202974,160.875573 95.33056,160.435541 C95.6856913,161.051585 96.839868,161.66763 95.6856913,162.459687 C93.1997721,164.219813 90.713853,165.803927 88.2279338,167.476048 C86.5410601,168.532124 84.8541864,169.5882 83.1673127,170.556269 C83.2560956,170.644276 83.2560956,170.820288 83.3448784,170.908294 C83.7887925,170.820288 84.3214895,170.644276 84.7654036,170.556269 C87.1625399,169.940225 89.5596762,169.412187 91.9568126,168.708136 C93.3773378,168.268105 94.797863,167.65206 96.0408226,166.94801 C97.4613478,166.155953 98.7930902,165.01187 100.124833,164.131807 C101.456575,163.251744 102.8771,162.547693 104.208843,161.66763 C104.475191,161.491617 104.386408,160.875573 104.475191,160.347535 C98.881873,160.523547 94.6202974,157.883358 90.8026358,155.155161 C90.0035904,156.123231 89.3821106,157.179307 88.4054995,157.971364 C87.4288884,158.851427 86.1859288,159.467471 85.0317521,160.171522 C83.1673127,161.403611 81.3028734,162.723706 79.3496512,163.955794 C76.7749492,165.803927 74.0226816,167.388041 71.3591968,169.060162 Z M241.111961,170.380257 C238.270911,168.532124 235.341077,166.595984 232.411244,164.747851 C230.635588,163.603769 228.771148,162.547693 226.995492,161.315604 C224.509573,159.73149 222.112436,158.05937 219.7153,156.38725 C217.762078,155.067155 215.808856,153.835066 213.855633,152.602978 C211.458497,151.018864 211.458497,151.018864 209.505275,153.307028 C209.238926,153.571047 208.883795,153.74706 208.528664,154.011079 C207.729618,154.71513 207.729618,155.243168 208.795012,155.859212 C210.481886,156.827282 212.16876,157.971364 213.855633,159.02744 C216.075204,160.523547 218.205992,162.019655 220.33678,163.427756 C221.934871,164.483832 223.532961,165.363896 225.131052,166.419972 C226.906709,167.564054 228.593583,168.884149 230.369239,170.028231 C232.056113,171.172313 233.920552,172.228389 235.518643,173.372472 C236.406471,173.988516 236.850385,173.812503 237.560648,173.196459 C238.714825,172.404402 239.869002,171.436332 241.111961,170.380257 Z M106.33963,76.6535142 C106.073282,76.3014888 105.806933,75.7734509 105.451802,75.5094319 C103.676146,74.4533559 101.900489,73.4852863 100.213615,72.4292103 C96.9286508,70.229052 93.6436863,67.8528811 90.3587217,65.6527228 C87.8728025,63.9806025 85.2093177,62.5725012 82.6346158,60.9003809 C80.9477421,59.844305 79.3496512,58.52421 77.6627775,57.468134 C74.821727,55.7080074 71.8918938,53.9478808 68.8732777,52.3637669 C66.653707,51.1316782 64.2565707,51.6597162 61.9482172,52.1877542 C64.2565707,53.7718681 66.5649242,55.1799694 68.8732777,56.6760771 C71.5367625,58.3481973 74.1114644,60.0203176 76.6861664,61.7804443 C78.2842573,62.8365202 79.971131,63.9806025 81.5692219,64.9486722 C83.2560956,66.0047481 85.0317521,66.9728178 86.8074086,68.1169001 C89.2045449,69.701014 91.5128984,71.4611406 93.9988176,73.0452546 C96.7510852,74.8933875 99.5921356,76.7415205 102.433186,78.5896534 C102.788317,78.7656661 103.409797,78.8536724 103.764928,78.6776598 C104.563974,78.1496218 105.274237,77.4455711 106.33963,76.6535142 Z M56.7988133,169.324181 C57.5090759,169.5882 57.6866415,169.676206 57.8642072,169.676206 C60.7052576,169.676206 63.5463081,169.676206 66.4761414,169.676206 C66.7424898,169.676206 67.0976211,169.5882 67.3639696,169.412187 C70.2050201,167.65206 72.9572877,165.803927 75.7095553,164.043801 C77.2188634,163.075731 78.7281714,162.195668 80.1486966,161.227598 C81.3916562,160.435541 82.5458329,159.555478 83.7887925,158.675415 C85.2093177,157.619339 86.8961914,156.915288 88.0503682,155.331174 C88.671848,154.451111 88.9381965,153.74706 88.4942823,152.955003 C87.6064541,151.458895 86.097146,151.018864 84.8541864,151.722914 C83.7887925,152.338959 82.7233986,153.043009 81.7467875,153.74706 C80.1486966,154.71513 78.4618229,155.595193 76.9525149,156.651269 C73.9338988,158.587408 71.0040655,160.523547 67.9854494,162.459687 C65.0556161,164.395826 62.1257829,166.331965 59.1071668,168.180098 C58.3969041,168.444117 57.7754244,168.708136 56.7988133,169.324181 Z M52.9811517,67.2368368 C52.8035861,67.3248431 52.7148032,67.4128494 52.5372376,67.5008558 C52.7148032,68.1169001 52.7148032,68.8209507 52.9811517,69.436995 C54.4016769,72.7812356 57.1539446,74.8053812 60.0837778,76.5655078 C62.037,77.7975965 63.9902222,78.9416788 65.8546616,80.1737674 C68.2517979,81.7578814 70.5601514,83.3419953 72.9572877,84.9261093 C74.6441614,86.0701916 76.5086007,87.0382612 78.1954745,88.1823435 C79.971131,89.3264258 81.5692219,90.5585144 83.3448784,91.7025967 C84.7654036,92.6706664 86.097146,93.8147487 87.6064541,94.5187993 C88.3167167,94.8708246 89.1157621,96.4549386 90.181156,95.1348436 C91.6904641,93.2867107 91.4241156,92.1426284 89.2933278,91.0865524 C89.1157621,90.9985461 88.9381965,90.9105398 88.7606308,90.7345271 C86.2747117,89.0624068 83.8775753,87.3022802 81.3028734,85.6301599 C79.6159997,84.4860776 77.7515603,83.6940206 76.0646866,82.5499383 C72.1582422,80.0857611 68.4293635,77.4455711 64.5229192,74.9813939 C63.1911768,74.1013306 61.8594344,73.3972799 60.527692,72.5172166 C58.1305557,70.75709 55.5558537,68.908957 52.9811517,67.2368368 Z M244.130577,67.5008558 C243.864229,67.3248431 243.686663,67.2368368 243.420315,67.0608241 C242.798835,67.5888621 242.266138,68.2929127 241.644658,68.7329444 C238.270911,70.9331027 234.80838,73.0452546 231.434633,75.2454129 C230.458022,75.8614572 229.570194,76.5655078 228.593583,77.0935458 C226.107663,78.5896534 223.621744,80.0857611 221.224608,81.669875 C219.182603,82.98997 217.140598,84.3100649 215.098593,85.6301599 C213.056588,86.9502549 211.103366,88.2703498 209.150144,89.6784511 C208.972578,89.8544638 208.795012,90.3825018 208.883795,90.6465208 C209.150144,91.5265841 209.594058,92.3186411 210.037972,93.2867107 C211.458497,92.4946537 213.056588,91.7906031 214.477113,90.8225334 C217.762078,88.6223752 220.958259,86.3342106 224.243224,84.1340523 C226.196446,82.8139573 228.238451,81.4938624 230.191673,80.2617737 C232.943941,78.5896534 235.784992,77.0055395 238.359693,75.1574065 C239.957784,74.0133242 241.289527,72.5172166 242.532486,71.021109 C243.331532,69.965033 243.59788,68.6449381 244.130577,67.5008558 Z M85.5644491,148.46668 C85.2981006,147.850636 85.0317521,147.146585 84.8541864,146.442535 C84.4990551,144.946427 83.9663582,144.770414 82.6346158,145.562471 C81.1253077,146.530541 79.5272168,147.49861 78.0179088,148.554686 C76.4198179,149.610762 74.9105099,150.842851 73.2236362,151.810921 C71.3591968,152.955003 69.4059746,153.835066 67.6303181,154.979149 C64.5229192,157.003294 61.6818687,159.379465 58.485687,161.139592 C56.2661163,162.37168 54.8455911,164.131807 53.5138487,166.067946 C52.8923689,166.94801 52.8923689,168.268105 52.5372376,169.5882 C63.7238737,162.459687 74.4665957,155.507187 85.5644491,148.46668 Z M244.130577,168.62013 C243.242749,167.124022 242.710052,165.275889 241.467092,164.043801 C239.51387,162.107661 237.205517,160.435541 234.80838,158.851427 C232.233678,157.091301 229.570194,155.683199 226.995492,154.011079 C224.953487,152.77899 222.911482,151.458895 220.958259,150.1388 C219.271386,148.994718 217.762078,147.674623 216.075204,146.706554 C215.364941,146.266522 214.299547,145.034433 213.322936,146.354528 C212.879022,146.970573 212.701457,147.850636 212.523891,148.730699 C212.435108,149.082724 212.790239,149.522756 213.056588,149.786775 C213.322936,150.050794 213.855633,150.1388 214.121982,150.402819 C216.696684,152.162946 219.360169,154.011079 221.934871,155.683199 C225.131052,157.795351 228.416017,159.819497 231.612199,161.843642 C234.098118,163.427756 236.67282,164.923864 239.158739,166.507978 C240.401698,167.300035 241.555875,168.268105 242.798835,169.148168 C242.9764,169.324181 243.420315,169.500193 243.509097,169.412187 C243.864229,169.412187 243.864229,169.060162 244.130577,168.62013 Z M234.719598,52.3637669 C234.719598,52.1877542 234.719598,52.0117415 234.719598,51.9237352 C232.500027,51.6597162 230.280456,51.3956972 228.149668,52.0997479 C226.729143,52.6277858 225.397401,53.5958555 224.065658,54.3879125 C222.201219,55.5319948 220.247997,56.6760771 218.383558,57.9081657 C215.897638,59.4922796 213.500502,61.1643999 211.103366,62.7485139 C208.706229,64.3326278 206.309093,65.8287355 203.911957,67.4128494 C203.645608,67.5888621 203.468043,68.1169001 203.556825,68.3809191 C203.823174,69.436995 204.178305,70.493071 204.444654,71.549147 C204.711002,71.4611406 204.977351,71.4611406 205.066134,71.3731343 C207.729618,69.701014 210.30432,68.0288937 212.967805,66.3567735 C213.855633,65.8287355 214.743462,65.3006975 215.63129,64.7726595 C218.916254,62.5725012 222.112436,60.1963303 225.486184,57.996172 C228.416017,56.0600327 231.612199,54.2999061 234.719598,52.3637669 Z M186.688088,68.6449381 C186.865654,68.5569317 186.954437,68.4689254 187.132003,68.3809191 C186.599306,66.4447798 185.977826,64.5086405 185.445129,62.6605076 C185.267563,61.9564569 184.823649,60.9003809 185.17878,60.6363619 C186.510523,59.4042733 188.019831,58.4362037 189.440356,57.3801277 C190.061836,56.9400961 190.594533,56.5000644 191.12723,55.9720264 C190.416967,55.7960138 189.795487,55.6200011 189.085225,55.5319948 C187.04322,55.0039568 184.823649,55.7080074 182.870427,54.4759188 C182.692861,54.3879125 182.071381,54.8279441 181.893816,55.0919631 C180.828422,57.3801277 179.763028,59.6682923 178.786417,61.9564569 C178.431286,62.7485139 178.25372,63.6285772 177.898589,64.7726595 C180.118159,63.4525645 180.473291,63.4525645 182.248947,65.0366785 C183.758255,66.2687671 185.17878,67.5008558 186.688088,68.6449381 Z M201.337255,87.2142739 C201.426038,87.0382612 201.603603,86.8622485 201.692386,86.6862359 C201.248472,85.4541472 200.538209,84.3100649 200.271861,82.98997 C199.650381,80.5257927 199.384033,78.0616155 198.762553,75.5094319 C198.584987,74.7173749 198.141073,74.0133242 197.608376,72.9572483 C197.075679,74.4533559 196.631765,75.4214255 196.365417,76.3014888 C193.96828,77.1815521 191.926275,74.4533559 189.351573,75.9494635 C190.683316,77.1815521 191.926275,78.3256344 193.080452,79.4697168 C193.524366,79.9097484 194.145846,80.3497801 193.524366,81.3178497 C192.547755,82.725951 191.926275,84.3980713 191.12723,86.0701916 C191.482361,86.1581979 191.837492,86.2462042 192.103841,86.1581979 C193.258018,85.6301599 194.412194,84.9261093 195.566371,84.3980713 C196.187851,84.1340523 197.164462,83.782027 197.519593,84.046046 C198.496204,84.6620903 199.206467,85.6301599 200.005512,86.5102232 C200.449427,86.7742422 200.893341,86.9502549 201.337255,87.2142739 Z M173.459447,78.8536724 C171.595008,79.2056978 172.127705,80.4377864 172.038922,81.3178497 C171.950139,82.0219003 172.305271,82.9019637 171.151094,83.253989 C170.618397,83.4300016 170.174483,84.046046 169.730569,84.4860776 C170.263266,84.8381029 170.795963,85.1901283 171.328659,85.5421536 C171.506225,85.6301599 171.683791,85.7181662 172.038922,85.8061726 C172.038922,87.1262675 172.038922,88.4463625 172.038922,89.7664575 C172.216488,89.8544638 172.305271,89.9424701 172.482836,89.9424701 C172.92675,89.4144321 173.370664,88.7983878 173.903361,88.3583562 C174.436058,87.9183245 175.146321,87.2142739 175.767801,87.3022802 C176.744412,87.3902865 177.721023,88.0063308 178.697634,88.4463625 C178.786417,88.3583562 178.963983,88.3583562 179.052765,88.2703498 C178.342503,86.9502549 177.63224,85.6301599 177.01076,84.3980713 C177.809806,83.3419953 178.697634,82.3739257 179.49668,81.3178497 C179.49668,81.141837 179.49668,81.0538307 179.407897,80.877818 C176.833195,81.405856 173.992144,83.0779763 173.459447,78.8536724 Z M175.945366,117.312439 C174.258493,116.432376 173.992144,117.840477 173.637013,118.456521 C173.104316,119.336585 172.571619,119.600604 171.683791,119.248578 C170.884745,118.896553 170.0857,118.544528 169.286654,118.192502 C169.109089,118.280509 169.020306,118.456521 168.84274,118.544528 C169.375437,119.336585 170.174483,120.216648 170.263266,121.008705 C170.352048,123.208863 172.038922,123.560889 173.459447,124.264939 C173.903361,124.440952 174.347276,124.792977 174.79119,125.056996 C174.702407,124.880983 174.613624,124.792977 174.613624,124.616964 C175.323887,124.088926 176.122932,123.560889 176.833195,123.120857 C177.188326,122.944844 177.721023,123.120857 178.076154,122.944844 C178.342503,122.856838 178.786417,122.504813 178.786417,122.240794 C178.697634,121.888768 178.431286,121.536743 178.164937,121.36073 C177.188326,120.832692 176.122932,120.480667 175.235104,120.128642 C175.323887,119.072566 175.679018,118.192502 175.945366,117.312439 Z M186.066609,111.944053 C184.734866,112.208072 183.758255,112.472091 182.515296,112.73611 C181.982599,112.472091 182.248947,110.535952 180.473291,110.975983 C180.384508,111.856046 180.295725,112.73611 180.206942,113.616173 C179.763028,113.616173 179.407897,113.616173 179.141548,113.704179 C178.786417,113.880192 178.431286,114.232217 178.076154,114.496236 C178.431286,114.760255 178.786417,115.288293 179.141548,115.288293 C180.206942,115.3763 180.384508,115.904338 180.384508,116.784401 C180.384508,117.224433 180.384508,117.752471 180.473291,118.192502 C180.562073,118.280509 180.650856,118.456521 180.828422,118.544528 C182.071381,116.168357 184.024604,117.136426 185.977826,117.576458 C184.113386,115.288293 184.113386,115.288293 186.066609,111.944053 Z M167.422215,116.08035 C167.510998,115.288293 167.599781,114.672249 167.599781,113.968198 C167.954912,113.880192 168.221261,113.880192 168.398826,113.792186 C168.84274,113.528167 169.286654,113.176141 169.730569,112.912122 C169.375437,112.648103 169.020306,112.384084 168.576392,112.208072 C167.866129,111.856046 167.244649,111.592028 167.777346,110.535952 C167.866129,110.359939 167.067084,109.479876 167.067084,109.479876 C166.179256,110.09592 165.291427,110.711964 164.492382,111.328009 C164.403599,111.416015 164.314816,111.680034 164.314816,111.76804 C165.291427,113.088135 165.025079,115.288293 167.422215,116.08035 Z M231.079502,173.020446 C232.056113,174.692567 231.523416,177.156744 233.299072,178.564845 C233.831769,177.860795 234.275683,177.332757 234.542032,176.804719 C234.897163,176.012662 235.252295,175.308611 234.098118,174.780573 C233.032724,174.340541 232.056113,173.636491 231.079502,173.020446 Z" id="Shape" fill-rule="nonzero"></path>
            <path d="M121.015016,125 C116.89883,124.469397 114.035396,123.408192 111.887821,120.224575 C110.635069,118.367465 110.008693,116.598789 109.650764,114.564811 C109.561282,114.034208 109.292835,113.592039 109.203352,113.061436 C109.11387,112.796135 108.934905,112.4424 109.024388,112.177098 C109.829728,109.612518 110.366622,106.87107 113.230056,105.72143 C114.661773,105.190828 116.361936,105.102394 117.972618,105.01396 C118.956923,104.925526 120.03071,105.279261 121.015016,105.456129 C124.146896,105.898298 127.278777,106.428901 130.500139,106.87107 C133.095126,107.224805 135.690113,107.57854 138.195617,107.666974 C140.25371,107.755408 141.953873,108.551312 143.654037,109.347216 C145.354201,110.143121 145.443683,112.177098 143.922484,113.415172 C141.595944,115.272281 139.000958,116.687222 136.316489,117.925296 C132.647714,119.605538 129.247387,121.727949 125.668095,123.496625 C124.057414,124.204096 122.267768,124.557831 121.015016,125 Z" id="Path"></path>
            <path d="M157.99404,140.074795 C157.729654,141.539551 157.641525,143.004307 157.024624,144.296739 C156.319595,145.761496 153.411349,146.364631 152.265676,145.416847 C151.913161,145.158361 151.736904,144.555226 151.648775,144.038253 C151.384389,142.142686 151.29626,140.247119 150.943745,138.351552 C150.855617,138.006904 150.150587,137.403769 149.798073,137.489931 C149.357429,137.576093 148.828657,138.093066 148.740528,138.523877 C148.476142,140.419444 148.299885,142.31501 148.123628,144.210577 C148.035499,145.503009 146.801697,146.364631 145.567896,145.847658 C142.571521,144.72755 142.130877,144.124415 142.042749,140.850254 C141.95462,138.26539 141.866491,135.680526 143.27655,133.440311 C145.391639,129.993826 146.801697,128.529069 151.384389,129.132204 C152.61819,129.304528 153.940121,130.16615 154.821407,131.027771 C157.200882,133.612635 158.082169,136.62831 157.99404,140.074795 Z" id="Path"></path>
            <path d="M38,191 C38,188.885196 38,186.854985 38,184.909366 C38,184.570997 38.6202532,184.063444 38.9746835,184.063444 C40.3924051,183.978852 41.721519,183.978852 43.1392405,184.063444 C44.2911392,184.148036 45,184.570997 45,185.839879 C44.9113924,186.939577 44.9113924,188.123867 44.9113924,189.223565 C44.9113924,190.407855 44.2911392,191 43.0506329,191 C41.4556962,191 39.8607595,191 38,191 Z" id="Path"></path>
            <path d="M187.087912,196.185636 C187.087912,193.515977 187,190.846318 187.175824,188.265648 C187.263736,186.930818 187.703297,185.684977 188.230769,184.439136 C188.758242,183.282284 192.098901,182.659364 193.241758,183.193295 C193.857143,183.54925 194.648352,183.54925 195.263736,183.905204 C196.67033,184.795091 196.846154,186.396886 196.934066,187.820704 C197.021978,193.249011 197.021978,198.766307 196.934066,204.194614 C196.934066,205.70742 196.406593,207.131239 195.263736,208.288091 C194.912088,208.644045 194.384615,208.822023 193.857143,208.911011 C192.978022,209 192.010989,209 191.131868,209 C188.406593,209 187.087912,207.754159 187,205.0845 C187.087912,202.147875 187.175824,199.21125 187.087912,196.185636 C187.087912,196.185636 187.087912,196.185636 187.087912,196.185636 Z" id="Path"></path>
            <path d="M221.295082,191 C223.344262,193.418605 223.098361,196.395349 224,199 C222.196721,199 220.721311,199 219,199 C219.655738,196.302326 220.393443,193.790698 221.295082,191 Z" id="Path"></path>
        </g>
    </g>
</svg>