<?xml version="1.0" encoding="UTF-8"?>
<svg width="378px" height="82px" viewBox="0 0 378 82" version="1.1" xmlns="http://www.w3.org/2000/svg" xmlns:xlink="http://www.w3.org/1999/xlink">
    <!-- Generator: Sketch 52.4 (67378) - http://www.bohemiancoding.com/sketch -->
    <title>hikokimori</title>
    <desc>Created with Sketch.</desc>
    <g id="Page-1" stroke="none" stroke-width="1" fill="none" fill-rule="evenodd">
        <g id="hikokimori" transform="translate(1.000000, 1.000000)" stroke="#D0021B" stroke-width="2">
            <path d="M0,79.4 C0,53.4 0,27.3 0,1.3 C0,0.2 0.2,0 1.3,0 C109.4,0 217.5,0 325.6,0 C321.2,5.1 317,10.5 312.5,15.5 C311.4,16.7 311.4,17.2 312.7,18.2 C313.4,18.7 314.1,19.3 314.8,19.9 C316.4,21.3 316.4,21.5 317.7,19.7 C318,19.2 318.5,18.8 318.9,18.3 C321.4,15.3 323.8,12.2 326.4,9.3 C329.1,6.3 331.5,3.1 334.1,0 C335.4,0 336.7,0 338,0 C338,7.2 338,14.4 338.1,21.7 C338.1,23.5 337.7,25.1 336.5,26.4 C335.5,27.5 334.6,28.8 333.5,29.9 C330.8,32.9 328.3,36.1 325.7,39.2 C323.5,41.7 321.4,44.3 319.2,46.8 C317,49.5 314.7,52.1 312.5,54.8 C311.9,55.5 312,56 312.6,56.5 C313.7,57.4 314.9,58.2 316.1,59.1 C316.7,59.5 317,59.4 317.5,58.9 C319.9,56.4 322.1,53.5 324.4,50.9 C327.5,47.3 330.6,43.7 333.5,40 C334.4,38.8 335.6,37.9 336.4,36.6 C336.7,36.1 337,35.5 337.6,35.6 C338.3,35.8 338,36.5 338,37.1 C338,50.6 338,64.1 338,77.6 C338,79.4 337.8,79.5 336.1,79.5 C335.8,79.5 335.5,79.5 335.3,79.5 C224.3,79.5 113.4,79.5 2.4,79.5 C1.5,79.4 0.8,79.4 0,79.4 Z M56.4,43 C56.4,35.1 56.4,27.2 56.4,19.3 C56.4,17.5 56.3,17.4 54.5,17.4 C52.5,17.4 50.6,17.4 48.6,17.4 C46.9,17.4 46.7,17.6 46.7,19.3 C46.7,24.4 46.7,29.5 46.7,34.7 C46.7,36.6 46.6,36.7 44.7,36.7 C38.9,36.7 33.1,36.7 27.2,36.7 C25.2,36.7 25,36.6 25,34.6 C25,29.6 25,24.5 25,19.5 C25,17.5 24.9,17.4 22.8,17.4 C21,17.4 19.2,17.4 17.4,17.4 C15.4,17.4 15.3,17.5 15.3,19.5 C15.3,26.2 15.3,32.8 15.3,39.5 C15.3,48.4 15.3,57.4 15.3,66.3 C15.3,68.5 15.4,68.5 17.6,68.5 C19.2,68.5 20.9,68.5 22.5,68.5 C24.7,68.5 25,68.3 25,66 C25,60 25,54 25,48 C25,46 25.1,45.8 27.1,45.8 C32.9,45.8 38.6,45.8 44.4,45.8 C46.5,45.8 46.6,45.9 46.6,48 C46.6,54.2 46.6,60.5 46.6,66.7 C46.6,68 47,68.5 48.3,68.4 C50.3,68.3 52.3,68.4 54.3,68.4 C56.2,68.4 56.3,68.3 56.3,66.4 C56.4,58.7 56.4,50.8 56.4,43 Z M187,50.5 C187,55.9 187,61.3 187,66.7 C187,68 187.4,68.6 188.8,68.5 C190.1,68.4 191.5,68.5 192.9,68.5 C194,68.5 194.2,68.1 194.2,66.9 C194,61.9 194,57 194,52.1 C194,51.7 194,51.3 194.5,51.2 C195.1,51.1 195.2,51.6 195.3,52 C195.7,53.3 196.2,54.6 196.6,55.8 C197.9,59.6 199.3,63.4 200.6,67.2 C200.9,68 201.2,68.5 202.1,68.5 C203.4,68.5 204.6,68.5 205.9,68.5 C206.9,68.5 207.3,68.1 207.5,67.2 C209.1,62.4 210.7,57.6 212.3,52.8 C212.5,52.3 212.5,51.3 213.2,51.4 C213.8,51.5 213.6,52.4 213.6,53 C213.6,57.6 213.6,62.1 213.6,66.7 C213.6,68 214.1,68.6 215.4,68.5 C216.7,68.4 218,68.4 219.3,68.5 C220.6,68.6 221.1,68 221.1,66.7 C221,63.1 221.1,59.4 221.1,55.8 C221.1,48.7 221.1,41.6 221.1,34.4 C221.1,32.6 220.8,32.3 219,32.3 C217.1,32.3 215.3,32.3 213.4,32.3 C212.3,32.3 211.7,32.6 211.3,33.7 C210.8,34.9 210.7,36.1 210.2,37.3 C209.2,40.1 208.4,42.9 207.4,45.6 C206.4,48.3 206,51.3 204.7,53.9 C204.5,54.2 204.6,54.7 204.1,54.8 C203.6,54.9 203.6,54.4 203.4,54 C201.6,49.9 200.6,45.6 199.1,41.5 C198.2,39 197.4,36.5 196.6,34 C196.2,32.8 195.5,32.2 194.1,32.3 C192.5,32.4 190.8,32.3 189.2,32.3 C187.2,32.3 186.9,32.6 186.9,34.6 C187,39.8 187,45.2 187,50.5 Z M260.2,50.4 C260.2,55.8 260.2,61.2 260.2,66.6 C260.2,68.3 260.4,68.4 262.1,68.4 C263.3,68.4 264.4,68.4 265.6,68.4 C267.6,68.4 267.7,68.3 267.7,66.3 C267.7,63 267.7,59.7 267.7,56.4 C267.7,55.7 267.7,54.9 268.6,54.8 C270.4,54.6 272.1,54.4 273.9,54.5 C277,54.6 279,56.4 280,59.4 C280.9,62.1 281.9,64.7 282.8,67.4 C283.1,68.2 283.5,68.5 284.3,68.5 C286.2,68.5 288,68.5 289.9,68.5 C290.9,68.5 291.2,68.1 290.8,67.1 C290.2,65.4 289.4,63.9 288.8,62.2 C287.9,59.4 287.1,56.6 285.5,54.1 C284.4,52.4 284.3,52.3 285.9,51 C289.4,47.9 289.9,43.4 288.5,39 C287.8,36.8 286.2,35.5 284.4,34.3 C281.5,32.4 278.2,32.8 275.1,32.5 C270.9,32.1 266.6,32.4 262.4,32.4 C260.5,32.4 260.2,32.7 260.2,34.6 C260.2,39.8 260.2,45.1 260.2,50.4 Z M184.4,50.2 C184.6,46.9 183.7,43.7 182.1,40.6 C179.7,36 175.9,33.2 170.9,32.3 C166.8,31.5 162.7,32.1 158.9,34.2 C153.5,37.2 151,41.9 150.3,47.7 C149.8,51.9 150.3,56 152.2,59.9 C153.5,62.5 155.4,64.6 157.6,66.1 C161.1,68.5 165.3,69.3 169.6,68.7 C174,68.1 177.7,66.1 180.5,62.6 C183.4,59 184.7,54.9 184.4,50.2 Z M257.6,50.6 C257.8,46.5 256.7,42.8 254.7,39.5 C252.4,35.6 248.8,33.1 244.4,32.3 C240.2,31.5 236,31.9 232,34.1 C226.8,37 224.5,41.6 223.6,47 C222.9,51.4 223.3,55.8 225.6,59.8 C226.9,62.3 228.6,64.5 230.9,65.9 C235.7,68.9 240.9,69.5 246.3,67.8 C249.7,66.7 252.5,64.8 254.3,61.9 C256.5,58.5 258,54.7 257.6,50.6 Z M74.7,50.5 C74.7,55.9 74.7,61.3 74.7,66.7 C74.7,68 75.1,68.6 76.5,68.5 C77.8,68.4 79.1,68.5 80.4,68.5 C82.1,68.5 82.2,68.3 82.2,66.6 C82.2,63.6 82.2,60.5 82.2,57.5 C82.2,56.2 83.7,54.1 84.9,53.6 C85.4,53.4 85.8,53.6 86.1,54 C86.9,54.9 87.5,56 88.2,56.9 C90.7,60.5 93.4,64 96,67.6 C96.4,68.1 96.8,68.4 97.4,68.4 C99.9,68.4 102.3,68.4 104.8,68.4 C105.7,68.4 105.9,67.9 105.4,67.3 C104.9,66.6 104.3,66 103.8,65.2 C102.3,62.8 100.4,60.7 98.8,58.3 C96.6,55.1 94.2,52.1 91.8,49 C91.1,48 91,47.3 92,46.4 C95.3,43.4 98.5,40.3 101.7,37.2 C102.9,36 104.1,34.8 105.3,33.5 C105.6,33.2 106.1,33 105.8,32.5 C105.6,32.1 105.1,32.3 104.8,32.3 C102.4,32.3 100,32.3 97.5,32.3 C96.6,32.3 95.8,32.6 95.2,33.1 C93.2,35 91.3,37 89.3,39 C87.4,41 85.4,43 83.5,45 C83.3,45.2 83,45.5 82.7,45.4 C82.3,45.2 82.3,44.8 82.2,44.5 C82.2,44 82.2,43.6 82.2,43.1 C82.2,40.1 82.2,37.1 82.2,34.2 C82.2,32.9 81.6,32.3 80.3,32.3 C79.1,32.3 78,32.3 76.8,32.3 C74.8,32.3 74.6,32.5 74.6,34.5 C74.7,39.8 74.7,45.1 74.7,50.5 Z M121.4,50.9 C121.4,56.1 121.4,61.2 121.4,66.4 C121.4,68 121.8,68.4 123.4,68.4 C124.5,68.4 125.6,68.4 126.8,68.4 C128.8,68.4 129,68.3 129,66.3 C129,63.4 129,60.4 129,57.5 C129,56.9 128.9,56.1 129.5,55.7 C132.5,52.9 132,52.4 134.5,55.9 C137.3,59.8 140.2,63.8 143,67.8 C143.3,68.2 143.7,68.5 144.2,68.5 C146.7,68.5 149.2,68.5 151.7,68.5 C152.6,68.5 153,68 152.3,67.3 C151.4,66.3 150.7,65.2 150,64.2 C146.1,59 142.2,53.8 138.3,48.6 C137.9,48 137.8,47.5 138.4,47 C139.5,46.1 140.4,44.9 141.5,44 C145.4,40.7 148.6,36.8 152.4,33.5 C152.7,33.3 153.1,33 152.9,32.6 C152.7,32.2 152.2,32.3 151.9,32.3 C149.5,32.3 147.2,32.3 144.8,32.3 C143.7,32.3 142.8,32.6 142.1,33.4 C140.1,35.5 138.1,37.5 136.1,39.6 C134.2,41.5 132.4,43.4 130.5,45.2 C130.3,45.4 130,45.6 129.6,45.5 C129.2,45.4 129.2,45.1 129.1,44.7 C129.1,44.2 129,43.7 129,43.2 C129,40.2 129,37.2 129,34.3 C129,33.3 128.7,32.4 127.5,32.4 C126,32.4 124.4,32.4 122.9,32.4 C122.4,32.4 121.9,32.5 121.8,33.2 C121.7,34.4 121.4,35.7 121.5,36.9 C121.4,41.5 121.4,46.2 121.4,50.9 Z M301.2,50.6 C301.2,50.6 301.2,50.6 301.2,50.6 C301.2,45.2 301.2,39.7 301.2,34.3 C301.2,32.7 300.8,32.3 299.2,32.3 C297.8,32.3 296.4,32.3 295,32.3 C293.9,32.3 293.5,32.8 293.5,33.8 C293.5,44.5 293.5,55.2 293.5,65.9 C293.5,66.3 293.5,66.7 293.6,67.2 C293.7,68.1 294.1,68.5 295,68.5 C296.4,68.5 297.8,68.5 299.2,68.5 C301.1,68.5 301.2,68.4 301.2,66.5 C301.2,61.2 301.2,55.9 301.2,50.6 Z M109.3,50.2 C109.3,55.7 109.3,61.2 109.3,66.7 C109.3,68 109.7,68.6 111.1,68.5 C112.4,68.4 113.7,68.5 115,68.5 C116.7,68.5 116.9,68.3 116.9,66.7 C116.9,62.3 116.9,58 116.9,53.6 C116.9,47.2 116.9,40.8 116.9,34.3 C116.9,32.4 116.8,32.3 114.9,32.3 C113.7,32.3 112.6,32.3 111.4,32.3 C109.4,32.3 109.3,32.4 109.3,34.3 C109.3,39.6 109.3,44.9 109.3,50.2 Z M62.6,50.3 C62.6,55.8 62.6,61.3 62.6,66.8 C62.6,68 63,68.6 64.3,68.5 C65.5,68.4 66.7,68.5 67.9,68.5 C70,68.5 70.1,68.4 70.1,66.3 C70.1,58.7 70.1,51.1 70.1,43.6 C70.1,40.5 70.1,37.4 70.1,34.3 C70.1,32.8 69.7,32.4 68.2,32.4 C66.9,32.4 65.7,32.4 64.4,32.4 C62.7,32.4 62.6,32.6 62.6,34.3 C62.6,39.5 62.6,44.9 62.6,50.3 Z" id="Shape"></path>
            <path d="M358.3,0 C363.9,0 369.5,0 375.1,-7.10542736e-15 C375.1,0.1 375.1,0.2 375.1,0.3 C375.1,26.1 375.1,51.9 375.1,77.7 C375.1,79 374.6,79.5 373.3,79.5 C364.5,79.5 355.6,79.5 346.8,79.5 C344.7,79.5 344.6,79.4 344.6,77.3 C344.6,63.9 344.6,50.6 344.6,37.2 C344.6,36.6 344.2,35.6 345.1,35.3 C345.8,35.1 346.3,36 346.8,36.5 C346.9,36.6 346.9,36.7 347,36.7 C349.5,39.7 352,42.7 354.7,45.5 C357.2,48 359.2,50.9 361.7,53.4 C363.4,55.1 364.9,57 366.6,58.8 C367,59.2 367.4,59.6 367.9,59.1 C369.1,58.1 370.5,57.4 371.6,56.1 C371.9,55.7 372.2,55.4 371.7,54.9 C370,53 368.4,51 366.7,49.1 C363.6,45.6 360.4,42.1 357.2,38.5 C354.8,35.8 352.6,33 350.2,30.4 C348.6,28.8 347.4,26.9 345.7,25.5 C345,24.9 344.7,24 344.7,23 C344.7,15.3 344.7,7.6 344.7,-7.10542736e-15 C346.3,-7.10542736e-15 347.9,-7.10542736e-15 349.5,-7.10542736e-15 C350.2,1.1 351.4,1.8 352.1,2.9 C354.5,6.2 357.5,9 360.1,12.1 C362.2,14.7 364.6,17.1 366.8,19.6 C367.8,20.8 368.3,20.9 369.6,20 C370.5,19.3 371.4,18.5 372.3,17.8 C373.2,17.2 373.1,16.7 372.4,16 C368.8,12 365.2,8 361.6,4 C360.3,2.7 359,1.6 358.3,0 Z" id="Path"></path>
            <path d="M273.4,47.3 C272.1,47.3 270.7,47.3 269.4,47.3 C268.3,47.3 267.8,46.9 267.8,45.7 C267.8,44 267.8,42.4 267.8,40.7 C267.8,39.7 268.2,39.1 269.3,39.2 C271.9,39.2 274.5,39.2 277.1,39.2 C278.5,39.2 279.8,39.8 280.9,40.8 C282,41.8 282.4,43.2 281.9,44.6 C281.3,46.4 279.6,47 277.9,47.2 C276.3,47.4 274.8,47.2 273.4,47.3 C273.4,47.2 273.4,47.3 273.4,47.3 Z" id="Path"></path>
            <path d="M177,50.2 C176.5,53.2 176.4,56.3 174.2,58.9 C172.1,61.3 169.4,61.9 166.5,61.7 C163.1,61.5 160.3,59.8 159.1,56.5 C157.3,51.7 157,46.8 160.2,42.4 C163.5,37.9 170.4,37.6 174.1,42 C176.3,44.4 176.6,47.3 177,50.2 Z" id="Path"></path>
            <path d="M231.1,50.1 C230.9,48.5 231.3,46.8 231.8,45.1 C232.9,41.9 235.2,39.8 238.4,39.1 C241.9,38.2 244.9,39.1 247.3,42 C250,45.3 250.6,49.1 249.7,53.2 C249.3,55.2 248.6,57.1 247.3,58.7 C245.5,61 241.1,62.3 238.2,61.5 C233.5,60.4 230.8,55.5 231.1,50.1 Z" id="Path"></path>
        </g>
    </g>
</svg>