<?xml version="1.0" encoding="UTF-8"?>
<svg width="326px" height="149px" viewBox="0 0 326 149" version="1.1" xmlns="http://www.w3.org/2000/svg" xmlns:xlink="http://www.w3.org/1999/xlink">
    <!-- Generator: Sketch 52.4 (67378) - http://www.bohemiancoding.com/sketch -->
    <title>koala</title>
    <desc>Created with Sketch.</desc>
    <g id="Page-1" stroke="none" stroke-width="1" fill="none" fill-rule="evenodd">
        <g id="Desktop-HD-Copy-21" transform="translate(-871.000000, -161.000000)" stroke="#D0021B" stroke-width="2">
            <g id="koala" transform="translate(872.000000, 162.000000)">
                <g id="Group">
                    <path d="M211.128351,146.059477 C202.175079,143.302881 200.081527,136.100161 199.50246,128.008217 C198.878849,119.11597 200.660595,110.44603 202.754146,101.865012 C202.976864,101.020249 203.155039,100.175485 203.199583,99.2417993 C200.838769,103.198849 198.700674,107.289282 196.072599,111.068487 C192.642739,116.092606 189.346509,121.250109 184.624883,125.162698 C178.656034,130.097895 172.197206,128.274984 169.257325,121.072265 C166.9856,115.603533 166.896512,109.956956 168.143734,104.265919 C168.678258,101.820551 169.4355,99.375183 170.059111,96.9742765 C170.237286,96.2184355 170.682722,95.5070558 170.281829,94.4399862 C167.787385,97.2410439 165.961096,100.264408 164.223894,103.332233 C160.927664,109.201115 156.384212,114.136312 151.484411,118.671358 C147.074591,122.71733 140.927568,121.605799 138.076774,116.403835 C135.805048,112.224479 135.983223,107.644972 136.56229,103.154388 C137.007727,99.6419504 137.809512,96.1739743 139.145822,92.8393818 C139.680346,91.5055448 139.591258,90.8830876 137.854056,91.2387775 C135.671418,91.6833898 133.488779,92.0835409 131.261597,92.2613858 C128.455347,92.4392307 126.584514,93.7730677 125.292748,96.2184355 C123.689177,99.3307218 121.372908,101.953935 119.412987,104.843915 C118.254853,106.577903 115.983127,107.022515 115.04771,108.845426 C113.08779,112.669092 109.479755,114.669847 106.272612,117.159676 C95.9830303,125.073775 84.3571391,118.449052 80.5709293,108.845426 C78.5664653,103.821306 78.7000962,98.8861095 81.2836276,94.0398351 C83.867159,89.1490995 85.737992,83.8582128 89.3905709,79.5454733 C92.6868006,75.6773461 96.4284667,72.5205985 101.461899,71.275684 C103.110013,70.8755329 103.599993,69.5861572 104.04543,68.207859 C105.693545,63.3615846 108.588882,59.4045349 112.508722,56.2033262 C116.384019,53.0021174 120.081142,52.8242725 124.401875,55.5364077 C127.341756,57.4037795 129.747113,59.7602248 131.617946,62.6502049 C133.444235,65.4512626 133.488779,68.6524713 133.043342,71.8981413 C132.419731,76.6110319 131.395228,81.2350001 129.925287,85.7700458 C129.435307,87.3706502 129.702569,87.7708013 131.350684,87.3706502 C134.335108,86.7037317 137.319532,86.1257357 140.303957,85.5922009 C141.595722,85.3698948 142.352964,84.6140538 142.932032,83.502523 C143.911992,81.59069 145.11467,79.8122407 146.139174,77.9004077 C148.811793,72.9207496 153.622506,70.3864594 158.210502,67.7187854 C161.506731,65.8069524 165.604747,67.1407894 168.188278,70.2086144 C169.970024,72.3427536 171.128159,74.8325826 171.974488,77.4557954 C172.776273,79.8122407 172.776273,79.7677794 174.424388,78.0337914 C175.983416,76.433187 177.676074,74.9659663 179.769626,74.1212029 C182.620419,73.0096721 184.803057,73.5876681 186.985696,75.8996522 C189.034704,78.0782526 189.48014,80.3013142 188.143831,83.0134494 C186.094823,87.2817278 183.466748,91.4610836 182.709506,96.129513 C181.685002,102.443008 179.814169,108.667581 179.903257,115.114459 C179.903257,116.048145 179.814169,117.159676 180.883217,117.64875 C181.952264,118.137823 182.75405,117.337521 183.466748,116.759525 C186.941152,113.780622 189.524684,110.045879 192.063671,106.311135 C196.651667,99.6864116 201.106031,92.9283043 205.560396,86.1701969 C206.005832,85.5032785 206.22855,84.7029763 206.495812,83.9471353 C210.371109,72.7429047 214.068232,61.4942129 218.07716,50.3344435 C221.551564,40.7752785 226.005929,31.5718033 231.618428,23.1241691 C235.226463,17.6554375 238.032713,11.5642487 242.531621,6.67351309 C243.823386,5.25075365 245.070608,3.73907174 246.496005,2.449696 C250.014953,-0.751512746 254.424774,-0.66259028 257.899178,2.62754093 C261.685388,6.22890077 262.843523,10.7639465 262.219912,15.832527 C261.329039,23.1686304 258.344614,29.8378153 254.914754,36.1957715 C245.694219,53.3133461 234.736483,69.3193898 223.066048,84.7918987 C220.705235,87.904185 219.368926,91.3276999 218.388965,94.973521 C216.963569,100.397791 215.359998,105.822062 214.023688,111.290793 C213.221903,114.714308 213.979145,118.271207 213.31099,121.783644 C212.598292,125.429465 212.642835,129.164209 213.400077,132.81003 C214.157319,136.500312 216.473589,137.567382 219.769818,135.744471 C223.689659,133.610332 226.184103,130.053433 228.812178,126.67438 C238.077256,114.847692 245.872394,102.087318 253.266639,89.0601771 C254.513861,86.7926542 255.627452,84.4806701 258.077353,83.1023719 C259.190944,82.4799146 259.63638,81.1460777 260.170904,80.0345468 C262.843523,74.2545866 267.876954,70.9644554 273.044017,67.8521691 C276.518421,65.7624912 280.928242,66.874022 283.645405,70.1641532 C285.516238,72.4316761 286.718916,75.0548888 287.565245,77.8559464 C288.010682,79.3231671 288.411575,79.7677794 289.614253,78.3005588 C291.17328,76.3887258 293.133201,74.8770439 295.44947,73.9878192 C298.25572,72.9207496 300.527446,73.8099743 302.487366,75.8996522 C304.402743,77.9448689 304.98181,80.256853 303.734588,82.8356045 C301.596493,87.2372665 298.879331,91.5500061 298.122089,96.3518192 C297.142129,102.620853 295.226752,108.756503 295.404927,115.158921 C295.44947,116.092606 295.315839,117.204137 296.429431,117.64875 C297.453934,118.093362 298.300264,117.337521 299.012962,116.715064 C302.710084,113.469394 305.47179,109.37896 308.233496,105.377449 C312.197881,99.6419504 315.895003,93.7286065 319.814844,87.9931075 C320.705717,86.6592705 321.507502,84.6140538 323.912859,85.5922009 C323.912859,86.6148093 323.912859,87.6818788 323.912859,88.7044872 C321.952939,92.4392307 319.993018,96.1739743 318.077642,99.953179 C314.380519,107.333744 309.837068,114.180773 304.625461,120.583191 C302.754628,122.895175 300.794708,125.118237 298.166633,126.629919 C294.46951,128.808519 290.6833,128.319445 287.609789,125.340543 C285.070801,122.895175 284.001754,119.782889 283.333599,116.492758 C282.041833,110.44603 283.289055,104.577147 284.981714,98.7527258 C285.382607,97.4188888 285.91713,96.129513 285.694412,94.6178311 C284.803539,95.5070558 284.001754,96.4407417 283.378143,97.46335 C279.101953,104.399302 274.736676,111.201871 268.812371,116.981831 C266.050665,119.693966 263.155328,120.89442 259.369118,120.761036 C257.275567,120.716575 255.85017,119.960734 254.692036,118.315668 C252.687572,115.603533 251.752155,112.535708 251.663068,109.201115 C251.618524,107.511589 251.93033,105.777601 251.395806,103.776845 C250.950369,104.399302 250.683108,104.754992 250.460389,105.155143 C244.714259,115.470149 238.077256,125.207159 230.326662,134.099406 C225.694123,139.434754 220.927953,144.681179 213.444621,146.015016 C212.598292,146.059477 211.84105,146.059477 211.128351,146.059477 Z M90.8605111,106.889131 C90.7268802,113.380471 92.4195387,114.669847 96.7402722,113.558316 C99.145629,112.935859 101.283724,111.735406 103.243644,110.268185 C108.499794,106.311135 112.152373,101.020249 115.404059,95.4181333 C116.829456,92.9727655 116.784912,92.8838431 114.023206,92.1724633 C109.257036,90.9275488 104.802672,89.1935608 102.397315,84.3917476 C102.130053,83.9026741 102.130053,83.0134494 101.461899,83.0134494 C100.704657,83.0134494 100.526482,83.8582128 100.170133,84.3917476 C97.7202324,88.1264912 96.2502921,92.3503083 94.4685464,96.4407417 C92.7758879,100.397791 90.9941421,104.443764 90.8605111,106.889131 Z M226.27319,69.1860061 C226.451365,69.2749286 226.62954,69.363851 226.763171,69.4527735 C232.197495,61.2719067 237.097296,52.8242725 241.729835,44.1543322 C243.823386,40.2417437 245.204239,35.9734654 247.475965,32.1942606 C249.524973,28.7707457 251.084,25.0360021 252.687572,21.3901811 C254.068425,18.2334336 254.692036,14.8988411 255.003841,11.4753262 C255.092928,10.5416403 255.137472,9.43010951 254.112968,8.94103596 C253.177552,8.49642363 252.42031,9.20780335 251.752155,9.78579937 C251.173088,10.2748729 250.683108,10.8084077 250.193128,11.3864037 C248.010489,13.9651552 246.406918,16.8995966 244.936977,19.8784992 C239.948089,29.8378153 236.028249,40.2417437 232.37567,50.7345946 C230.282118,56.8257834 228.322198,63.0058948 226.27319,69.1860061 Z M148.277269,108.134046 C148.366356,108.934348 148.010007,110.045879 148.945424,110.490491 C150.014471,110.979565 150.682626,109.956956 151.35078,109.334499 C151.885304,108.845426 152.375284,108.26743 152.865264,107.733895 C157.898696,101.553783 162.531235,95.0179822 167.030143,88.3932586 C168.099191,86.7926542 168.410996,85.2809723 167.876472,83.4136005 C167.119231,80.834849 165.961096,78.3005588 166.272901,75.4550399 C166.406532,74.0767417 164.624786,73.1430558 163.110303,73.6765906 C161.284013,74.3435091 159.90316,75.6328848 159.101375,77.3224117 C155.315165,85.1031274 151.751673,92.9283043 149.613578,101.331477 C149.034511,103.554539 148.321813,105.733139 148.277269,108.134046 Z M263.600765,107.378205 C263.778939,108.800964 263.333503,110.001418 264.358006,110.490491 C265.38251,110.979565 266.095209,109.956956 266.763363,109.334499 C267.253343,108.889887 267.69878,108.400813 268.144216,107.867278 C273.311279,101.553783 278.032905,94.9290598 282.576357,88.1709524 C283.556317,86.7037317 283.779035,85.2809723 283.289055,83.5469842 C282.576357,80.8793103 281.373679,78.3005588 281.596397,75.3661174 C281.685484,74.0322804 280.349175,73.2764395 278.834691,73.5432069 C277.854731,73.7210518 277.097489,74.2990478 276.340247,74.9215051 C274.246696,76.7444156 273.311279,79.2787059 272.242232,81.6796124 C270.594117,85.414356 269.391438,89.2824832 267.654236,92.9727655 C265.38251,97.7301174 264.758899,102.843159 263.600765,107.378205 Z M124.669137,65.6735687 C124.669137,65.5846463 124.669137,65.540185 124.669137,65.4512626 C124.624594,63.1837397 124.624594,60.6494494 122.174693,59.7157636 C119.947511,58.8710001 118.299396,60.6939107 116.829456,62.1611313 C114.824992,64.1618868 113.221421,66.296026 112.286004,69.0970836 C111.172413,72.5205985 109.167949,75.5884236 108.499794,79.2342447 C107.252572,86.3480419 109.167949,88.7489484 116.339476,88.7489484 C118.076678,88.7489484 119.056638,88.1264912 119.724793,86.5258868 C122.531042,79.8122407 123.644634,72.7429047 124.669137,65.6735687 Z" id="Shape"></path>
                    <path d="M21.0606202,89.6826343 C20.4370092,90.0383242 20.4815528,90.6163202 20.3479219,91.1053938 C18.2543706,102.087318 14.5572481,112.713553 12.3746095,123.695477 C11.8846295,126.096384 11.5728239,128.541752 11.0383002,130.898197 C10.3256019,133.877099 8.27659425,134.588479 5.96032473,132.632185 C1.77322215,129.075286 -0.765765585,124.762547 0.258738239,118.982587 C1.416873,112.491247 3.37679335,106.177752 5.20308278,99.8642566 C9.83562181,83.9471353 14.2454426,67.9410916 19.7688545,52.2907377 C24.0450444,40.1972825 27.9203415,27.9704435 33.0428606,16.2326781 C33.4437534,15.3434534 33.8001025,14.4542288 34.1119081,13.5650041 C34.8246064,11.2974813 36.250003,10.3193342 38.5662725,10.6305628 C39.6798636,10.7639465 40.7489111,11.0751751 41.7734149,11.4753262 C46.4059539,13.2982367 47.2968268,15.8769882 44.7578391,20.1008053 C43.644248,21.9681771 42.887006,23.8800101 42.4415696,26.0586105 C41.506153,31.0382685 38.9671653,35.528853 37.2745068,40.3751274 C35.4482174,45.5326304 33.0428606,50.5567496 31.5729203,55.8031751 C30.0138928,61.4052904 28.4994089,67.0074057 26.227683,72.3872148 C26.4058576,72.4761373 26.5394885,72.609521 26.7176631,72.6984435 C27.9648851,71.7647576 29.3011945,70.8755329 30.5038729,69.8529246 C45.515081,56.9591671 59.4572418,43.1317238 71.3949385,27.303525 C74.4239063,23.2575528 77.0519814,18.9448133 78.343747,13.9651552 C79.0119017,11.430865 80.481842,10.9417914 82.3081314,12.8091632 C85.737992,16.3216006 87.4306505,20.5454177 86.5843213,25.5695369 C85.9161666,29.5265866 83.733528,32.7277954 81.1499966,35.6177755 C75.5374974,41.9312705 70.8604148,49.089529 64.7133918,54.825028 C57.7645833,61.2719067 51.3502985,68.2523202 44.0451408,74.3435091 C39.63532,77.9893301 34.86915,81.1460777 29.7466309,83.7248291 C27.9203415,84.658515 27.6530796,85.4588172 28.8112144,87.2372665 C33.4437534,94.4399862 39.4126018,100.531175 44.6687518,107.244821 C50.5930565,114.847692 58.1654761,120.761036 65.0251973,127.430221 C71.3503949,133.565871 80.7045602,132.498801 86.4506903,125.651771 C87.118845,124.851469 87.6533687,123.07302 89.0787654,123.962245 C90.2814438,124.718086 90.1923565,126.363151 89.74692,127.652527 C88.499698,131.209426 86.0943412,134.099406 83.733528,136.900463 C81.1499966,140.01275 78.2101161,142.680424 74.334819,144.192105 C69.8804546,145.926094 65.6042647,145.79271 61.6398804,142.947191 C53.7556553,137.345076 46.272323,131.076042 40.9716293,122.984098 C35.6709356,114.847692 30.0138928,106.889131 25.2922664,98.3525747 C23.7777825,95.551517 23.5550643,92.1280021 21.0606202,89.6826343 Z" id="Path"></path>
                </g>
            </g>
        </g>
    </g>
</svg>