<?xml version="1.0" encoding="UTF-8"?>
<svg width="172px" height="77px" viewBox="0 0 172 77" version="1.1" xmlns="http://www.w3.org/2000/svg" xmlns:xlink="http://www.w3.org/1999/xlink">
    <!-- Generator: Sketch 52.4 (67378) - http://www.bohemiancoding.com/sketch -->
    <title>loco</title>
    <desc>Created with Sketch.</desc>
    <g id="Page-1" stroke="none" stroke-width="1" fill="none" fill-rule="evenodd">
        <g id="loco" transform="translate(1.000000, 1.000000)" stroke="#D0021B" stroke-width="1">
            <path d="M77.5440613,30.8 C77.5440613,33.2774194 77.5440613,35.483871 77.5440613,37.9612903 C77.5440613,39.2 77.8582375,40.1290323 78.48659,41.0580645 C79.4291188,42.2967742 81,43.2258065 81,44.4645161 C81,45.7032258 79.4291188,46.9419355 78.48659,47.8709677 C77.5440613,48.8 77.2298851,50.0387097 77.2298851,51.2774194 C77.2298851,55.9612903 77.2298851,60.6064516 77.2298851,64.9806452 C77.2298851,65.9096774 76.9157088,66.5290323 76.2873563,66.8387097 C73.7739464,69.0064516 71.2212644,71.1741935 69.0220307,73.3806452 C68.3936782,73.6903226 68.0795019,74 67.4511494,74 C62.6992337,74 58.3007663,74 53.5488506,74 C52.9204981,74 52.2921456,73.6903226 51.9779693,73.3806452 C49.4645594,71.2129032 47.2260536,69.0451613 44.7126437,66.8387097 C44.0842912,66.2193548 43.7701149,65.6 43.7701149,64.9806452 C43.7701149,60.2967742 43.7701149,55.6516129 43.7701149,50.9677419 C43.7701149,49.7290323 43.4559387,48.8 42.51341,47.8709677 C41.5708812,46.9419355 40,45.7032258 40,44.4645161 C40,43.2258065 41.5708812,41.9870968 42.51341,41.0580645 C43.4559387,40.1290323 43.7701149,39.2 43.7701149,37.9612903 C43.7701149,32.9677419 43.7701149,28.3225806 43.7701149,23.3290323 C43.7701149,22.4 44.0842912,21.7806452 44.7126437,21.1612903 C47.2260536,18.9935484 49.4645594,16.8258065 51.6637931,14.6193548 C52.2921456,14 52.9204981,14 53.5488506,14 C57.947318,14 62.6992337,14 67.0977011,14 C67.7260536,14 68.3544061,14.3096774 68.9827586,14.6193548 C71.4961686,16.7870968 73.7346743,18.9548387 76.2480843,21.1612903 C76.8764368,21.7806452 77.190613,22.4 77.190613,23.0193548 C77.5440613,25.4967742 77.5440613,28.3225806 77.5440613,30.8 Z M55.433908,44.1935484 C55.433908,50.116129 55.433908,56 55.433908,61.9225806 C55.433908,62.8516129 55.7480843,63.1612903 56.690613,63.1612903 C59.5181992,63.1612903 62.3850575,63.1612903 65.2126437,63.1612903 C66.1551724,63.1612903 66.1551724,62.8516129 66.1551724,62.2322581 C66.1551724,50.116129 66.1551724,38.2709677 66.1551724,26.1548387 C66.1551724,25.2258065 65.8409962,25.2258065 65.2126437,25.2258065 C62.3850575,25.2258065 59.5181992,25.2258065 56.690613,25.2258065 C55.7480843,25.2258065 55.433908,25.5354839 55.433908,26.4645161 C55.433908,32.3483871 55.433908,38.2709677 55.433908,44.1935484 Z" id="Shape"></path>
            <path d="M147.225902,74 C145.026754,74 142.474171,74 140.275022,74 C139.646694,74 139.33253,73.6926516 138.704202,73.3853031 C136.19089,71.2338642 133.638307,68.7366582 131.439158,66.5852192 C130.81083,65.9705224 130.496666,65.663174 130.496666,64.7411287 C130.496666,60.0924837 130.496666,55.4822574 130.496666,51.1409609 C130.496666,49.6042187 130.182502,48.6821735 129.24001,47.4527797 C128.297518,46.5307345 126.726698,45.3013408 127.040862,44.0719471 C127.040862,42.8425534 128.297518,41.9205081 129.24001,40.9984628 C130.182502,40.0764175 130.496666,38.8470238 130.496666,37.3102817 C130.496666,32.6616368 130.496666,27.744062 130.496666,23.095417 C130.496666,22.1733718 130.81083,21.5586749 131.439158,21.2513265 C133.952471,19.0998875 136.19089,16.9484485 138.704202,14.758591 C139.960858,13.5291973 140.589186,13.8365457 141.217515,15.3732878 C141.531679,16.2953331 142.160007,16.6026815 142.788335,16.91003 C149.110886,19.3688174 155.394167,22.1733718 161.716719,24.6321592 C162.030883,24.6321592 162.345047,24.9395076 162.659211,24.9395076 C164.544195,24.3248107 164.230031,25.8615529 164.230031,26.7835981 C164.230031,30.4717792 164.230031,34.1983789 164.230031,37.88656 C164.230031,39.1159537 164.544195,40.037999 165.486688,40.9600443 C166.42918,42.189438 168,43.1114832 168,44.3408769 C168,45.5702706 166.42918,46.7996643 165.486688,47.7217096 C164.544195,48.6437549 164.230031,49.5658002 164.230031,50.7951939 C164.230031,55.4438388 164.230031,60.0540652 164.230031,64.3953617 C164.230031,65.317407 163.915867,65.9321038 163.287539,66.5468007 C160.774227,68.6982397 158.535808,70.8496786 156.022496,73.0395362 C155.394167,73.654233 154.765839,73.654233 154.137511,73.654233 C151.977633,74 149.42505,74 147.225902,74 Z M152.605961,44.0719471 C152.605961,38.1939084 152.605961,32.3542883 152.605961,26.4762497 C152.605961,25.5542044 152.291797,25.246856 151.349305,25.246856 C148.521829,25.246856 145.655082,25.246856 142.827605,25.246856 C141.885113,25.246856 141.885113,25.5542044 141.885113,26.1689013 C141.885113,38.1939084 141.885113,49.9499857 141.885113,61.9749929 C141.885113,62.8970381 142.199277,62.8970381 142.827605,62.8970381 C145.655082,62.8970381 148.521829,62.8970381 151.349305,62.8970381 C152.291797,62.8970381 152.605961,62.5896897 152.605961,61.6676444 C152.605961,55.4822574 152.605961,49.9115672 152.605961,44.0719471 Z" id="Shape"></path>
            <path d="M88.6805112,57.3400759 C88.6805112,54.8723135 88.6805112,52.6744627 88.6805112,50.2067004 C88.6805112,48.9728192 88.3738019,48.0474083 87.4536741,47.1219975 C86.5335463,46.1965866 85,44.9627054 85,43.7288243 C85,42.4949431 86.5335463,41.2610619 87.4536741,40.3356511 C88.3738019,39.4102402 88.6805112,38.4848293 88.6805112,37.2509482 C88.6805112,32.585335 88.6805112,28.2667509 88.6805112,23.6011378 C88.6805112,22.6757269 88.9872204,22.0587863 89.600639,21.1333755 C92.0543131,18.9740834 94.2396166,17.1232617 96.3865815,14.9254109 C97,14.3084703 97.3067093,14 98.2268371,14 C102.865815,14 107.159744,14 111.453674,14 C112.067093,14 112.680511,14.3084703 112.98722,14.6169406 C115.440895,16.7762326 117.932907,19.2825537 120.079872,21.4418458 C120.693291,22.0587863 121,22.3672566 121,23.2926675 C121,26.994311 121,30.7345133 121,34.4361568 C121,35.3615676 120.693291,35.6700379 119.773163,35.6700379 C117.01278,35.6700379 113.907348,35.6700379 111.146965,35.6700379 C110.226837,35.6700379 109.920128,35.3615676 109.920128,34.4361568 C109.920128,31.9683944 109.920128,29.153603 109.920128,26.6858407 C109.920128,25.7604298 109.613419,25.7604298 109,25.7604298 C106.239617,25.7604298 103.440895,25.7604298 100.373802,25.7604298 C99.4536741,25.7604298 99.4536741,26.0689001 99.4536741,26.6858407 C99.7603834,32.2768647 99.1469649,37.82933 99.1469649,43.420354 C99.1469649,45.579646 99.1469649,47.4304678 99.1469649,49.6283186 C99.4536741,53.9469027 99.4536741,58.3040455 99.4536741,62.3141593 C99.4536741,62.9310999 99.4536741,63.2395702 100.373802,63.2395702 C103.134185,63.2395702 106.239617,63.2395702 109,63.2395702 C109.920128,63.2395702 109.920128,62.9310999 109.920128,62.3141593 C109.920128,59.2294564 109.920128,56.414665 109.920128,53.3299621 C109.920128,52.4045512 110.226837,52.0960809 111.146965,52.0960809 C113.907348,52.0960809 117.01278,52.0960809 119.773163,52.0960809 C120.693291,52.0960809 121,52.4045512 121,53.3299621 C121,57.3400759 121,61.6972187 121,65.7073325 C121,66.3242731 120.693291,66.9412137 120.079872,67.5581542 C117.626198,69.7174463 115.134185,71.8767383 112.98722,74.3830594 C112.373802,75 112.067093,75 111.453674,75 C106.814696,75 102.520767,75 98.2268371,75 C97.6134185,75 97,74.6915297 96.3865815,74.3830594 C93.9329073,72.2237674 91.7476038,70.0644753 89.2939297,67.8666245 C88.6805112,67.2496839 88.3738019,66.9412137 88.3738019,66.0158028 C88.6805112,62.6226296 88.6805112,60.1163085 88.6805112,57.3400759 Z" id="Path"></path>
            <path d="M18.6963907,74 C13.0010616,74 7.03078556,74 1.33545648,74 C0.0785562633,74 0.0785562633,73.6905222 0.0785562633,72.762089 C0.0785562633,69.9767892 0.0785562633,67.1528046 0.0785562633,64.0580271 C0.0785562633,63.1295938 0.0785562633,62.8201161 1.33545648,62.8201161 C2.59235669,62.8201161 4.47770701,63.4390716 5.10615711,62.5106383 C5.73460722,61.582205 5.42038217,60.0348162 5.42038217,58.7969052 C5.42038217,56.0116054 5.42038217,52.8781431 5.42038217,50.0928433 C5.42038217,48.8549323 5.10615711,48.2359768 4.47770701,47.3075435 C3.22080679,46.0696325 1.96390658,44.8317215 1.64968153,43.5938104 C1.64968153,42.3558994 3.22080679,41.1179884 4.16348195,40.1895551 C5.10615711,39.2611219 5.42038217,38.3326886 5.10615711,37.0947776 C5.10615711,33.6905222 5.10615711,29.9381044 5.10615711,26.5338491 C5.10615711,25.2959381 4.79193206,24.9864603 3.8492569,25.2959381 C2.59235669,25.2959381 1.02123142,25.9148936 0.392781316,24.9864603 C-0.23566879,24.2514507 0.0785562633,22.7040619 0.0785562633,21.4661509 C0.0785562633,19.2998066 0.0785562633,17.1334623 0.0785562633,14.9284333 C0.0785562633,14 0.392781316,14 1.02123142,14 C7.34501062,14 13.6295117,14 19.9532909,14 C20.895966,14 21.2101911,14.3094778 20.895966,15.237911 C20.895966,18.3326886 20.895966,21.1566731 20.895966,24.2514507 C20.895966,25.1798839 20.581741,25.4893617 19.9532909,25.1798839 C18.6963907,25.1798839 17.1252654,24.8704062 16.1825902,25.4893617 C15.2399151,26.1083172 15.8683652,27.9651838 15.8683652,29.2030948 C15.8683652,31.9883946 15.8683652,34.8123791 15.8683652,37.2882012 C15.8683652,38.5261122 16.1825902,39.4545455 16.8110403,40.3829787 C17.7537155,41.6208897 19.3248408,42.8588008 19.3248408,43.787234 C19.3248408,45.0251451 17.7537155,46.2630561 16.8110403,47.1914894 C16.1825902,48.1199226 15.8683652,49.0483559 15.8683652,49.9767892 C15.8683652,54 15.8683652,57.7524178 15.8683652,61.7756286 C15.8683652,62.3945841 15.8683652,63.0135397 16.8110403,63.0135397 C19.6390658,63.0135397 22.8205945,63.0135397 25.64862,63.0135397 C26.5912951,63.0135397 26.5912951,62.7040619 26.5912951,61.7756286 C26.5912951,59.2998066 26.5912951,57.0947776 26.5912951,54.6189555 C26.5912951,53.6905222 26.9055202,53.3810445 27.8481953,53.3810445 C30.6762208,53.3810445 33.5435244,53.3810445 36.0573248,53.3810445 C37,53.3810445 37,53.6905222 37,54.3094778 C37,60.5377176 37,66.7272727 37,72.9555126 C37,73.8839458 36.6857749,73.8839458 35.7430998,73.8839458 C30.6762208,74 24.7059448,74 18.6963907,74 Z" id="Path"></path>
            <path d="M163.953854,11.4650207 C163.953854,14.2201269 163.953854,14.2201269 166.414531,15.4446185 C167.337285,15.7507415 168.567623,16.3629873 169.490377,16.6691102 C170.105546,16.9752331 170.105546,17.281356 169.797962,17.8936019 C168.260039,19.4242164 166.106946,20.954831 164.22299,21.8731997 C163.607821,22.1793227 163.300236,21.8731997 162.992652,21.5670768 C156.802511,19.1180935 150.650818,16.3247219 144.460677,13.8757386 C143.537923,13.5696157 143.230339,12.9573699 142.922754,12.0390011 C142.307585,10.2022636 142,8.36552616 142,6.18440039 C142,4.95990874 142.307585,4.65378582 143.537923,5.26603165 C145.075846,5.87827748 146.61377,6.49052331 147.844108,7.10276914 C148.766862,7.40889205 149.074447,7.40889205 149.689616,6.79664622 C151.535124,4.65378582 153.380632,3.12317125 155.572172,1.55429132 C155.879757,1.55429132 155.879757,1.24816841 156.187341,1.24816841 C160.185942,-1.20081491 162.685067,0.0236767508 163.915406,4.30939755 C163.953854,6.83491159 164.261438,9.01603735 163.953854,11.4650207 Z" id="Path"></path>
        </g>
    </g>
</svg>