<?xml version="1.0" encoding="utf-8"?>
<!-- Generator: Adobe Illustrator 18.0.0, SVG Export Plug-In . SVG Version: 6.00 Build 0)  -->
<!DOCTYPE svg PUBLIC "-//W3C//DTD SVG 1.1//EN" "http://www.w3.org/Graphics/SVG/1.1/DTD/svg11.dtd">
<svg version="1.1" id="Layer_1" xmlns="http://www.w3.org/2000/svg" xmlns:xlink="http://www.w3.org/1999/xlink" x="0px" y="0px"
	 viewBox="1.5 19.1 54.4 23.8" enable-background="new 1.5 19.1 54.4 23.8" xml:space="preserve">
<path fill="#622251" d="M26.3,29c0,0.8,0,1.5,0,2.3c0,0.4,0.1,0.7,0.3,1c0.3,0.4,0.8,0.7,0.8,1.1c0,0.4-0.5,0.8-0.8,1.1
	c-0.3,0.3-0.4,0.7-0.4,1.1c0,1.5,0,3,0,4.4c0,0.3-0.1,0.5-0.3,0.6c-0.8,0.7-1.6,1.4-2.3,2.1c-0.2,0.1-0.3,0.2-0.5,0.2
	c-1.5,0-2.9,0-4.4,0c-0.2,0-0.4-0.1-0.5-0.2c-0.8-0.7-1.5-1.4-2.3-2.1c-0.2-0.2-0.3-0.4-0.3-0.6c0-1.5,0-3,0-4.5
	c0-0.4-0.1-0.7-0.4-1c-0.3-0.3-0.8-0.7-0.8-1.1s0.5-0.8,0.8-1.1c0.3-0.3,0.4-0.6,0.4-1c0-1.6,0-3.1,0-4.7c0-0.3,0.1-0.5,0.3-0.7
	c0.8-0.7,1.5-1.4,2.2-2.1c0.2-0.2,0.4-0.2,0.6-0.2c1.4,0,2.9,0,4.3,0c0.2,0,0.4,0.1,0.6,0.2c0.8,0.7,1.5,1.4,2.3,2.1
	c0.2,0.2,0.3,0.4,0.3,0.6C26.3,27.3,26.3,28.2,26.3,29z M19.3,33.3c0,1.9,0,3.8,0,5.7c0,0.3,0.1,0.4,0.4,0.4c0.9,0,1.8,0,2.7,0
	c0.3,0,0.3-0.1,0.3-0.3c0-3.9,0-7.7,0-11.6c0-0.3-0.1-0.3-0.3-0.3c-0.9,0-1.8,0-2.7,0c-0.3,0-0.4,0.1-0.4,0.4
	C19.3,29.5,19.3,31.4,19.3,33.3z"/>
<path fill="#622251" d="M48.5,43c-0.7,0-1.5,0-2.2,0c-0.2,0-0.3-0.1-0.5-0.2c-0.8-0.7-1.6-1.5-2.3-2.2c-0.2-0.2-0.3-0.3-0.3-0.6
	c0-1.5,0-3,0-4.4c0-0.5-0.1-0.8-0.4-1.2c-0.3-0.3-0.8-0.7-0.7-1.1c0-0.4,0.4-0.7,0.7-1c0.3-0.3,0.4-0.7,0.4-1.2c0-1.5,0-3.1,0-4.6
	c0-0.3,0.1-0.5,0.3-0.6c0.8-0.7,1.5-1.4,2.3-2.1c0.4-0.4,0.6-0.3,0.8,0.2c0.1,0.3,0.3,0.4,0.5,0.5c2,0.8,4,1.7,6,2.5
	c0.1,0,0.2,0.1,0.3,0.1c0.6-0.2,0.5,0.3,0.5,0.6c0,1.2,0,2.4,0,3.6c0,0.4,0.1,0.7,0.4,1c0.3,0.4,0.8,0.7,0.8,1.1
	c0,0.4-0.5,0.8-0.8,1.1c-0.3,0.3-0.4,0.6-0.4,1c0,1.5,0,3,0,4.4c0,0.3-0.1,0.5-0.3,0.7c-0.8,0.7-1.5,1.4-2.3,2.1
	c-0.2,0.2-0.4,0.2-0.6,0.2C50,43,49.2,43,48.5,43z M50.2,33.3c0-1.9,0-3.8,0-5.7c0-0.3-0.1-0.4-0.4-0.4c-0.9,0-1.8,0-2.7,0
	c-0.3,0-0.3,0.1-0.3,0.3c0,3.9,0,7.7,0,11.6c0,0.3,0.1,0.3,0.3,0.3c0.9,0,1.8,0,2.7,0c0.3,0,0.4-0.1,0.4-0.4
	C50.2,37,50.2,35.2,50.2,33.3z"/>
<path fill="#622251" d="M29.7,37.5c0-0.8,0-1.5,0-2.3c0-0.4-0.1-0.7-0.4-1c-0.3-0.3-0.8-0.7-0.8-1.1c0-0.4,0.5-0.8,0.8-1.1
	c0.3-0.3,0.4-0.6,0.4-1c0-1.5,0-2.9,0-4.4c0-0.3,0.1-0.5,0.3-0.8c0.8-0.7,1.5-1.3,2.2-2c0.2-0.2,0.3-0.3,0.6-0.3c1.5,0,2.9,0,4.3,0
	c0.2,0,0.4,0.1,0.5,0.2c0.8,0.7,1.6,1.5,2.3,2.2c0.2,0.2,0.3,0.3,0.3,0.6c0,1.2,0,2.4,0,3.6c0,0.3-0.1,0.4-0.4,0.4
	c-0.9,0-1.9,0-2.8,0c-0.3,0-0.4-0.1-0.4-0.4c0-0.8,0-1.7,0-2.5c0-0.3-0.1-0.3-0.3-0.3c-0.9,0-1.8,0-2.8,0c-0.3,0-0.3,0.1-0.3,0.3
	c0.1,1.8-0.1,3.6-0.1,5.4c0,0.7,0,1.3,0,2c0.1,1.4,0.1,2.8,0.1,4.1c0,0.2,0,0.3,0.3,0.3c0.9,0,1.9,0,2.8,0c0.3,0,0.3-0.1,0.3-0.3
	c0-1,0-1.9,0-2.9c0-0.3,0.1-0.4,0.4-0.4c0.9,0,1.9,0,2.8,0c0.3,0,0.4,0.1,0.4,0.4c0,1.3,0,2.7,0,4c0,0.2-0.1,0.4-0.3,0.6
	c-0.8,0.7-1.6,1.4-2.3,2.2c-0.2,0.2-0.3,0.2-0.5,0.2c-1.5,0-2.9,0-4.3,0c-0.2,0-0.4-0.1-0.6-0.2c-0.8-0.7-1.5-1.4-2.3-2.1
	c-0.2-0.2-0.3-0.3-0.3-0.6C29.7,39.2,29.7,38.4,29.7,37.5z"/>
<path fill="#622251" d="M7.4,43c-1.8,0-3.7,0-5.5,0c-0.4,0-0.4-0.1-0.4-0.4c0-0.9,0-1.8,0-2.8c0-0.3,0-0.4,0.4-0.4
	c0.4,0,1,0.2,1.2-0.1c0.2-0.3,0.1-0.8,0.1-1.2c0-0.9,0-1.9,0-2.8c0-0.4-0.1-0.6-0.3-0.9C2.5,34,2.1,33.6,2,33.2
	c0-0.4,0.5-0.8,0.8-1.1c0.3-0.3,0.4-0.6,0.3-1c0-1.1,0-2.3,0-3.4c0-0.4-0.1-0.5-0.4-0.4c0,0,0,0,0,0c-0.4,0-0.9,0.2-1.1-0.1
	c-0.2-0.2-0.1-0.7-0.1-1.1c0-0.7,0-1.4,0-2.1c0-0.3,0.1-0.3,0.3-0.3c2,0,4,0,6,0c0.3,0,0.4,0.1,0.3,0.4c0,1,0,1.9,0,2.9
	c0,0.3-0.1,0.4-0.3,0.3c0,0,0,0,0,0c-0.4,0-0.9-0.1-1.2,0.1c-0.3,0.2-0.1,0.8-0.1,1.2c0,0.9,0,1.8,0,2.6c0,0.4,0.1,0.7,0.3,1
	c0.3,0.4,0.8,0.8,0.8,1.1c0,0.4-0.5,0.8-0.8,1.1c-0.2,0.3-0.3,0.6-0.3,0.9c0,1.3,0,2.5,0,3.8c0,0.2,0,0.4,0.3,0.4c0.9,0,1.9,0,2.8,0
	c0.3,0,0.3-0.1,0.3-0.4c0-0.8,0-1.5,0-2.3c0-0.3,0.1-0.4,0.4-0.4c0.9,0,1.8,0,2.6,0c0.3,0,0.3,0.1,0.3,0.3c0,2,0,4,0,6
	c0,0.3-0.1,0.3-0.4,0.3C11.2,43,9.3,43,7.4,43z"/>
<path fill="#FDBF5A" d="M53.9,22.8c0,0.9,0,0.9,0.8,1.3c0.3,0.1,0.7,0.3,1,0.4c0.2,0.1,0.2,0.2,0.1,0.4c-0.5,0.5-1.2,1-1.8,1.3
	c-0.2,0.1-0.3,0-0.4-0.1c-2-0.8-4-1.7-6-2.5c-0.3-0.1-0.4-0.3-0.5-0.6c-0.2-0.6-0.3-1.2-0.3-1.9c0-0.4,0.1-0.5,0.5-0.3
	c0.5,0.2,1,0.4,1.4,0.6c0.3,0.1,0.4,0.1,0.6-0.1c0.6-0.7,1.2-1.2,1.9-1.7c0.1,0,0.1-0.1,0.2-0.1c1.3-0.8,2.1-0.4,2.5,1
	C53.9,21.3,54,22,53.9,22.8z"/>
</svg>
