<?xml version="1.0" encoding="UTF-8"?>
<svg width="506px" height="146px" viewBox="0 0 506 146" version="1.1" xmlns="http://www.w3.org/2000/svg" xmlns:xlink="http://www.w3.org/1999/xlink">
    <!-- Generator: Sketch 52.4 (67378) - http://www.bohemiancoding.com/sketch -->
    <title>phocus</title>
    <desc>Created with Sketch.</desc>
    <g id="Page-1" stroke="none" stroke-width="1" fill="none" fill-rule="evenodd">
        <g id="phocus" transform="translate(2.000000, 2.000000)" stroke="#D0021B" stroke-width="2">
            <path d="M305.3,21.3 C321.7,21.3 334.9,34.6 334.9,50.9 C334.9,67.4 321.6,80.4 304.7,80.3 C288.2,80.3 275.2,67.1 275.2,50.4 C275.3,34.4 288.7,21.3 305.3,21.3 Z M305,72.1 C316.9,72.1 326,63 326,51 C326,38.7 317.1,29.6 305.2,29.5 C293.3,29.5 284.2,38.6 284.1,50.5 C284.1,62.8 293.2,72.1 305,72.1 Z" id="Shape" fill-rule="nonzero"></path>
            <path d="M226.8,79.2 C223.7,79.2 221.1,79.2 218.2,79.2 C218.2,60.4 218.2,41.6 218.2,22.6 C220.9,22.6 223.7,22.6 226.7,22.6 C226.7,23.4 226.8,24.3 226.8,25.1 C226.8,30.9 226.9,36.7 226.8,42.4 C226.8,44 227.3,44.6 228.9,44.6 C236.2,44.5 243.4,44.6 250.9,44.6 C250.9,37.3 250.9,30 250.9,22.6 C253.9,22.6 256.7,22.6 259.6,22.6 C259.6,41.4 259.6,60.2 259.6,79.1 C256.8,79.1 254.1,79.1 251.1,79.1 C251.1,70.5 251.1,61.8 251.1,53 C250.2,52.9 249.5,52.8 248.9,52.8 C242.3,52.8 235.6,52.8 229,52.8 C227.2,52.8 226.7,53.4 226.7,55.1 C226.8,62.2 226.7,69.3 226.7,76.5 C226.8,77.4 226.8,78.2 226.8,79.2 Z" id="Path"></path>
            <path d="M441.6,22.6 C444.6,22.6 447.3,22.6 450.2,22.6 C450.2,23.4 450.3,24.1 450.3,24.8 C450.3,36.4 450.4,47.9 450.3,59.5 C450.2,68.8 444.9,76.3 436.5,79.3 C427.8,82.3 418.2,79.6 412.4,72.5 C409.7,69.1 408.2,65.1 408.1,60.8 C408,48.4 408.1,36 408.1,23.5 C408.1,23.3 408.2,23.1 408.2,22.7 C410.9,22.7 413.7,22.7 416.8,22.7 C416.8,23.6 416.8,24.5 416.8,25.4 C416.8,37 416.8,48.7 417,60.3 C417.1,66.5 420.5,70.5 425.8,71.8 C433.5,73.8 440.1,69.4 441.2,61.5 C441.4,59.9 441.5,58.3 441.5,56.7 C441.5,46.3 441.5,35.8 441.5,25.4 C441.6,24.5 441.6,23.7 441.6,22.6 Z" id="Path"></path>
            <path d="M47.6,24.5 C48.6,25.4 49.7,26.3 50.7,27.3 C53.1,29.7 55.6,32.1 58,34.6 C59.8,36.4 61.4,38.3 63.2,40.1 C65,41.9 66.9,43.6 68.8,45.3 C69.9,46.3 69.9,47.1 68.8,48.2 C64.1,52.7 59.4,57.2 54.8,61.8 C53,63.6 51.4,65.5 49.6,67.3 C47.8,69.1 47.4,69.1 45.7,67.3 C41.5,63 37.4,58.7 33.3,54.5 C31.2,52.4 29,50.3 26.7,48.3 C25.3,47.1 25.5,46.1 26.7,45 C28.2,43.7 29.8,42.3 31.2,40.9 C35.2,36.9 39.3,32.9 43.3,28.8 C44.4,27.7 45.4,26.4 46.5,25.2 C46.6,25.1 47,24.9 47.6,24.5 Z" id="Path"></path>
            <path d="M99.4,71.7 C101.4,69.9 102.9,68.6 104.3,67.2 C105.4,66.1 106.4,64.9 107.4,63.8 C111.9,59.3 116.4,54.9 120.8,50.4 C121.9,49.3 122.8,49.3 123.8,50.4 C125.7,52.4 127.5,54.5 129.4,56.4 C131.7,58.7 134.1,60.8 136.4,63.1 C139.2,65.8 141.9,68.5 145.1,71.7 C143.4,73.2 141.8,74.4 140.4,75.8 C134.7,81.5 129.1,87.3 123.4,93.1 C122.6,93.9 122,94 121.1,93.1 C118.4,90.3 115.6,87.7 112.9,84.9 C110.8,82.8 108.9,80.5 106.8,78.5 C104.6,76.2 102.1,74.1 99.4,71.7 Z" id="Path"></path>
            <path d="M24.6,96.2 C32.4,88.5 39.7,81.2 46.7,74.2 C54.4,81.8 61.8,89.2 69.4,96.7 C69.2,96.9 68.8,97.4 68.3,97.9 C64.4,101.7 60.4,105.4 56.5,109.3 C54.1,111.7 51.7,114.3 49.4,116.8 C48.1,118.2 47.1,118.4 45.6,116.8 C41.3,112.3 36.9,108 32.5,103.7 C30.1,101.2 27.6,98.9 24.6,96.2 Z" id="Path"></path>
            <path d="M0,72 C7.4,64.2 14.6,56.7 21.7,49.4 C29.2,57 36.5,64.3 44.3,72 C42.2,73.9 39.8,76 37.5,78.3 C32.6,83.2 27.8,88.2 22.9,93.1 C22.6,93.4 21.6,93.4 21.4,93.1 C15.4,87.2 9.5,81.3 3.5,75.3 C2.3,74.1 0.9,72.9 0,72 Z" id="Path"></path>
            <path d="M97.2,73.6 C104.7,81.1 112,88.3 119.1,95.4 C111.4,103 104.1,110.3 96.5,117.9 C89.5,110.9 82.2,103.6 74.9,96.3 C82.3,88.8 89.6,81.4 97.2,73.6 Z" id="Path"></path>
            <path d="M465.9,63.5 C468.8,62.9 471.6,62.2 474.5,61.6 C474.9,63.1 475.1,64.5 475.5,65.9 C476.5,69.5 479.5,71.9 483.2,72.1 C487.9,72.4 491.3,70.4 492.9,66.5 C494.4,62.8 493.6,58.7 490.7,56.3 C489,55 487,54 485,53.1 C482.2,51.7 479.1,50.7 476.4,49.1 C471,46 467.7,41.5 468.4,34.9 C469.1,28.6 473.6,23.7 480.2,22 C488.8,19.7 496.6,23 500.9,31.1 C498.6,32.4 496.4,33.8 494,35.2 C493.4,34.4 492.9,33.6 492.3,32.9 C489.5,29.3 483.9,28.5 480.1,31.2 C476.3,34 476.2,38.5 480,41.3 C481.2,42.2 482.6,42.8 483.9,43.4 C486.7,44.7 489.7,45.7 492.4,47.1 C500.5,51.2 503.8,58.1 501.9,66.7 C500.1,74.7 493.1,80.3 484.6,80.5 C474.4,80.7 467.3,74.4 465.9,63.5 Z" id="Path"></path>
            <path d="M96.7,23.8 C98.8,26.1 100,27.7 101.5,29.1 C106.8,34.3 112.2,39.5 117.5,44.7 C119.5,46.7 119.5,46.7 117.5,48.7 C113.6,52.6 109.7,56.4 105.9,60.3 C103.1,63.1 100.4,66 97.4,69.2 C95.6,67.4 94.2,66 92.7,64.5 C90.3,62.1 87.8,59.8 85.4,57.4 C82.9,54.9 80.5,52.3 78.1,49.8 C77.1,48.7 75.3,47.7 75.2,46.5 C75.1,45.6 77,44.4 78,43.4 C82.7,38.7 87.5,34 92.2,29.2 C93.7,27.7 95,25.9 96.7,23.8 Z" id="Path"></path>
            <path d="M72.8,98.6 C74.3,100.3 75.8,102.3 77.5,104.1 C82.5,109.2 87.6,114.3 92.7,119.3 C93.9,120.5 93.9,121.2 92.7,122.4 C87,127.9 81.4,133.4 75.8,139 C74.8,140 74,141.2 72.9,142 C72.5,142.3 71.2,142.3 70.9,142 C66.8,137.9 62.8,133.7 58.7,129.5 C56.4,127.2 53.9,125 51.5,122.7 C50.9,122.2 50.4,121.6 50.1,121.2 C57.6,113.8 64.9,106.5 72.8,98.6 Z" id="Path"></path>
            <path d="M49.6,21.6 C53.6,17.9 57.4,14.5 61.1,11 C64.7,7.5 68.2,3.9 72.1,3.55271368e-15 C79.5,7.3 86.7,14.5 94.1,21.9 C91.1,25 88.4,27.9 85.6,30.8 C83.5,32.9 81.5,35 79.3,37 C77.1,39.1 75,41.2 72.7,43.2 C72.4,43.5 71.1,43.2 70.7,42.7 C67.1,39.2 63.5,35.6 59.9,32 C56.7,28.8 53.5,25.5 49.6,21.6 Z" id="Path"></path>
            <path d="M392.6,35.8 C386.5,30.9 380.2,28.6 372.8,30.1 C367.9,31.1 364,33.8 361,37.7 C354.8,45.7 355,57.6 361.6,65.1 C365.6,69.6 370.5,72 376.6,72.3 C382.7,72.6 387.6,70 392.6,65.9 C392.6,69.6 392.6,72.8 392.5,76 C392.5,76.4 391.7,76.9 391.2,77.2 C378.3,84.1 362.2,80.5 353.5,68.8 C344.9,57.4 346,41.2 356,30.8 C365.1,21.2 378.9,18.8 390.7,24.5 C392.1,25.2 392.8,26 392.7,27.7 C392.5,30.1 392.6,32.7 392.6,35.8 Z" id="Path"></path>
            <path d="M172.5,22.1 C179.1,22.5 185.7,22.3 192.1,23.3 C199.5,24.5 204.3,31.2 204.3,39.2 C204.3,47.4 199.6,53.6 191.6,55.5 C189,56.1 186.2,56.2 183.4,56.2 C181.4,56.2 180.9,56.9 180.9,58.8 C181,64.7 180.9,70.6 180.9,76.6 C180.9,77.4 180.9,78.3 180.9,79.2 C177.9,79.2 175.2,79.2 172.3,79.2 C172.5,60.4 172.5,41.6 172.5,22.1 Z M184.7,30.3 C184.7,30.3 184.7,30.4 184.7,30.4 C184.1,30.4 183.4,30.4 182.8,30.4 C181.7,30.3 181.1,30.7 181.1,31.9 C181.1,36.8 181.1,41.6 181.2,46.5 C181.2,47 182,47.9 182.4,47.9 C185.1,47.8 187.8,47.8 190.3,47.1 C194,46.1 195.9,43.1 195.9,39.1 C195.9,35.3 193.9,32.5 190.2,31.3 C188.5,30.9 186.6,30.7 184.7,30.3 Z" id="Shape" fill-rule="nonzero"></path>
            <path d="M417.5,125 C415.9,125 414.8,125 413.5,125 C413.5,115.8 413.5,106.7 413.5,97.1 C419.9,103.8 425.9,110.1 432.5,116.9 C432.5,110.5 432.5,104.8 432.5,98.9 C434,98.9 435.1,98.9 436.4,98.9 C436.4,108 436.4,117 436.4,126.6 C430,120 423.9,113.6 417.4,106.9 C417.5,113.1 417.5,118.9 417.5,125 Z" id="Path"></path>
            <path d="M394.7,98.2 C402.4,98.2 408.3,104.2 408.3,111.9 C408.3,119.5 402.3,125.4 394.5,125.4 C386.8,125.4 380.6,119.2 380.7,111.6 C380.8,104.2 387,98.2 394.7,98.2 Z M394.4,121.7 C400,121.7 404.3,117.5 404.4,111.9 C404.4,106.4 400.2,102.1 394.7,102 C389.2,101.9 384.9,106.2 384.9,111.7 C384.8,117.3 388.9,121.6 394.4,121.7 Z" id="Shape" fill-rule="nonzero"></path>
            <path d="M22,135.6 C20.7,134.7 19.6,133.9 18.4,133.1 C17.5,133.9 16.5,134.7 15.3,135.8 C15.3,121.2 15.3,107 15.3,92.6 C17.3,94.4 19.3,96.1 21.2,97.9 C21.7,98.4 22.2,99.3 22.2,100.1 C22.3,111.6 22.2,123.1 22.2,134.5 C22.3,134.8 22.1,135.2 22,135.6 Z" id="Path"></path>
            <path d="M254.8,125.2 C254.8,116.2 254.8,107.6 254.8,98.7 C259.4,98.8 264,98.1 268.3,100.2 C273.4,102.7 275.8,108.1 274.9,114.3 C274.1,119.5 269.9,123.9 264.6,124.6 C261.4,125.1 258.2,125 254.8,125.2 Z M258.8,102.7 C258.8,109 258.8,115 258.8,121.1 C263.2,121.5 267,120.9 269.5,117 C271.6,113.6 271.6,110 269.5,106.6 C267.1,102.7 263.2,102.2 258.8,102.7 Z" id="Shape" fill-rule="nonzero"></path>
            <path d="M295.5,98.8 C297,98.8 298.1,98.8 299.5,98.8 C299.5,99.6 299.6,100.3 299.6,101 C299.6,105.9 299.7,110.7 299.6,115.6 C299.5,121.7 295.5,125.5 289.6,125.5 C284.1,125.5 280.2,121.4 280.1,115.5 C280.1,110 280.1,104.5 280.1,98.9 C281.5,98.9 282.6,98.9 284.1,98.9 C284.1,99.8 284.1,100.6 284.1,101.4 C284.1,106.3 284,111.1 284.2,116 C284.3,119.6 286.3,121.6 289.4,121.7 C293.2,121.9 295.5,119.7 295.5,115.5 C295.6,110.8 295.5,106 295.5,101.3 C295.5,100.6 295.5,99.8 295.5,98.8 Z" id="Path"></path>
            <path d="M353.4,124.8 C349.3,125.5 349,125.5 347.9,122 C347,119.2 345.5,118.1 342.7,118.7 C342.3,118.8 341.8,118.8 341.4,118.7 C337,118 333.9,119 332.7,123.9 C332.1,126.2 329.8,124.7 327.8,125.2 C332.2,115.7 336.4,106.6 340.9,97 C345.2,106.6 349.3,115.7 353.4,124.8 Z M344.6,114.8 C343.3,111.9 342.2,109.2 340.8,106.1 C339.3,109.3 338.2,112 336.9,114.8 C339.6,114.8 341.9,114.8 344.6,114.8 Z" id="Shape" fill-rule="nonzero"></path>
            <path d="M238.8,121.3 C241.6,121.3 244,121.3 246.3,121.3 C249.7,121.3 249.7,121.3 249.1,124.9 C244.4,124.9 239.8,124.9 234.9,124.9 C234.9,116.3 234.9,107.6 234.9,98.8 C239.6,98.8 244.3,98.8 249.1,98.8 C249.2,99.4 249.2,99.9 249.3,100.4 C249.5,101.9 249,102.6 247.3,102.5 C244.6,102.4 241.8,102.5 238.7,102.5 C238.7,104.3 238.6,106 238.8,107.6 C238.8,108 239.8,108.6 240.4,108.6 C243.1,108.7 245.9,108.6 248.8,108.6 C248.8,109.9 248.8,111 248.8,112.5 C246.2,112.5 243.7,112.6 241.1,112.5 C239.3,112.4 238.5,112.9 238.7,114.8 C238.9,116.9 238.8,118.9 238.8,121.3 Z" id="Path"></path>
            <path d="M324.7,119.3 C325.6,123.1 325.1,124.1 321.5,125 C315.6,126.5 309.9,124.5 306.4,119.5 C303.3,115 303.4,108.6 306.6,104 C310.1,99.1 315.9,97 321.5,98.6 C325.1,99.6 325.5,100.3 324.6,104.5 C321.6,102.3 318.4,101.1 314.9,102.4 C313,103.1 311.2,104.5 309.9,106.1 C307.1,109.5 307.5,115 310.3,118.3 C313.9,122.4 317.7,122.6 324.7,119.3 Z" id="Path"></path>
            <path d="M368.3,98.8 C368.3,100.1 368.3,101.1 368.3,102.5 C366.9,102.5 365.6,102.6 364.3,102.5 C362.7,102.4 362.2,103 362.3,104.6 C362.4,110.6 362.3,116.6 362.3,122.6 C362.3,123.4 362.2,124.1 362.2,125 C360.9,125 359.7,125 358.3,125 C358.3,117.6 358.3,110.3 358.3,102.7 C356.2,102.7 354.4,102.7 352.4,102.7 C352.4,101.3 352.4,100.2 352.4,99 C357.7,98.8 362.9,98.8 368.3,98.8 Z" id="Path"></path>
            <path d="M372.1,98.8 C373.5,98.8 374.6,98.8 375.8,98.8 C375.8,107.5 375.8,116.1 375.8,124.8 C374.6,124.8 373.5,124.8 372.1,124.8 C372.1,116.2 372.1,107.6 372.1,98.8 Z" id="Path"></path>
        </g>
    </g>
</svg>