<?xml version="1.0" encoding="UTF-8"?>
<svg width="29px" height="38px" viewBox="0 0 29 38" version="1.1" xmlns="http://www.w3.org/2000/svg" xmlns:xlink="http://www.w3.org/1999/xlink">
    <!-- Generator: Sketch 52.4 (67378) - http://www.bohemiancoding.com/sketch -->
    <title>Group 2</title>
    <desc>Created with Sketch.</desc>
    <defs>
        <linearGradient x1="50%" y1="0%" x2="50%" y2="100%" id="linearGradient-1">
            <stop stop-color="#F5515F" offset="0%"></stop>
            <stop stop-color="#9F041B" offset="100%"></stop>
        </linearGradient>
    </defs>
    <g id="Page-1" stroke="none" stroke-width="1" fill="none" fill-rule="evenodd">
        <g id="Artboard-Copy" transform="translate(-226.000000, -617.000000)" fill="url(#linearGradient-1)">
            <g id="Group-2" transform="translate(226.000000, 617.000000)">
                <path d="M18.7069609,18.2424687 L1.73934974,0.316550532 C1.33984579,-0.105516844 0.699131912,-0.105516844 0.299627962,0.316550532 C-0.0998759874,0.738617907 -0.0998759874,1.41551842 0.299627962,1.83758579 L16.5436093,18.9990046 L0.299627962,36.1604233 C-0.0998759874,36.5824907 -0.0998759874,37.2593912 0.299627962,37.6814586 C0.495611032,37.8885105 0.759434395,38 1.01571995,38 C1.2720055,38 1.53582886,37.896474 1.73181193,37.6814586 L18.6994231,19.7555404 C19.098927,19.3414366 19.098927,18.6565725 18.7069609,18.2424687 Z" id="Path"></path>
                <path d="M28.7069609,18.2424687 L11.7393497,0.316550532 C11.3398458,-0.105516844 10.6991319,-0.105516844 10.299628,0.316550532 C9.90012401,0.738617907 9.90012401,1.41551842 10.299628,1.83758579 L26.5436093,18.9990046 L10.299628,36.1604233 C9.90012401,36.5824907 9.90012401,37.2593912 10.299628,37.6814586 C10.495611,37.8885105 10.7594344,38 11.0157199,38 C11.2720055,38 11.5358289,37.896474 11.7318119,37.6814586 L28.6994231,19.7555404 C29.098927,19.3414366 29.098927,18.6565725 28.7069609,18.2424687 Z" id="Path"></path>
            </g>
        </g>
    </g>
</svg>