<?xml version="1.0" encoding="UTF-8"?>
<svg width="298px" height="223px" viewBox="0 0 298 223" version="1.1" xmlns="http://www.w3.org/2000/svg" xmlns:xlink="http://www.w3.org/1999/xlink">
    <!-- Generator: Sketch 52.4 (67378) - http://www.bohemiancoding.com/sketch -->
    <title>tremory</title>
    <desc>Created with Sketch.</desc>
    <g id="Page-1" stroke="none" stroke-width="1" fill="none" fill-rule="evenodd">
        <g id="tremory" transform="translate(1.000000, 1.000000)" stroke="#D0021B" stroke-width="2">
            <path d="M160.333851,0 C161.050001,0.143049897 161.766152,0.357624743 162.482303,0.429149691 C183.393899,1.43049897 202.658349,7.58164455 219.989193,19.2402112 C244.911233,35.9055242 263.029842,58.364358 275.132787,85.6868884 C276.421858,88.6909362 277.710929,91.694984 278.928385,94.6990319 C279,94.8420818 279,95.0566566 279,95.3427564 C278.140619,95.6288562 277.352854,95.986481 276.493473,96.2725808 C265.106679,100.277978 255.367031,107.144373 246.271919,114.869067 C238.107803,121.806987 230.015301,128.744907 221.9228,135.682827 C220.920189,136.541127 219.774348,137.184851 218.771737,138.114676 C217.411051,139.3306 216.193595,139.259075 214.761294,138.114676 C214.832909,137.828576 214.976139,137.542476 215.119369,137.256376 C222.280875,125.45476 229.370766,113.653143 237.964572,102.781351 C243.049241,96.4156307 248.563601,90.4790599 254.794111,85.2577387 C255.581876,84.6140141 256.083182,84.1133395 255.223801,83.0404653 C244.338313,69.450725 232.736673,56.4331844 218.914967,45.6329172 C205.451337,35.1187497 190.698635,27.1079555 173.940712,23.2456083 C157.970554,19.526311 143.074622,22.1727341 130.112297,32.6153765 C120.515879,40.340071 115.502825,50.5681386 113.998909,62.7989048 C111.277537,84.4709642 125.887009,100.635603 140.568095,106.357599 C150.450973,110.219946 160.047391,108.646397 169.357348,104.140325 C170.288344,103.63965 171.36257,103.282026 172.36518,102.995926 C172.794871,102.852876 173.296176,103.138976 173.869097,103.210501 C171.79226,107.001323 168.927658,109.719271 165.490135,111.936544 C157.970554,116.871766 149.663207,119.375139 140.711325,118.80294 C127.247695,118.016165 116.505436,111.936544 108.126474,101.493902 C101.609504,93.4115828 96.9545256,84.4709642 95.0209191,74.1713717 C92.8008523,62.8704298 94.3047685,51.9271127 98.5300569,41.3414203 C103.256651,29.4682788 110.060081,19.0256363 120.444264,11.2294169 C128.107075,5.43589609 136.700882,2.07422351 146.15407,0.929824331 C147.944446,0.715249486 149.734822,0.429149691 151.525199,0.143049897 C154.389801,0 157.326019,0 160.333851,0 Z" id="Path"></path>
            <path d="M0,155 C2.177861,155 4.28312663,155.070999 6.46098762,155.070999 C17.9310555,155.070999 29.4011234,155.141998 40.9437867,155.070999 C42.6134802,155.070999 43.1216477,155.56799 42.976457,157.129964 C42.8312663,158.691938 42.9038616,160.182913 42.976457,161.744887 C43.0490524,163.093864 42.6134802,163.519857 41.2341682,163.519857 C37.0962323,163.448858 32.9582964,163.519857 28.8203605,163.519857 C26.4973088,163.519857 26.4973088,163.519857 26.4973088,165.72082 C26.4973088,178.429607 26.4247134,191.138393 26.5699042,203.84718 C26.5699042,205.62215 25.9891412,206.119142 24.3194478,205.977144 C22.7223497,205.835147 21.0526563,205.977144 19.4555582,205.977144 C17.0599111,205.977144 17.0599111,205.977144 17.0599111,203.705183 C17.0599111,191.209392 17.0599111,178.713602 17.0599111,166.217812 C17.0599111,163.519857 17.0599111,163.448858 14.3012872,163.519857 C9.58258838,163.519857 4.86388956,163.590856 0.145190733,163.590856 C0,160.679905 0,157.839952 0,155 Z" id="Path"></path>
            <path d="M132.076419,51.4542986 C133.797808,47.7223949 136.595064,44.9234671 139.894392,42.4833763 C148.28616,36.3831491 157.682072,33.5842214 167.938678,34.4454299 C178.625631,35.3784058 187.878094,39.8279833 195.409169,47.5070928 C204.016111,56.1909455 210.112695,66.3101458 212.766502,78.3670654 C215.205136,89.7780785 213.914094,100.902022 209.897521,111.738896 C205.450601,123.867583 198.851946,134.489155 188.45189,142.527101 C180.920816,148.340259 172.385598,151.928628 162.917962,153.076906 C131.861246,156.80881 103.745234,149.201468 78.5699286,130.685484 C55.7615318,113.891918 39.0497191,92.146402 27.4303471,66.3819132 C27.2868981,66.0230763 27.143449,65.6642394 27,65.2336352 C27.143449,65.0901004 27.2151736,64.8747983 27.3586226,64.8747983 C39.7669642,60.1381513 49.9518458,52.2437397 59.3477577,43.2010501 C66.6636586,36.2396144 73.9078349,29.2781787 81.2237357,22.316743 C82.4430526,21.168465 83.8775429,20.235489 85.0251352,19.0154436 C86.3161765,17.7236308 87.5354933,17.6518634 89.1851573,18.8719089 C78.4264795,38.8950074 67.9546999,59.133408 50.669091,74.9939986 C52.9642756,77.5058568 55.0442866,79.9459477 57.2677467,82.2425038 C67.7395263,93.5817496 79.0002757,104.203322 91.8389644,112.958942 C105.251449,122.073399 119.739802,128.8913 135.806094,131.690227 C155.458612,135.063294 172.457323,129.96781 185.152563,113.82015 C190.890524,106.499878 193.544331,97.9595596 193.974678,88.7015678 C194.548474,77.8646937 191.536045,68.2478651 184.363593,59.9946166 C178.410458,53.1049483 171.166282,48.0094644 162.200717,45.9282104 C152.589631,43.7034217 143.767516,46.1435126 135.447471,51.0236943 C134.515053,51.5260659 133.36746,51.7413681 132.363317,52.0284376 C132.291593,51.8131354 132.148144,51.5978333 132.076419,51.4542986 Z" id="Path"></path>
            <path d="M123.800559,173.823175 C130.86986,166.786124 138.227705,167.504191 144.431378,175.618341 C144.71992,175.259308 145.080599,174.972081 145.297006,174.684855 C149.553014,169.01213 155.468144,168.509484 161.671817,169.87381 C167.226268,171.094523 171.121597,175.546534 171.554412,181.650099 C172.059362,188.112696 171.91509,194.647101 171.987226,201.181505 C172.059362,205.99255 171.987226,205.99255 167.226268,205.99255 C163.258803,205.99255 163.258803,205.99255 163.258803,201.971378 C163.258803,196.442267 163.258803,190.913155 163.258803,185.384044 C163.258803,181.793712 161.383274,178.84964 158.714252,177.916154 C154.746787,176.480021 150.346507,178.63422 148.831657,182.870812 C148.398843,184.163331 148.1103,185.527657 148.1103,186.891984 C148.038164,192.636515 148.038164,198.452853 148.1103,204.197384 C148.1103,205.56171 147.749621,206.064357 146.379042,205.99255 C144.71992,205.920743 142.988663,205.920743 141.329541,205.99255 C139.814691,206.064357 139.237605,205.633517 139.237605,203.981964 C139.309741,198.022013 139.309741,192.133868 139.237605,186.173917 C139.237605,184.953204 139.021198,183.660685 138.588383,182.439972 C137.506348,179.28048 135.053733,177.3417 131.951896,177.269894 C128.705789,177.198087 126.253174,178.777833 124.882595,181.650099 C124.233373,183.086232 123.800559,184.809591 123.800559,186.461144 C123.656288,192.349288 123.728423,198.237433 123.800559,204.125577 C123.800559,205.56171 123.367745,206.064357 121.92503,205.99255 C120.049501,205.920743 118.246108,205.920743 116.370579,205.99255 C115.288543,205.99255 115,205.633517 115,204.556417 C115,193.426388 115,182.296359 115,171.166329 C115,170.08923 115.360679,169.730196 116.370579,169.730196 C117.957565,169.802003 119.616687,169.87381 121.203673,169.730196 C122.862794,169.586583 123.295609,170.376456 123.43988,171.812589 C123.43988,172.387042 123.656288,172.961495 123.800559,173.823175 Z" id="Path"></path>
            <path d="M80.1991969,191.142724 C80.3442551,194.490462 82.2300119,196.556088 84.8410598,197.8382 C89.9180973,200.18874 94.9226057,199.547684 99.7095268,196.91223 C100.144701,196.698545 100.579876,196.342402 101.015051,196.057488 C102.755749,197.8382 104.496448,199.618912 106.309676,201.470852 C106.237147,201.542081 106.019559,201.898223 105.729443,202.183137 C98.4040029,208.5937 84.1157687,208.5937 76.7903288,202.254366 C73.526519,199.405227 71.7858204,195.772574 71.2781167,191.641323 C70.6253547,186.65533 70.9880002,181.811794 73.8166354,177.395628 C77.2980326,171.982264 82.5201283,169.489267 88.8301607,169.061897 C93.5445527,168.776983 98.1864156,169.418039 102.102987,172.195949 C106.599792,175.330002 108.41302,179.959853 108.920723,185.159532 C109.065782,186.584101 108.920723,188.008671 108.993253,189.43324 C109.065782,190.715353 108.558078,191.071495 107.252554,191.071495 C98.9842358,191.000267 90.7159175,191.071495 82.4475992,191.071495 C81.7223082,191.142724 80.9970171,191.142724 80.1991969,191.142724 Z M100.28976,184.019876 C100.072172,181.313194 98.8391775,179.247568 96.5907752,178.107913 C92.2390288,175.89983 87.8147532,176.042287 83.6805941,178.748969 C81.8673664,179.959853 80.7069007,181.669337 80.1991969,184.019876 C87.016933,184.019876 93.6170818,184.019876 100.28976,184.019876 Z" id="Shape"></path>
            <path d="M217.974305,188.144478 C217.974305,199.414142 210.22001,207.071735 198.769743,206.999493 C187.754295,206.999493 180,199.052935 180,187.783271 C180,176.730331 187.971705,168.928256 199.132093,169.000498 C211.452001,169.072739 218.481596,178.608609 217.974305,188.144478 Z M188.913816,187.927754 C188.913816,188.21672 188.913816,188.505685 188.913816,188.794651 C188.986286,193.996035 192.682258,198.258279 197.465282,198.908452 C202.973005,199.630867 207.393678,196.741209 208.698139,191.323101 C209.132959,189.589307 209.205429,187.638788 208.988019,185.832752 C208.335789,181.2093 204.277466,176.224641 197.827632,177.019297 C192.392378,177.741711 188.913816,182.003956 188.913816,187.927754 Z" id="Shape"></path>
            <path d="M275.357143,195.432534 C275.785714,194.364256 276.214286,193.224759 276.642857,192.15648 C279.428571,185.248279 282.285714,178.340078 285,171.360658 C285.428571,170.363598 285.928571,170.007506 287.071429,170.007506 C289.642857,170.078724 292.214286,170.007506 295,170.007506 C294.857143,170.577254 294.785714,171.004565 294.642857,171.360658 C287.714286,187.456055 280.714286,203.551451 273.785714,219.646847 C273.357143,220.643907 272.785714,221 271.714286,221 C269.142857,220.928781 266.571429,221 263.714286,221 C264.5,219.148317 265.142857,217.51029 265.857143,215.943482 C267.142857,213.02352 268.357143,210.032341 269.714286,207.183598 C270.214286,206.044101 270.214286,205.047041 269.714286,203.907544 C265.357143,193.295977 261.071429,182.684411 256.714286,172.072844 C256.5,171.574314 256.285714,171.004565 256,170.29238 C256.5,170.221161 256.928571,170.078724 257.357143,170.078724 C259.642857,170.078724 261.928571,170.149943 264.214286,170.007506 C265.5,169.936287 266.142857,170.363598 266.571429,171.645533 C269,178.909826 271.571429,186.102902 274.071429,193.295977 C274.357143,194.008163 274.642857,194.791567 274.857143,195.503753 C275.071429,195.432534 275.214286,195.432534 275.357143,195.432534 Z" id="Path"></path>
            <path d="M232.754554,173.507429 C233.759174,172.718588 234.620278,172.073173 235.409623,171.284331 C238.997555,167.985541 247.823867,168.415818 251.555316,171.571183 C251.914109,171.858034 252.129385,172.718588 251.914109,173.148865 C250.909488,175.30025 249.76135,177.451635 248.613212,179.603021 C247.178039,179.029318 245.814625,178.240477 244.451211,177.881913 C239.499865,176.591081 232.682795,178.885892 232.826312,186.774305 C232.898071,192.583044 232.826312,198.391784 232.898071,204.200524 C232.898071,205.563068 232.467519,206.065058 231.104105,205.993345 C229.453656,205.921633 227.731449,205.921633 226.081,205.993345 C224.50231,206.065058 224,205.563068 224,203.985386 C224.071759,194.73443 224.071759,185.483473 224.071759,176.160804 C224.071759,174.583122 224.143517,173.077152 224.071759,171.49947 C224,170.280352 224.358793,169.706649 225.722207,169.778362 C227.300897,169.850075 228.807829,169.921787 230.386519,169.778362 C231.821691,169.634936 232.324002,170.352064 232.467519,171.571183 C232.539278,172.288311 232.611036,172.933727 232.754554,173.507429 Z" id="Path"></path>
            <path d="M65.3770054,179.808774 C62.8676078,177.944615 60.214816,177.299329 57.346933,177.657821 C52.3281378,178.374805 49.5319519,181.672933 49.5319519,187.122014 C49.4602548,192.78619 49.4602548,198.378667 49.5319519,204.042843 C49.5319519,205.54851 49.1017694,206.122098 47.5961309,205.978701 C45.9470982,205.835304 44.2263684,205.907002 42.5773356,205.978701 C41.5018795,205.978701 41,205.691907 41,204.544732 C41,193.431476 41,182.318219 41,171.204962 C41,170.129486 41.5018795,169.842692 42.5056386,169.842692 C44.1546713,169.914391 45.8754011,169.914391 47.5244338,169.842692 C48.7432841,169.770994 49.1734665,170.272883 49.2451636,171.420058 C49.2451636,172.137042 49.5319519,172.854026 49.7470431,173.929503 C50.3206197,173.284217 50.7508022,172.854026 51.1092875,172.423836 C54.8375354,167.548342 64.8034288,168.408724 68.5316767,171.706851 C68.818465,171.921947 69.1052533,172.567232 68.9618591,172.782328 C67.8147059,175.148376 66.5958557,177.442726 65.3770054,179.808774 Z" id="Path"></path>
            <path d="M100,183 C93.2851986,183 86.7148014,183 80,183 C80.5054152,180.790311 81.6606498,179.183264 83.465704,178.04494 C87.5812274,175.500449 91.9133574,175.366529 96.3176895,177.442297 C98.6281588,178.513661 99.8555957,180.45551 100,183 Z" id="Path"></path>
            <path d="M189,187.888447 C189,181.982478 192.517106,177.733062 197.828654,177.084846 C204.288645,176.292582 208.236418,181.190214 208.882417,185.871775 C209.09775,187.672375 209.025972,189.617023 208.595306,191.345599 C207.303308,196.747399 202.853092,199.556336 197.469766,198.90812 C192.660662,198.259904 189.071778,194.010487 189,188.824759 C189,188.464639 189,188.176543 189,187.888447 Z" id="Path"></path>
        </g>
    </g>
</svg>